<svg xmlns="http://www.w3.org/2000/svg" width="468.87" height="423.101" viewBox="0 0 468.87 423.101">
  <g id="illustration-light" transform="translate(0 0)">
    <path id="Path_1" data-name="Path 1" d="M31.26,321.2c-10.778-11.455-19.066-25.851-24.032-43.415C-4.877,234.976-3.36,182.679,24.01,145.862c17.006-22.876,42.13-38.617,69.792-45.02,28.769-6.659,35.978-32.135,54.52-52.174,15.639-16.9,37.32-30.306,58.694-38.5C264.454-11.852,350.655.837,383.94,58.611c8.722,15.139,11.618,33.749,21.849,48.016,10.946,15.264,28.89,22.839,39.945,37.806,11.173,15.127,17.649,33.477,20.075,52.032,3.15,24.093-.176,48.633-6.028,72.215-28.213,113.687-182.259,81.511-269.559,85.365-26,1.148-52.051,4.026-78,1.968C82.185,353.631,52.325,343.593,31.26,321.2Z" fill="#e4dfff"/>
    <path id="Path_2" data-name="Path 2" d="M233.441,369.892c118.05,0,213.747-9.957,213.747-22.24s-95.7-22.24-213.747-22.24-213.747,9.957-213.747,22.24S115.392,369.892,233.441,369.892Z" fill="#ffdac2"/>
    <path id="Path_3" data-name="Path 3" d="M267.271,217.938c.882,3.554.521,7.287.023,10.925a66.638,66.638,0,0,1-4.058,16.624,41.44,41.44,0,0,1-13,17.1,17.16,17.16,0,0,1-4.617,2.484,20.123,20.123,0,0,1-3.906.93c-2.785.4-5.709.365-8.925.541-15.224.826-29.836-1.686-42.894-10.018-4.035-2.571-7.88-5.694-10.209-9.879a15.732,15.732,0,0,1-2.018-7.566,12.275,12.275,0,0,1,.63-3.991,10.41,10.41,0,0,1,.983-2.133c3.353-5.547,10.747-6.929,17.227-6.9a38.434,38.434,0,0,1-22.036-11.971c-3.244-3.57-5.877-8.14-5.853-12.894a13.057,13.057,0,0,1,.107-1.573,9.325,9.325,0,0,1,.67-2.417c1.753-4.214,6.374-7.371,10.655-5.918q-5.871-7.6-11.756-15.191c-2.766-3.585-5.588-7.242-7.1-11.517a15.477,15.477,0,0,1,.006-11.138,10.61,10.61,0,0,1,1.059-1.9,8.476,8.476,0,0,1,1.172-1.343c2.873-2.717,7.548-3.649,10.738-1.338-2.768-6.719-5.565-13.551-6.321-20.778s.8-15.037,5.8-20.326a16.534,16.534,0,0,1,4.382-3.292,17.371,17.371,0,0,1,3.712-1.432,13.984,13.984,0,0,1,11.669,1.783c4.1,2.912,6.076,7.92,7.749,12.659q3.5,9.919,6.487,20c-.787-5.114,4.617-9.7,9.774-9.316a10.8,10.8,0,0,1,2.3.423,12.468,12.468,0,0,1,3.791,1.913,17.244,17.244,0,0,1,5.449,6.886c2.1,4.734,2.424,10.021,2.728,15.184q.552,9.493,1.1,18.988c.324-4.687,5.851-7.8,10.417-6.684.241.062.484.131.722.21a11.033,11.033,0,0,1,3.754,2.13,15.811,15.811,0,0,1,4.7,7.512c1.328,4.507,1.05,9.309.757,13.994l-1.551,25.072c.857-2.829,3.93-4.465,6.91-4.36a6.778,6.778,0,0,1,2.092.374,9.292,9.292,0,0,1,1.66.783,12.023,12.023,0,0,1,5.016,7.36Z" fill="#c3b7fc"/>
    <path id="Path_4" data-name="Path 4" d="M236.471,248.31c2.9,5.671,5.924,11.283,9.143,16.76a20.121,20.121,0,0,1-3.906.93c-.789-1.358-1.571-2.718-2.332-4.093q-3.555-6.392-6.922-12.909a119.682,119.682,0,0,1-54.792-9.919,12.275,12.275,0,0,1,.63-3.991,115.679,115.679,0,0,0,52.207,10.1q-7.47-14.742-14.109-29.923a122.8,122.8,0,0,1-47.777-14.076,13.054,13.054,0,0,1,.107-1.573,9.325,9.325,0,0,1,.67-2.417,118.353,118.353,0,0,0,45.24,14.025c-4.629-10.693-9.006-21.492-13.205-32.3-.12-.3-.233-.6-.346-.9-15.509-4.2-28.433-13.643-39.887-24.594a10.607,10.607,0,0,1,1.059-1.9,8.475,8.475,0,0,1,1.172-1.343c10.4,10.024,22.053,18.863,35.9,23.26-4.847-12.718-9.4-25.556-13.545-38.516a218.745,218.745,0,0,1-7.758-30.478,17.369,17.369,0,0,1,3.712-1.432c2.042,12.623,5.788,24.918,9.831,37.068q5.706,17.115,12.173,33.975c3.961-2.691,6.1-6.891,7.8-11.339,1.922-5.062,3.515-10.3,4.928-15.521a91.681,91.681,0,0,0,3.246-18.637,12.468,12.468,0,0,1,3.791,1.913,103.692,103.692,0,0,1-3.949,20.091c-2.715,9.384-5.333,21.813-14.377,27.2q7.016,18.054,14.879,35.771a71.051,71.051,0,0,0,23.867-48.474,11.032,11.032,0,0,1,3.754,2.13,75.407,75.407,0,0,1-25.97,50.026q1.773,3.946,3.579,7.865c3.038,6.566,6.143,13.16,9.4,19.679,11.383-9.122,20.9-21.237,23.8-35.353a6.778,6.778,0,0,1,2.092.374,9.292,9.292,0,0,1,1.66.783C259,225.659,248.715,238.608,236.471,248.31Z" fill="#dfdbfc"/>
    <path id="Path_5" data-name="Path 5" d="M354.588,245.822c-.811,3.267-.479,6.7-.021,10.043a61.23,61.23,0,0,0,3.731,15.283,38.087,38.087,0,0,0,11.955,15.719,15.8,15.8,0,0,0,4.245,2.284,18.537,18.537,0,0,0,3.591.855c2.56.366,5.248.336,8.205.5,13.995.759,27.429-1.55,39.433-9.21,3.71-2.363,7.244-5.235,9.385-9.082a14.46,14.46,0,0,0,1.855-6.955,11.3,11.3,0,0,0-.579-3.669,9.643,9.643,0,0,0-.9-1.96c-3.082-5.1-9.88-6.37-15.837-6.347A35.324,35.324,0,0,0,439.9,242.276c2.982-3.282,5.4-7.483,5.381-11.853a11.972,11.972,0,0,0-.1-1.446,8.556,8.556,0,0,0-.616-2.222c-1.611-3.874-5.86-6.776-9.8-5.44q5.4-6.984,10.807-13.965c2.543-3.3,5.137-6.658,6.53-10.588a14.225,14.225,0,0,0-.006-10.24,9.689,9.689,0,0,0-.974-1.742,7.776,7.776,0,0,0-1.077-1.234c-2.641-2.5-6.939-3.355-9.872-1.23,2.545-6.177,5.116-12.457,5.811-19.1s-.74-13.824-5.328-18.686a15.215,15.215,0,0,0-4.028-3.027,16.011,16.011,0,0,0-3.413-1.317,12.859,12.859,0,0,0-10.728,1.639c-3.766,2.677-5.586,7.281-7.124,11.638q-3.217,9.118-5.963,18.383c.724-4.7-4.245-8.919-8.985-8.564a9.991,9.991,0,0,0-2.111.389,11.477,11.477,0,0,0-3.485,1.759,15.829,15.829,0,0,0-5.009,6.331c-1.928,4.352-2.229,9.212-2.508,13.959l-1.016,17.456c-.3-4.308-5.379-7.171-9.576-6.145-.221.057-.445.12-.664.193a10.154,10.154,0,0,0-3.451,1.958,14.537,14.537,0,0,0-4.322,6.906c-1.221,4.143-.965,8.558-.7,12.865Q368.285,230.477,369,242c-.788-2.6-3.613-4.1-6.352-4.008a6.242,6.242,0,0,0-1.923.344,8.549,8.549,0,0,0-1.526.72,11.018,11.018,0,0,0-4.61,6.764Z" fill="#e08675"/>
    <path id="Path_6" data-name="Path 6" d="M382.9,273.743c-2.664,5.213-5.446,10.373-8.4,15.408a18.537,18.537,0,0,0,3.591.855c.725-1.249,1.444-2.5,2.144-3.763q3.269-5.876,6.363-11.868a110.03,110.03,0,0,0,50.371-9.119,11.3,11.3,0,0,0-.579-3.669,106.344,106.344,0,0,1-47.994,9.282q6.867-13.551,12.971-27.508a112.894,112.894,0,0,0,43.921-12.94,11.952,11.952,0,0,0-.1-1.446,8.549,8.549,0,0,0-.616-2.222,108.81,108.81,0,0,1-41.589,12.894c4.255-9.83,8.279-19.758,12.14-29.694.11-.273.214-.548.318-.823,14.258-3.865,26.138-12.542,36.668-22.61a9.684,9.684,0,0,0-.974-1.742,7.774,7.774,0,0,0-1.077-1.234c-9.556,9.215-20.274,17.341-33,21.383,4.456-11.692,8.639-23.494,12.452-35.408a201.151,201.151,0,0,0,7.132-28.018,16.011,16.011,0,0,0-3.413-1.317c-1.878,11.6-5.321,22.907-9.037,34.077Q418.943,189.994,413,205.494c-3.642-2.474-5.611-6.335-7.168-10.424-1.767-4.653-3.231-9.473-4.531-14.269a84.267,84.267,0,0,1-2.984-17.134,11.478,11.478,0,0,0-3.485,1.759,95.393,95.393,0,0,0,3.63,18.47c2.5,8.627,4.9,20.053,13.216,25Q405.23,225.5,398,241.78a65.317,65.317,0,0,1-21.941-44.562,10.154,10.154,0,0,0-3.451,1.958,69.32,69.32,0,0,0,23.874,45.989q-1.631,3.627-3.291,7.23c-2.793,6.036-5.647,12.1-8.645,18.091-10.464-8.386-19.215-19.523-21.883-32.5a6.242,6.242,0,0,0-1.923.344,8.552,8.552,0,0,0-1.526.72C362.193,252.92,371.645,264.824,382.9,273.743Z" fill="#d7594a"/>
    <path id="Path_7" data-name="Path 7" d="M457.244,250.706c-3.086,1.613-5.675,4.179-8.229,6.516q-3.95,3.614-7.706,7.43c-5.014,5.086-9.761,10.429-14.3,15.942a394.286,394.286,0,0,0-25.216,34.762c-4.409,6.734-8.687,13.553-12.921,20.4-.813,1.315,1.258,2.536,2.07,1.22,14.845-24.062,30.358-47.932,49.875-68.526q4.124-4.352,8.483-8.47c2.884-2.718,6.2-5.187,8.674-8.292a.62.62,0,0,0-.73-.982Z" fill="#ecbf4c"/>
    <path id="Path_8" data-name="Path 8" d="M468.173,244.5c-1.443-2.1-4.981-1.637-7.17-1.183-5.165,1.071-9.671,4.565-13.358,8.4a62.909,62.909,0,0,0-7.268,9.193,34.485,34.485,0,0,0-5.029,10.578.541.541,0,0,0,.647.688,1.094,1.094,0,0,0,1.025.227,56.018,56.018,0,0,0,16.36-7.192,58.311,58.311,0,0,0,7.242-5.547,32.678,32.678,0,0,0,6.4-7.192C468.34,250.286,469.751,246.788,468.173,244.5Z" fill="#ecbf4c"/>
    <path id="Path_9" data-name="Path 9" d="M431.908,272.65c1.062-3.143,2.019-6.309,2.8-9.5a86.834,86.834,0,0,0,1.8-9.494c.359-2.769.483-5.708-.861-7.9a4.665,4.665,0,0,0-5.941-1.9c-2.588.992-4.549,3.475-5.955,6.015a32.221,32.221,0,0,0-1.6,25.367,19.367,19.367,0,0,0,1.876,3.738,11.476,11.476,0,0,0,2.22,2.511,1.044,1.044,0,0,0,.441.365l.127.1a.34.34,0,0,0,.48-.064,1.312,1.312,0,0,0,.615-.41C430.051,279.1,430.915,275.589,431.908,272.65Z" fill="#ecbf4c"/>
    <path id="Path_10" data-name="Path 10" d="M418.446,286.471c-.019-3.221-.143-6.43-.434-9.609a84.2,84.2,0,0,0-1.352-9.284c-.547-2.655-1.363-5.393-3.289-6.975a4.529,4.529,0,0,0-6.054.139c-2.061,1.729-3.076,4.629-3.563,7.406a31.286,31.286,0,0,0,6.56,23.79,18.831,18.831,0,0,0,2.9,2.837,11.144,11.144,0,0,0,2.832,1.6,1.014,1.014,0,0,0,.521.2l.149.054a.33.33,0,0,0,.42-.211,1.276,1.276,0,0,0,.435-.571C418.783,292.98,418.465,289.483,418.446,286.471Z" fill="#ecbf4c"/>
    <path id="Path_11" data-name="Path 11" d="M406.349,302.733c-.351-3.2-.8-6.381-1.421-9.514a84.018,84.018,0,0,0-2.3-9.1c-.817-2.585-1.911-5.224-3.989-6.6a4.529,4.529,0,0,0-6.007.761c-1.873,1.932-2.583,4.921-2.782,7.733A31.282,31.282,0,0,0,398.824,309,18.8,18.8,0,0,0,402,311.529a11.15,11.15,0,0,0,2.983,1.3,1.009,1.009,0,0,0,.538.141l.154.038a.332.332,0,0,0,.4-.253,1.28,1.28,0,0,0,.374-.613C407.354,309.173,406.677,305.727,406.349,302.733Z" fill="#ecbf4c"/>
    <path id="Path_12" data-name="Path 12" d="M394.764,318.7c-.535-3.144-1.173-6.26-1.975-9.322a81.952,81.952,0,0,0-2.845-8.864c-.974-2.51-2.233-5.06-4.421-6.31a4.692,4.692,0,0,0-6.061,1.063c-1.8,2.005-2.349,4.993-2.4,7.781a28.567,28.567,0,0,0,4.754,15.618,29.338,29.338,0,0,0,5.647,6.619,19.226,19.226,0,0,0,3.373,2.327,11.591,11.591,0,0,0,3.1,1.132,1.069,1.069,0,0,0,.554.112c.053.01.1.021.159.03a.335.335,0,0,0,.389-.271,1.252,1.252,0,0,0,.346-.625C396.144,325.007,395.264,321.64,394.764,318.7Z" fill="#ecbf4c"/>
    <path id="Path_13" data-name="Path 13" d="M403.773,325.108c3.17-.354,6.34-.6,9.5-.677a81.769,81.769,0,0,1,9.3.286c2.682.243,5.48.748,7.287,2.506a4.693,4.693,0,0,1,.653,6.119c-1.431,2.279-4.15,3.637-6.816,4.451a28.568,28.568,0,0,1-16.324-.255,29.34,29.34,0,0,1-7.921-3.6,19.308,19.308,0,0,1-3.169-2.6,11.61,11.61,0,0,1-1.945-2.669,1.056,1.056,0,0,1-.26-.5c-.024-.048-.049-.1-.073-.144a.334.334,0,0,1,.153-.448,1.25,1.25,0,0,1,.5-.505C397.33,325.524,400.81,325.439,403.773,325.108Z" fill="#ecbf4c"/>
    <path id="Path_14" data-name="Path 14" d="M414.876,308.929c3.207-.385,6.417-.659,9.624-.755a81.1,81.1,0,0,1,9.444.246c2.726.238,5.576.746,7.45,2.56a4.978,4.978,0,0,1,.807,6.346c-1.4,2.372-4.123,3.8-6.809,4.656a28.381,28.381,0,0,1-16.564-.174,30.075,30.075,0,0,1-8.12-3.69,20.144,20.144,0,0,1-3.276-2.68,12.3,12.3,0,0,1-2.036-2.759,1.136,1.136,0,0,1-.276-.519l-.077-.149a.347.347,0,0,1,.144-.466,1.25,1.25,0,0,1,.5-.527C408.35,309.4,411.878,309.289,414.876,308.929Z" fill="#ecbf4c"/>
    <path id="Path_15" data-name="Path 15" d="M466.593,279.088a7.057,7.057,0,0,0-3.623-6.494c-4.512-2.838-10.73-1.613-15.618-.54a50.314,50.314,0,0,0-15.483,6.222c-1.16.711-2.309,1.389-3.514,2.014-.365.189-.764-.068-1.077.325-2.159,2.723,8.6,5.813,10.46,6.34,5.43,1.538,11.411,2.337,16.948,1.135C459.44,287.058,466.1,284.852,466.593,279.088Z" fill="#ecbf4c"/>
    <path id="Path_16" data-name="Path 16" d="M453.652,301.246a6.89,6.89,0,0,0-2.119-6.89c-3.689-3.631-9.8-3.791-14.626-3.813a48.146,48.146,0,0,0-15.851,2.592c-1.236.425-2.457.822-3.718,1.156-.382.1-.708-.226-1.081.078-2.581,2.111,6.948,7.3,8.6,8.191,4.816,2.6,10.3,4.617,15.762,4.656C445.31,307.249,452.032,306.577,453.652,301.246Z" fill="#ecbf4c"/>
    <path id="Path_17" data-name="Path 17" d="M318.423,77.239,219.559,181.181l68.861,65.5,98.865-103.943Z" fill="#ecbf4c"/>
    <path id="Path_18" data-name="Path 18" d="M288.414,246.69l10.456-89.043,88.409-14.894Z" fill="#e5b340"/>
    <path id="Path_19" data-name="Path 19" d="M219.555,181.192l85.983-9.14a9.019,9.019,0,0,0,8.052-8.465l4.831-86.332Z" fill="#dfa331"/>
    <path id="Path_20" data-name="Path 20" d="M396.836,339.078h-84A3.078,3.078,0,0,1,309.759,336V198.369a3.078,3.078,0,0,1,3.078-3.078h84a3.078,3.078,0,0,1,3.078,3.078V336a3.078,3.078,0,0,1-3.079,3.078Z" fill="#c3b7fc"/>
    <path id="Path_21" data-name="Path 21" d="M394.321,202.238H315.353v116.44h78.968Z" fill="#363271"/>
    <path id="Path_22" data-name="Path 22" d="M394.321,318.679H315.353V202.238Z" fill="#fff" opacity="0.08"/>
    <path id="Path_23" data-name="Path 23" d="M362.569,328.714a7.732,7.732,0,1,1-7.732-7.732A7.732,7.732,0,0,1,362.569,328.714Z" fill="#363271"/>
    <path id="Path_24" data-name="Path 24" d="M384.576,153.866c-22.393,0-40.546,13.615-40.546,30.41,0,8.94,5.144,16.978,13.332,22.542.159,2.531.532,5.108.631,6.327a70.527,70.527,0,0,0,1.555,10.073,1.215,1.215,0,0,0,2.227.356,121.368,121.368,0,0,1,7.6-11.1,52.4,52.4,0,0,0,15.206,2.213c22.393,0,40.546-13.615,40.546-30.41S406.969,153.866,384.576,153.866Z" fill="#fff"/>
    <path id="Path_25" data-name="Path 25" d="M371.771,183.742a6.758,6.758,0,1,1-6.758-6.758A6.758,6.758,0,0,1,371.771,183.742Z" fill="#c3b7fc"/>
    <path id="Path_26" data-name="Path 26" d="M393.112,183.742a6.758,6.758,0,1,1-6.758-6.758A6.758,6.758,0,0,1,393.112,183.742Z" fill="#c3b7fc"/>
    <path id="Path_27" data-name="Path 27" d="M414.452,183.742a6.758,6.758,0,1,1-6.758-6.758A6.758,6.758,0,0,1,414.452,183.742Z" fill="#c3b7fc"/>
    <path id="Path_28" data-name="Path 28" d="M352.872,274.559c-.48,1-.98,2-1.49,3a10.393,10.393,0,0,1-14.04,4.46l-27.83-14.48-.3-.16a10.382,10.382,0,0,1-4.23-14.33l1.31-2.32,2.04-3.6a8.718,8.718,0,0,0,1.08-3.21c.53-4.21-.08-13.59-15.78-14.44h-76.85c-14.81.8-16.19,9.19-15.86,13.68a10.256,10.256,0,0,0,1.32,4.25l2,3.54,1.2,2.1a10.393,10.393,0,0,1-4.24,14.33l-.13.07-28,14.57a10.381,10.381,0,0,1-14.03-4.46c-.48-.93-.94-1.85-1.39-2.77-5.39-11.11-8.37-21.79-3.81-34.28a29.471,29.471,0,0,1,17.17-17.32,225.139,225.139,0,0,1,84.2-14.79,225.123,225.123,0,0,1,84.19,14.79,29.444,29.444,0,0,1,17.17,17.32C361.1,252.909,358.2,263.539,352.872,274.559Z" fill="#dd6e5c"/>
    <path id="Path_29" data-name="Path 29" d="M201.2,267.382l-28.126,14.639a10.39,10.39,0,0,1-14.036-4.463q-.715-1.392-1.383-2.772l46.592-23.84,1.191,2.1a10.387,10.387,0,0,1-4.238,14.336Z" fill="#e08675"/>
    <path id="Path_30" data-name="Path 30" d="M352.871,274.562q-.717,1.489-1.493,3a10.392,10.392,0,0,1-14.036,4.463l-28.126-14.639a10.386,10.386,0,0,1-4.238-14.332l1.317-2.322Z" fill="#e08675"/>
    <path id="Path_31" data-name="Path 31" d="M316.452,246.369c-.94,4.4-3.84,8.09-5.7,12.19a14.594,14.594,0,0,0-1.24,8.98l-.3-.16a10.382,10.382,0,0,1-4.23-14.33l1.31-2.32,2.04-3.6a8.719,8.719,0,0,0,1.08-3.21c.53-4.21-.08-13.59-15.78-14.44h-76.85c-14.81.8-16.19,9.19-15.86,13.68a10.257,10.257,0,0,0,1.32,4.25l2,3.54,1.2,2.1a10.393,10.393,0,0,1-4.24,14.33l-.13.07a7.254,7.254,0,0,0,.73-2.28c.51-3.29-1.18-6.48-2.74-9.43-3.51-6.66-6.64-14.58-3.68-21.5,2.34-5.46,8.02-8.83,13.78-10.31,5.44-1.4,11.12-1.45,16.74-1.49q26.355-.21,52.72-.4c8.67-.06,17.67-.05,25.51,3.64S318.272,237.889,316.452,246.369Z" fill="#c1463d" opacity="0.3"/>
    <path id="Path_32" data-name="Path 32" d="M333.7,312.039v23.773a3.741,3.741,0,0,1-3.743,3.744H179.908a3.742,3.742,0,0,1-3.744-3.744V312.039a3.729,3.729,0,0,1,1.767-3.167c31.81-19.728,38.979-74.263,40.28-87.634a3.307,3.307,0,0,1,3.288-2.992h7.69a7.049,7.049,0,0,1,7.048,7.047v6.775a3.74,3.74,0,0,0,3.738,3.744h29.916a3.74,3.74,0,0,0,3.738-3.744v-6.774a7.049,7.049,0,0,1,7.047-7.048h7.692a3.307,3.307,0,0,1,3.288,2.992c1.3,13.372,8.47,67.906,40.28,87.634a3.729,3.729,0,0,1,1.764,3.167Z" fill="#c64b42"/>
    <path id="Path_33" data-name="Path 33" d="M254.109,314.306a33.484,33.484,0,1,0-33.484-33.484A33.484,33.484,0,0,0,254.109,314.306Z" fill="#fff"/>
    <path id="Path_34" data-name="Path 34" d="M267.282,280.819a13.153,13.153,0,1,1-3.853-9.318,13.171,13.171,0,0,1,3.853,9.318Z" fill="#e4e4e4"/>
    <path id="Path_35" data-name="Path 35" d="M237.643,280.548a6.313,6.313,0,1,1-6.313-6.313,6.313,6.313,0,0,1,6.313,6.313Z" fill="#e4e4e4"/>
    <path id="Path_36" data-name="Path 36" d="M283.2,280.548a6.313,6.313,0,1,1-6.313-6.313,6.313,6.313,0,0,1,6.313,6.313Z" fill="#e4e4e4"/>
    <path id="Path_37" data-name="Path 37" d="M254.109,297.015a6.313,6.313,0,1,1-6.313,6.313,6.313,6.313,0,0,1,6.313-6.313Z" fill="#e4e4e4"/>
    <path id="Path_38" data-name="Path 38" d="M254.109,251.455a6.313,6.313,0,1,1-6.313,6.313A6.313,6.313,0,0,1,254.109,251.455Z" fill="#e4e4e4"/>
    <path id="Path_39" data-name="Path 39" d="M265.754,292.192a6.312,6.312,0,1,1,0,8.927,6.312,6.312,0,0,1,0-8.927Z" fill="#e4e4e4"/>
    <path id="Path_40" data-name="Path 40" d="M233.538,259.976a6.312,6.312,0,1,1,0,8.927A6.312,6.312,0,0,1,233.538,259.976Z" fill="#e4e4e4"/>
    <path id="Path_41" data-name="Path 41" d="M265.754,268.9a6.312,6.312,0,1,1,8.927,0,6.312,6.312,0,0,1-8.927,0Z" fill="#e4e4e4"/>
    <path id="Path_42" data-name="Path 42" d="M233.539,301.119a6.312,6.312,0,1,1,8.927,0,6.312,6.312,0,0,1-8.927,0Z" fill="#e4e4e4"/>
    <path id="Path_43" data-name="Path 43" d="M333.7,324.735v11.077a3.741,3.741,0,0,1-3.743,3.744H179.908a3.742,3.742,0,0,1-3.744-3.744V324.735Z" fill="#dd6e5c"/>
    <path id="Path_44" data-name="Path 44" d="M260.8,292.169a13.173,13.173,0,1,1-12.27-23.28Z" fill="#fff" opacity="0.41"/>
    <path id="Path_45" data-name="Path 45" d="M125.151,149.108c14.6,0,26.444,8.88,26.444,19.833,0,5.83-3.355,11.073-8.7,14.7-.1,1.651-.347,3.332-.411,4.126a46.011,46.011,0,0,1-1.014,6.57.792.792,0,0,1-1.452.232,79.111,79.111,0,0,0-4.954-7.24,34.178,34.178,0,0,1-9.917,1.443c-14.605,0-26.445-8.88-26.445-19.833S110.546,149.108,125.151,149.108Z" fill="#fff"/>
    <path id="Path_46" data-name="Path 46" d="M133.5,168.593a4.407,4.407,0,1,0,4.407-4.408,4.407,4.407,0,0,0-4.407,4.408Z" fill="#c3b7fc"/>
    <path id="Path_47" data-name="Path 47" d="M119.583,168.593a4.407,4.407,0,1,0,4.407-4.408,4.407,4.407,0,0,0-4.407,4.408Z" fill="#c3b7fc"/>
    <path id="Path_48" data-name="Path 48" d="M105.666,168.593a4.407,4.407,0,1,0,4.407-4.408,4.407,4.407,0,0,0-4.407,4.408Z" fill="#c3b7fc"/>
    <path id="Path_49" data-name="Path 49" d="M25.746,242.458c3.46,1.808,6.363,4.685,9.226,7.3q4.428,4.052,8.64,8.331c5.622,5.7,10.944,11.693,16.033,17.875a442.107,442.107,0,0,1,28.273,38.975c4.944,7.551,9.74,15.2,14.487,22.872.912,1.475-1.41,2.844-2.321,1.368C83.44,312.2,66.046,285.442,44.164,262.352q-4.623-4.879-9.512-9.5c-3.233-3.047-6.957-5.816-9.725-9.3a.7.7,0,0,1,.819-1.094Z" fill="#e08675"/>
    <path id="Path_50" data-name="Path 50" d="M13.49,235.5c1.618-2.349,5.585-1.835,8.04-1.326,5.792,1.2,10.843,5.118,14.977,9.418A70.562,70.562,0,0,1,44.655,253.9a38.649,38.649,0,0,1,5.638,11.86.607.607,0,0,1-.725.771,1.223,1.223,0,0,1-1.149.254,62.814,62.814,0,0,1-18.343-8.064,65.338,65.338,0,0,1-8.12-6.22,36.662,36.662,0,0,1-7.176-8.064C13.3,241.986,11.722,238.064,13.49,235.5Z" fill="#e08675"/>
    <path id="Path_51" data-name="Path 51" d="M54.153,267.061c-1.191-3.524-2.264-7.074-3.142-10.654a97.068,97.068,0,0,1-2.018-10.645c-.4-3.1-.541-6.4.966-8.853a5.23,5.23,0,0,1,6.661-2.127c2.9,1.112,5.1,3.9,6.677,6.744a36.133,36.133,0,0,1,1.792,28.442,21.793,21.793,0,0,1-2.1,4.191,12.9,12.9,0,0,1-2.489,2.816,1.177,1.177,0,0,1-.494.41l-.142.115a.383.383,0,0,1-.539-.072,1.476,1.476,0,0,1-.69-.46C56.235,274.294,55.266,270.356,54.153,267.061Z" fill="#e08675"/>
    <path id="Path_52" data-name="Path 52" d="M69.245,282.557c.022-3.612.16-7.209.487-10.774a94.406,94.406,0,0,1,1.516-10.41c.613-2.977,1.528-6.046,3.687-7.821a5.079,5.079,0,0,1,6.788.156c2.312,1.939,3.448,5.19,4,8.3a35.079,35.079,0,0,1-7.355,26.674,21.121,21.121,0,0,1-3.257,3.181,12.472,12.472,0,0,1-3.176,1.8,1.138,1.138,0,0,1-.583.219l-.167.061a.369.369,0,0,1-.471-.237,1.429,1.429,0,0,1-.488-.641C68.867,289.855,69.225,285.934,69.245,282.557Z" fill="#e08675"/>
    <path id="Path_53" data-name="Path 53" d="M82.809,300.79c.394-3.591.9-7.154,1.593-10.667a94.565,94.565,0,0,1,2.579-10.2c.916-2.9,2.143-5.857,4.473-7.4a5.078,5.078,0,0,1,6.736.854c2.1,2.167,2.9,5.517,3.119,8.671a35.077,35.077,0,0,1-10.062,25.775,21.13,21.13,0,0,1-3.567,2.829,12.526,12.526,0,0,1-3.344,1.461,1.135,1.135,0,0,1-.6.158c-.058.014-.114.03-.173.043a.371.371,0,0,1-.445-.284,1.441,1.441,0,0,1-.42-.688C81.682,308.011,82.441,304.148,82.809,300.79Z" fill="#e08675"/>
    <path id="Path_54" data-name="Path 54" d="M95.8,318.692c.6-3.525,1.315-7.018,2.214-10.451a91.377,91.377,0,0,1,3.19-9.938c1.092-2.814,2.5-5.673,4.957-7.076a5.261,5.261,0,0,1,6.8,1.192c2.012,2.248,2.634,5.6,2.685,8.724a32.033,32.033,0,0,1-5.33,17.512,32.91,32.91,0,0,1-6.331,7.421,21.585,21.585,0,0,1-3.782,2.609,12.966,12.966,0,0,1-3.479,1.269,1.182,1.182,0,0,1-.621.125l-.178.034a.376.376,0,0,1-.436-.3,1.407,1.407,0,0,1-.388-.7C94.252,325.765,95.238,321.989,95.8,318.692Z" fill="#e08675"/>
    <path id="Path_55" data-name="Path 55" d="M85.7,325.878c-3.554-.4-7.109-.675-10.656-.759a91.6,91.6,0,0,0-10.432.321c-3.007.273-6.144.839-8.17,2.81a5.261,5.261,0,0,0-.732,6.86c1.6,2.555,4.653,4.078,7.643,4.991a32.044,32.044,0,0,0,18.3-.285,32.91,32.91,0,0,0,8.882-4.035,21.6,21.6,0,0,0,3.552-2.914,12.955,12.955,0,0,0,2.181-2.993,1.194,1.194,0,0,0,.292-.563c.027-.054.055-.107.081-.162a.376.376,0,0,0-.171-.5,1.4,1.4,0,0,0-.566-.566C92.922,326.344,89.021,326.249,85.7,325.878Z" fill="#e08675"/>
    <path id="Path_56" data-name="Path 56" d="M73.248,307.737c-3.6-.431-7.195-.739-10.791-.846a90.815,90.815,0,0,0-10.589.275c-3.056.266-6.252.837-8.353,2.871a5.581,5.581,0,0,0-.9,7.115c1.567,2.66,4.623,4.258,7.634,5.221a31.813,31.813,0,0,0,18.572-.2,33.651,33.651,0,0,0,9.1-4.138,22.589,22.589,0,0,0,3.672-3,13.792,13.792,0,0,0,2.283-3.094,1.269,1.269,0,0,0,.309-.582c.029-.056.058-.11.087-.167a.388.388,0,0,0-.162-.522,1.4,1.4,0,0,0-.561-.591C80.565,308.26,76.61,308.14,73.248,307.737Z" fill="#e08675"/>
    <path id="Path_57" data-name="Path 57" d="M15.264,274.279A7.912,7.912,0,0,1,19.326,267c5.058-3.182,12.03-1.809,17.511-.6A56.422,56.422,0,0,1,54.2,273.37c1.3.8,2.59,1.557,3.94,2.258.409.212.857-.076,1.208.364,2.42,3.053-9.639,6.517-11.727,7.109-6.089,1.724-12.794,2.62-19,1.273C23.282,283.216,15.818,280.742,15.264,274.279Z" fill="#e08675"/>
    <path id="Path_58" data-name="Path 58" d="M29.774,299.123A7.724,7.724,0,0,1,32.15,291.4c4.136-4.071,10.988-4.25,16.4-4.275a54.025,54.025,0,0,1,17.772,2.906c1.386.477,2.754.921,4.169,1.3.428.113.793-.253,1.212.088,2.894,2.367-7.79,8.184-9.643,9.184-5.4,2.914-11.546,5.177-17.673,5.22C39.125,305.854,31.59,305.1,29.774,299.123Z" fill="#e08675"/>
    <path id="Path_59" data-name="Path 59" d="M72.2,179.161c2.569,2.484,4.372,5.762,6.207,8.805q2.838,4.7,5.426,9.553c3.458,6.463,6.578,13.1,9.443,19.848A404.679,404.679,0,0,1,108,258.913c2.383,7.91,4.613,15.866,6.791,23.835a1.234,1.234,0,0,1-2.392.6c-7.62-28-15.954-56-29.181-81.947q-2.8-5.481-5.889-10.8c-2.049-3.513-4.6-6.909-6.129-10.682a.636.636,0,0,1,1-.758Z" fill="#dfa331"/>
    <path id="Path_60" data-name="Path 60" d="M63.244,169.873c2.029-1.643,5.379-.164,7.4.919,4.773,2.556,8.193,7.3,10.708,12.15A64.576,64.576,0,0,1,85.837,194.1a35.4,35.4,0,0,1,1.876,11.874.555.555,0,0,1-.836.489,1.118,1.118,0,0,1-1.075-.075,57.488,57.488,0,0,1-14.014-11.834,59.932,59.932,0,0,1-5.517-7.565,33.547,33.547,0,0,1-4.21-8.939C61.4,175.522,61.026,171.669,63.244,169.873Z" fill="#dfa331"/>
    <path id="Path_61" data-name="Path 61" d="M90.762,208.124c-.132-3.4-.154-6.8,0-10.168a89.155,89.155,0,0,1,.987-9.869c.451-2.83,1.184-5.759,3.142-7.522a4.788,4.788,0,0,1,6.4-.141c2.259,1.728,3.467,4.742,4.114,7.652a33.074,33.074,0,0,1-5.8,25.434,19.981,19.981,0,0,1-2.933,3.134,11.766,11.766,0,0,1-2.915,1.827,1.089,1.089,0,0,1-.54.232l-.155.064a.35.35,0,0,1-.454-.2,1.348,1.348,0,0,1-.487-.583C90.715,215.013,90.885,211.3,90.762,208.124Z" fill="#dfa331"/>
    <path id="Path_62" data-name="Path 62" d="M100,225.64c.955-3.165,2.009-6.288,3.22-9.333a86.371,86.371,0,0,1,4.029-8.746c1.31-2.455,2.909-4.912,5.264-5.91a4.649,4.649,0,0,1,5.919,1.9c1.527,2.3,1.682,5.45,1.356,8.325a32.11,32.11,0,0,1-13.371,21.512,19.33,19.33,0,0,1-3.684,1.949,11.425,11.425,0,0,1-3.254.754,1.047,1.047,0,0,1-.569.042l-.162.01a.339.339,0,0,1-.352-.33,1.307,1.307,0,0,1-.262-.689C97.773,231.95,99.1,228.6,100,225.64Z" fill="#dfa331"/>
    <path id="Path_63" data-name="Path 63" d="M107.178,245.163c1.276-3.05,2.646-6.047,4.164-8.952a86.46,86.46,0,0,1,4.908-8.285c1.555-2.307,3.4-4.587,5.845-5.337a4.648,4.648,0,0,1,5.692,2.495c1.282,2.446,1.112,5.6.491,8.421a32.111,32.111,0,0,1-15.514,20.021,19.321,19.321,0,0,1-3.865,1.559,11.452,11.452,0,0,1-3.315.416,1.039,1.039,0,0,1-.57-.017l-.163-.007a.34.34,0,0,1-.317-.365,1.308,1.308,0,0,1-.19-.712C104.317,251.21,105.985,248.015,107.178,245.163Z" fill="#dfa331"/>
    <path id="Path_64" data-name="Path 64" d="M113.944,264.247c1.441-2.94,2.974-5.821,4.653-8.6a84.026,84.026,0,0,1,5.375-7.9c1.689-2.188,3.669-4.332,6.187-4.927a4.815,4.815,0,0,1,5.657,2.807c1.184,2.495.861,5.6.1,8.355a29.331,29.331,0,0,1-9.217,13.993,30.126,30.126,0,0,1-7.483,4.874,19.751,19.751,0,0,1-4,1.311,11.921,11.921,0,0,1-3.383.213,1.09,1.09,0,0,1-.579-.051c-.055-.006-.108-.01-.164-.017a.343.343,0,0,1-.3-.379,1.275,1.275,0,0,1-.16-.716C110.751,270.054,112.6,266.995,113.944,264.247Z" fill="#dfa331"/>
    <path id="Path_65" data-name="Path 65" d="M103.212,267.937c-3.017-1.27-6.066-2.435-9.159-3.428a83.694,83.694,0,0,0-9.242-2.422c-2.71-.54-5.611-.856-7.9.349a4.817,4.817,0,0,0-2.421,5.833c.747,2.659,3.028,4.786,5.416,6.362a29.321,29.321,0,0,0,16.143,4.493,30.129,30.129,0,0,0,8.843-1.24,19.748,19.748,0,0,0,3.874-1.638,11.9,11.9,0,0,0,2.691-2.062,1.089,1.089,0,0,0,.4-.418c.038-.041.076-.079.113-.121a.343.343,0,0,0-.02-.486,1.282,1.282,0,0,0-.35-.644C109.434,270.218,106.033,269.124,103.212,267.937Z" fill="#dfa331"/>
    <path id="Path_66" data-name="Path 66" d="M96.984,248.784c-3.045-1.311-6.125-2.513-9.254-3.54a83.19,83.19,0,0,0-9.368-2.5c-2.752-.558-5.705-.886-8.078.355a5.109,5.109,0,0,0-2.638,6.012c.687,2.742,2.955,4.936,5.349,6.562a29.129,29.129,0,0,0,16.355,4.642,30.822,30.822,0,0,0,9.065-1.273,20.66,20.66,0,0,0,4-1.686,12.646,12.646,0,0,0,2.806-2.124,1.165,1.165,0,0,0,.423-.431l.119-.124a.356.356,0,0,0-.007-.5,1.281,1.281,0,0,0-.339-.664C103.272,251.14,99.831,250.009,96.984,248.784Z" fill="#dfa331"/>
    <path id="Path_67" data-name="Path 67" d="M54.749,204.381a7.243,7.243,0,0,1,5.453-5.34c5.266-1.483,11.031,1.53,15.53,4.007a51.664,51.664,0,0,1,13.433,10.624c.935,1.037,1.87,2.038,2.874,3,.3.292.772.155.966.633,1.334,3.308-10.151,3.224-12.138,3.2-5.792-.064-11.911-1.016-17.013-3.808C59.473,214.306,53.561,210.2,54.749,204.381Z" fill="#dfa331"/>
    <path id="Path_68" data-name="Path 68" d="M61.049,229.954a7.07,7.07,0,0,1,4.088-6.166c4.686-2.5,10.748-.884,15.5.5a49.43,49.43,0,0,1,14.85,7.158c1.093.778,2.179,1.522,3.324,2.218.347.211.762-.017,1.042.391,1.928,2.828-8.961,5.166-10.846,5.564-5.5,1.159-11.479,1.553-16.868,0C67.516,238.287,61.1,235.672,61.049,229.954Z" fill="#dfa331"/>
    <path id="Path_69" data-name="Path 69" d="M370.26,336.005a14.054,14.054,0,0,1-4.56,3.882,68.342,68.342,0,0,1-21.431,8.212c-.647.154-1.309.293-1.972.4-2.311.446-4.653.785-6.995,1.032-.57.077-1.156.123-1.726.169-1.325.123-2.635.231-3.959.293-.524.031-1.033.047-1.541.062-2.465.093-4.93.108-7.38.046-.432,0-.848-.015-1.263-.03a1.98,1.98,0,0,1-.308-.016c-1.279-.031-2.573-.093-3.9-.185-.6-.015-1.2-.061-1.818-.107-1.911-.138-3.852-.308-5.808-.539-1.448-.169-2.912-.385-4.36-.631-1.233-.185-2.465-.417-3.682-.694-10.075-2.111-19.658-6.193-26.021-14.082a9.99,9.99,0,0,1-2.342-5.793,2.367,2.367,0,0,1,.539-1.54c.554-.663,1.6-.986,3.312-.74,7.719,1.14,14.975,5.022,21.954,8.3a.891.891,0,0,0,1.017-1.432c-6.871-6.933-12.833-14.636-14.651-24.219a6.162,6.162,0,0,1-.108-2.188,2.6,2.6,0,0,1,.8-1.525,3.461,3.461,0,0,0,.277-.216,3.329,3.329,0,0,1,2.311-.6,7.917,7.917,0,0,1,4.391,2.326c5.793,5.039,10.522,12,15.021,18.565a1.032,1.032,0,0,0,1.864-.8,186.579,186.579,0,0,1-3.636-21.507c-.37-3.821-.385-8.057,2.018-11.046a2.915,2.915,0,0,1,.354-.385,1.489,1.489,0,0,1,.74-.416,1.323,1.323,0,0,1,.77.108,4,4,0,0,1,.863.57c3.4,2.927,5.5,7.364,6.809,11.662,1.834,6.04,4.345,13.034,5.716,19.612a.39.39,0,0,0,.77-.077c.216-10.276,2.049-20.968,7.395-29.534a4.083,4.083,0,0,1,3.22-1.957,2.887,2.887,0,0,1,.74.046,2.812,2.812,0,0,1,1.448.678c1.449,1.2,1.91,3.744,1.926,5.824a170.426,170.426,0,0,1-1.957,26.7.768.768,0,0,0,1.433.493c4.114-7.718,9.1-16.439,16.069-20.49,1.957-1.14,4.375-2.08,6.393-.447a3.8,3.8,0,0,1,.647.678,4.3,4.3,0,0,1,.786,1.572.118.118,0,0,1,.031.062c.647,2.373-.185,4.668-1.11,6.825a72.266,72.266,0,0,1-13.8,21,.93.93,0,0,0,1.078,1.48c4.006-1.926,7.888-3.791,12.048-5.808a17.5,17.5,0,0,1,6.455-2.158,6.074,6.074,0,0,1,5.654,2.589,2.379,2.379,0,0,1,.154.262,4.15,4.15,0,0,1,.37,1.125A6.189,6.189,0,0,1,370.26,336.005Z" fill="#ecbf4c"/>
    <path id="Path_70" data-name="Path 70" d="M320.7,350.1c-.432,0-.848-.015-1.263-.03a1.987,1.987,0,0,1-.308-.016q-5.454-29.673-12.464-59.037a1.489,1.489,0,0,1,.74-.416,1.323,1.323,0,0,1,.77.108Q315.243,320.244,320.7,350.1Z" fill="#e58f31"/>
    <path id="Path_71" data-name="Path 71" d="M335.132,291.712a224.264,224.264,0,0,0-4.3,33.2q-.6,12.548-1.217,25.081c-.524.031-1.033.047-1.541.062q.624-13.311,1.294-26.607a219.7,219.7,0,0,1,4.314-32.415,2.819,2.819,0,0,1,1.45.679Z" fill="#e58f31"/>
    <path id="Path_72" data-name="Path 72" d="M360.43,306.04c-5.439,7.857-10.985,15.668-15.946,23.833a112.2,112.2,0,0,0-9.182,19.659c-.57.077-1.156.123-1.726.169a114.231,114.231,0,0,1,8.843-19.366c5.269-8.9,11.339-17.348,17.224-25.867a4.3,4.3,0,0,1,.787,1.572Z" fill="#e58f31"/>
    <path id="Path_73" data-name="Path 73" d="M315.228,349.871c-.6-.015-1.2-.061-1.818-.107-8.566-15.437-19.936-29.134-30.151-43.554a2.6,2.6,0,0,1,.8-1.525C294.613,319.644,306.461,333.787,315.228,349.871Z" fill="#e58f31"/>
    <path id="Path_74" data-name="Path 74" d="M303.241,348.593c-1.233-.185-2.465-.417-3.682-.694-9.521-6.517-19.288-12.68-28.363-19.874a2.367,2.367,0,0,1,.539-1.54C281.78,334.526,292.7,341.259,303.241,348.593Z" fill="#e58f31"/>
    <path id="Path_75" data-name="Path 75" d="M371.307,331.414c-2.28,1.017-4.637,1.942-6.732,3.051-3.867,2.034-7.626,4.268-11.262,6.671a51.642,51.642,0,0,0-9.044,6.964c-.647.154-1.309.293-1.972.4a39.77,39.77,0,0,1,7.934-7.149,132.791,132.791,0,0,1,12.341-7.565c2.557-1.387,5.469-2.48,8.212-3.759a2.381,2.381,0,0,1,.154.262A4.212,4.212,0,0,1,371.307,331.414Z" fill="#e58f31"/>
    <path id="Path_93" data-name="Path 93" d="M185.958,233.371a2.38,2.38,0,0,1-1.91,2.332l-2.539.5a2.382,2.382,0,0,1-2.785-1.867,2.357,2.357,0,0,1-.043-.457,2.3,2.3,0,0,1,.263-1.078,2.356,2.356,0,0,1,1.647-1.255l2.539-.5a2.379,2.379,0,0,1,2.514,1.151,2.257,2.257,0,0,1,.272.716,2.446,2.446,0,0,1,.042.458Z" fill="#dfa331"/>
    <path id="Path_94" data-name="Path 94" d="M185.643,232.2A2.365,2.365,0,0,1,184,233.45l-2.539.5a1.448,1.448,0,1,1-.867-2.4l2.539-.5A2.379,2.379,0,0,1,185.643,232.2Z" fill="#ecbf4c" opacity="0.41"/>
    <path id="Path_98" data-name="Path 98" d="M144.061,262.679a2.051,2.051,0,0,1-1.78,1.02h-63.6a2.053,2.053,0,0,1-2.05-2.05v-44.61a2.055,2.055,0,0,1,2.05-2.06h3.94a23.538,23.538,0,0,0,.85,2.67,53.037,53.037,0,0,0,11.85,17.07c6.62,6.56,14.54,11.67,22.66,16.24a135.867,135.867,0,0,0,26.08,11.72Z" fill="#fff" opacity="0.06"/>
    <path id="Path_100" data-name="Path 100" d="M116.071,254.312a5.587,5.587,0,1,1-5.587-5.586,5.587,5.587,0,0,1,5.587,5.586Z" fill="#5f5ea5"/>
    <path id="Path_103" data-name="Path 103" d="M210.841,330.34l-1.049,10.579H90.345L89.3,330.34Z" fill="#5f5ea5"/>
    <path id="Path_104" data-name="Path 104" d="M212.033,318.318l-.529,5.29H88.633l-.529-5.29Z" fill="#fff"/>
    <path id="Path_105" data-name="Path 105" d="M209.061,348.279l-.25,2.49H91.331l-.99-9.85-1.04-10.58-.67-6.73-.53-5.29-3.08-31.1-.32-3.16-.51-5.16h18.37c.17.12.35.25.52.39,8.41,6.7,15.26,16.25,23.62,23.33a236.1,236.1,0,0,0,58.23,36.21q8.745,3.81,17.78,6.89C204.191,346.229,206.521,347.259,209.061,348.279Z" fill="#5f5ea5" opacity="0.11"/>
    <ellipse id="Ellipse_3" data-name="Ellipse 3" cx="26.954" cy="37.439" rx="26.954" ry="37.439" transform="translate(98.137 168.053)" fill="#192534"/>
    <rect id="Rectangle_1" data-name="Rectangle 1" width="23.961" height="23.961" transform="translate(122.098 266.892)" fill="#fff4eb"/>
    <path id="Path_303" data-name="Path 303" d="M415.487,582.163l7.87,11.067a14.337,14.337,0,0,1,5.686-11.463,70.068,70.068,0,0,0-11.141-8.934.894.894,0,0,0-.645-.215.935.935,0,0,0-.481.356,15.223,15.223,0,0,0-3.163,5C413.134,579.623,414.526,580.851,415.487,582.163Z" transform="translate(-311.693 -199.821)" fill="#fbbebe"/>
    <path id="Path_304" data-name="Path 304" d="M436.915,586.82a6.985,6.985,0,0,1,3.4,1.171,17.408,17.408,0,0,1,3.91,2.563,5.93,5.93,0,0,1,2,4.1,10.351,10.351,0,0,1-.973,3.632,31.4,31.4,0,0,0-1.46,17.2c.368,1.878.911,3.847.328,5.658a9.231,9.231,0,0,1-3.236,4.012c-2.139,1.771-4.492,3.5-7.248,3.876s-5.941-1.132-6.552-3.813c-.362-1.6.209-3.231.605-4.815a46.552,46.552,0,0,0,.894-11.638,16.062,16.062,0,0,0-.294-3.536,24.844,24.844,0,0,0-.769-2.393,9.948,9.948,0,0,1-.209-6.648,13.241,13.241,0,0,1,1.839-3.021C431.071,590.594,433.147,586.8,436.915,586.82Z" transform="translate(-317.471 -205.988)" fill="#f2f2f2"/>
    <path id="Path_305" data-name="Path 305" d="M431.83,287.394a6.045,6.045,0,0,1-3.151,6.727l-3.355,2.427a.737.737,0,0,0-.373.475.713.713,0,0,0,.362.566,11.129,11.129,0,0,0,4.656,2.122,22.065,22.065,0,0,0,3.615.306c6.292.187,12.691.328,18.762-1.324a9.619,9.619,0,0,0,3.1-1.318,3.961,3.961,0,0,0,1.743-2.778,8.6,8.6,0,0,1-4.2-1.873c-1.279-.877-2.586-1.833-2.993-3.293-.255-.911-.107-1.9-.317-2.829a5.684,5.684,0,0,0-2.953-3.395c-3.474-1.969-7.576-2.088-11.361-3.118-1.358-.368-3.785-2-3.876.2C431.394,282.63,431.717,285.063,431.83,287.394Z" transform="translate(-316.657 -72.402)" fill="#fbbebe"/>
    <path id="Path_306" data-name="Path 306" d="M431.83,287.394a6.045,6.045,0,0,1-3.151,6.727l-3.355,2.427a.737.737,0,0,0-.373.475.713.713,0,0,0,.362.566,11.129,11.129,0,0,0,4.656,2.122,22.065,22.065,0,0,0,3.615.306c6.292.187,12.691.328,18.762-1.324a9.619,9.619,0,0,0,3.1-1.318,3.961,3.961,0,0,0,1.743-2.778,8.6,8.6,0,0,1-4.2-1.873c-1.279-.877-2.586-1.833-2.993-3.293-.255-.911-.107-1.9-.317-2.829a5.684,5.684,0,0,0-2.953-3.395c-3.474-1.969-7.576-2.088-11.361-3.118-1.358-.368-3.785-2-3.876.2C431.394,282.63,431.717,285.063,431.83,287.394Z" transform="translate(-316.657 -72.402)" opacity="0.1"/>
    <path id="Path_307" data-name="Path 307" d="M391.607,392.288c-4.888-1.2-10.032.566-14.462,2.925s-8.527,5.449-13.234,7.231c-3.774,1.431-7.978,2.065-11.152,4.56-2.829,2.263-4.464,5.7-5.516,9.166a14.575,14.575,0,0,0-.781,6.054,16.409,16.409,0,0,0,1.488,4.526,200.206,200.206,0,0,0,11.559,20.934c7.412,12.227,14.892,24.544,24.5,35.142,3.067-2.1,2.767-7.174,5.8-9.313a16.43,16.43,0,0,0,2.337-1.522c1.437-1.488.877-3.921.2-5.873a293.929,293.929,0,0,0-14.943-35.464c8.266.057,15.2-6.4,23.339-7.853a42.946,42.946,0,0,1,6.823-.453,231.485,231.485,0,0,0,24.08-1.7c2.9-.362,5.969-.854,8.147-2.8,2.263-2.026,3.067-5.183,3.751-8.142,1.437-6.162,5.041-11.571,7.259-17.494.566-1.528,1.132-3.061,1.828-4.526.611-1.256,1.335-2.456,1.98-3.7a53.3,53.3,0,0,0,4.181-12.64c1.188-5.2,2.263-10.524,3.361-15.752.736-3.6,2.167-7.5.458-10.75a9.711,9.711,0,0,0-4.685-3.961,11.506,11.506,0,0,0-6.467-1.177c-4.323.685-7.237,4.645-9.664,8.278l-3.791,5.709a40.329,40.329,0,0,0-2.5,4.091c-1.426,2.8-2.2,5.862-3.293,8.8-2.948,7.887-8.487,15.011-16.012,18.767-2,1-4.119,1.754-6.133,2.721-1.579.758-3.1,1.646-4.69,2.371C401.061,392.452,396.252,393.425,391.607,392.288Z" transform="translate(-282.556 -98.651)" fill="#01e7c0"/>
    <circle id="Ellipse_4" data-name="Ellipse 4" cx="14.977" cy="14.977" r="14.977" transform="translate(113.113 186.023)" fill="#fbbebe"/>
    <path id="Path_308" data-name="Path 308" d="M436.551,299.07a15.479,15.479,0,0,1-2.5,4.838c-2.139,2.467-5.6,3.344-8.86,3.474a26.19,26.19,0,0,1-10.637-1.8c-1.448-.566-2.925-1.29-4.47-1.132-2.235.2-3.893,2.076-5.862,3.157a29.411,29.411,0,0,1-3.1,1.335,17.234,17.234,0,0,0-9.93,12.527c-1.132,6.382,4.006,12.447,7.118,18.139,1.364,2.5,2.953,4.922,3.712,7.661,1.273,4.606.045,9.511-1.567,14.009s-3.627,8.945-3.961,13.709c-.1,1.4.385,3.282,1.788,3.265a3.083,3.083,0,0,0,1.431-.566,12.731,12.731,0,0,1,8.272-1.522c1.986.322,3.876,1.132,5.862,1.409,3.9.566,7.8-.8,11.491-2.161,3.525-1.3,7.191-2.688,9.7-5.483,1.884-2.093,2.965-4.826,4.9-6.874,2.546-2.688,6.388-4.006,8.515-7.033,1.25-1.782,1.76-3.961,2.484-6.009s1.811-4.142,3.723-5.177c-1.024-1.788-2.167-3.706-2.043-5.765.108-1.794,1.1-3.395,1.839-5.036.481-1.081.86-2.207,1.239-3.327l1.222-3.638c.328-.99.662-1.975.911-2.987.424-1.7.6-3.508,1.1-5.211,1.267-4.4,4.492-7.921,7.474-11.372a47.989,47.989,0,0,0-8.04-2.32,12.092,12.092,0,0,1-2.693-.7c-.99-.436-1.828-1.132-2.784-1.652a15.518,15.518,0,0,0-4.871-1.239,69.031,69.031,0,0,1-11.469-2.512Z" transform="translate(-301.932 -81.046)" fill="#fff4eb"/>
    <path id="Path_309" data-name="Path 309" d="M382.1,399.216a14.6,14.6,0,0,0,.13,3.961,15.5,15.5,0,0,0,1.624,3.847c3.112,5.947,5.658,12.17,8.221,18.383a24.722,24.722,0,0,1,1.646,4.968c.238,1.29.266,2.614.436,3.915A12.448,12.448,0,0,0,395.17,438c.6,1.279,3.847,8.108,5.092,8.776,2.676,1.454,6.269.113,7.972-2.416s-.566-11.52-1.347-14.456A36.3,36.3,0,0,0,403,421.667a151.318,151.318,0,0,1-7.089-14.3c-1.8-4.176-3.44-8.691-2.682-13.177.424-2.523,1.59-4.86,2.467-7.265s1.471-5.064.724-7.519a3.554,3.554,0,0,0-.566-1.194,3.8,3.8,0,0,0-1.584-1.024c-2.648-1.069-8.063-1.958-9.205,1.6-.47,1.477-.566,3.089-.962,4.6a55.23,55.23,0,0,0-1.324,7.3C382.428,393.513,382.264,396.365,382.1,399.216Z" transform="translate(-298.018 -114.553)" fill="#fbbebe"/>
    <path id="Path_310" data-name="Path 310" d="M471.683,435.494q-5.007,5.907-9.743,12.046l8.17,6.037a17.228,17.228,0,0,1,1.188-3.112,17.435,17.435,0,0,1,1.941-2.744l8.278-10.258a14.66,14.66,0,0,0-6.422-2.173C474,435.448,472.775,435.335,471.683,435.494Z" transform="translate(-332.719 -140.193)" fill="#fbbebe"/>
    <path id="Path_311" data-name="Path 311" d="M531.815,319.763c2.161.492,4.323.984,6.456,1.584,4.43,1.25,8.911,3.067,11.978,6.5.679.758,1.3,1.912.7,2.738a3.835,3.835,0,0,1-.713.634,8.356,8.356,0,0,0-1.811,2.665,20.872,20.872,0,0,1-3.785,5.013,16.5,16.5,0,0,0-4.181-3.3l-3.4-2.122a13.068,13.068,0,0,0-4.809-2.178c-2.014-.311-4.045.323-6.082.475a12.889,12.889,0,0,1-7.418-1.7,1.777,1.777,0,0,1-.7-.605,1.754,1.754,0,0,1-.187-.656,8.906,8.906,0,0,1,2.031-6.5c1.047-1.33,3.4-3.819,5.2-4.051a10.513,10.513,0,0,1,3.027.668Z" transform="translate(-356.985 -89.376)" fill="#fbbebe"/>
    <path id="Path_312" data-name="Path 312" d="M511.162,345.63a14.473,14.473,0,0,0-1.777.826c-4.436,2.314-9.013,4.747-12.063,8.713a34.637,34.637,0,0,0-3.644,6.512L486.289,377.4l-1.55,3.3-2.376,4.99-6.043,12.855a10.564,10.564,0,0,1,6.427.611,5.657,5.657,0,0,1,3.327,5.211c1.754-.153,2.688-2.06,3.921-3.316a24.546,24.546,0,0,1,3.5-2.529,27.643,27.643,0,0,0,4.147-4.023,121.653,121.653,0,0,1,12.544-12.085,28.226,28.226,0,0,0,2.49-2.229,20.547,20.547,0,0,0,3.791-6.377,55.526,55.526,0,0,0,3.723-13.862c.385-2.9.521-5.952-.662-8.623A9.619,9.619,0,0,0,508.915,346" transform="translate(-338.962 -101.262)" fill="#01e7c0"/>
    <path id="Path_313" data-name="Path 313" d="M510.162,346.63a14.47,14.47,0,0,0-1.777.826c-4.436,2.314-9.013,4.747-12.063,8.713a34.637,34.637,0,0,0-3.644,6.512L485.289,378.4l-1.55,3.3-2.376,4.99-6.043,12.855a10.564,10.564,0,0,1,6.427.611,5.657,5.657,0,0,1,3.327,5.211c1.754-.153,2.688-2.06,3.921-3.316a24.548,24.548,0,0,1,3.5-2.529,27.636,27.636,0,0,0,4.147-4.023,121.656,121.656,0,0,1,12.544-12.085,28.207,28.207,0,0,0,2.49-2.229,20.544,20.544,0,0,0,3.791-6.377,55.52,55.52,0,0,0,3.723-13.862c.385-2.9.521-5.952-.662-8.623A9.619,9.619,0,0,0,507.915,347" transform="translate(-338.528 -101.696)" opacity="0.1"/>
    <path id="Path_314" data-name="Path 314" d="M457.408,452.806l-6.19-.679a.973.973,0,0,0-.509.04.906.906,0,0,0-.356.436q-2.987,5.624-5.579,11.452c-.962,2.156-1.861,4.741-.645,6.79.362.6.888,1.1,1.228,1.7.769,1.409.419,3.163-.136,4.673a2.45,2.45,0,0,0-.238,1.375c.153.634.792,1.013,1.381,1.3a48.537,48.537,0,0,0,15.463,4.617,1.6,1.6,0,0,0,1.205-.175,1.618,1.618,0,0,0,.464-.832,14.818,14.818,0,0,0,.5-1.844c.407-2.229-.221-4.526-.7-6.722-.769-3.6-1.132-7.389-.091-10.914a14.626,14.626,0,0,1,1.98-4.142c.984-1.437-2.382-2.789-3.276-3.8C460.4,454.356,459.937,453.083,457.408,452.806Z" transform="translate(-324.73 -147.496)" fill="#f2f2f2"/>
    <path id="Path_315" data-name="Path 315" d="M385.988,352.567l-1.878,11.5c1.579-1.494,3.927-1.765,6.1-1.811s4.7.164,6.224,1.794c.617.668,1.007,1.511,1.607,2.2a2.348,2.348,0,0,0,2.388.9,2.065,2.065,0,0,0,1.211-1.431,6.224,6.224,0,0,0,.113-1.941l-.617-12.685a28.412,28.412,0,0,0-1.437-9.053,14.145,14.145,0,0,0-2.642-4.272,4.628,4.628,0,0,0-1.132-.979,4.735,4.735,0,0,0-1.5-.447c-1.471-.232-3.864-.617-5.234.181-1.132.673-1.239,2.263-1.369,3.44C387.346,344.194,386.679,348.386,385.988,352.567Z" transform="translate(-298.924 -97.099)" fill="#fff4eb"/>
    <ellipse id="Ellipse_5" data-name="Ellipse 5" cx="20.968" cy="8.985" rx="20.968" ry="8.985" transform="translate(107.121 183.03)" fill="#192534"/>
    <circle id="Ellipse_6" data-name="Ellipse 6" cx="11.978" cy="11.978" r="11.978" transform="translate(89.152 168.053)" fill="#192534"/>
    <circle id="Ellipse_7" data-name="Ellipse 7" cx="11.978" cy="11.978" r="11.978" transform="translate(131.088 165.06)" fill="#192534"/>
    <path id="Path_316" data-name="Path 316" d="M484.3,210.733a11.984,11.984,0,0,1,2.642,15.627,12.64,12.64,0,0,0,1.018-1.1,11.983,11.983,0,1,0-18.627-15.079,12.7,12.7,0,0,0-.865,1.229,11.978,11.978,0,0,1,15.831-.673Z" transform="translate(-335.554 -40.519)" opacity="0.1"/>
    <path id="Path_317" data-name="Path 317" d="M400.269,214.3a11.984,11.984,0,0,1,15.05,4.951,12.391,12.391,0,0,0-.5-1.414,11.982,11.982,0,1,0-22.023,9.45,10.932,10.932,0,0,0,.681,1.334,11.978,11.978,0,0,1,6.79-14.32Z" transform="translate(-302.274 -42.621)" opacity="0.1"/>
    <path id="Path_318" data-name="Path 318" d="M443.848,257.935c-10.388,0-19.005-3.236-20.674-7.485a4.159,4.159,0,0,0-.294,1.5c0,4.962,9.387,8.985,20.968,8.985s20.968-4.023,20.968-8.985a4.046,4.046,0,0,0-.294-1.5C462.853,254.722,454.236,257.935,443.848,257.935Z" transform="translate(-315.759 -59.935)" opacity="0.1"/>
    <path id="Path_319" data-name="Path 319" d="M522.244,337.44a112.47,112.47,0,0,0-6.863,9.053A28.637,28.637,0,0,1,512.6,350.2c-1.465,1.545-3.3,2.7-4.8,4.221a28.133,28.133,0,0,0-4.181,6.1,44.741,44.741,0,0,0-2.263,4.43,22.4,22.4,0,0,0-.99,14.354c.458,1.7,1.375,3.61,3.106,4.011,1.358.317,2.716-.407,3.9-1.132a9.035,9.035,0,0,0,3.344-2.92,9.42,9.42,0,0,0,.973-3.57l1.488-10.892a12.575,12.575,0,0,1,.786-3.395,9.831,9.831,0,0,1,4.492-4.357c1.861-1.024,3.87-1.788,5.658-2.953,1.663-1.086,3.095-2.5,4.758-3.587,2.043-1.341,4.413-2.173,6.275-3.751s3.123-4.317,1.98-6.473a7.552,7.552,0,0,0-2.042-2.156l-3.638-2.931c-.775-.622-2.376-2.506-3.355-2.631s-2.461,1.358-3.118,1.941A27.552,27.552,0,0,0,522.244,337.44Z" transform="translate(-349.083 -95.59)" fill="#fbbebe"/>
    <path id="Path_320" data-name="Path 320" d="M509.524,310.533a11.993,11.993,0,0,1,2.263.566c.741.3,1.42.753,2.167,1.035a25.961,25.961,0,0,0,2.948.7,3.96,3.96,0,0,1,2.5,1.584,7.525,7.525,0,0,0-4.159,2.687,12.577,12.577,0,0,0-1.737,3.434,38.617,38.617,0,0,0-2.263,11.361,2.329,2.329,0,0,0,.509,1.907c-2.518-2.043-6.077-1.98-9.313-1.833a2.322,2.322,0,0,1-.905-.074,2.026,2.026,0,0,1-.8-.656,7.921,7.921,0,0,1-1.7-3.8,17.168,17.168,0,0,1,.566-6,30.931,30.931,0,0,0,.736-5.811c.028-1.992-.6-3.6-.928-5.494-.4-2.291,2.156-1.166,3.525-.9Z" transform="translate(-348.782 -85.239)" fill="#fff4eb"/>
    <path id="Path_321" data-name="Path 321" d="M801.93,89.55a19.19,19.19,0,0,1-5.41,1.5,9.57,9.57,0,0,0,4.15-5.23,18.86,18.86,0,0,1-6,2.29,9.43,9.43,0,0,0-16.32,6.45,9.658,9.658,0,0,0,.24,2.16,26.75,26.75,0,0,1-19.45-9.87,9.46,9.46,0,0,0,2.94,12.6,9.13,9.13,0,0,1-4.29-1.17v.11a9.44,9.44,0,0,0,7.57,9.26,9.7,9.7,0,0,1-2.48.33,9.511,9.511,0,0,1-1.78-.17,9.44,9.44,0,0,0,8.82,6.55,18.87,18.87,0,0,1-11.72,4,18.623,18.623,0,0,1-2.25-.14,26.36,26.36,0,0,0,14.44,4.27c17.37,0,26.87-14.39,26.87-26.88V94.4a19.208,19.208,0,0,0,4.67-4.85Z" transform="translate(-532.942 -19.463)" fill="#55acee"/>
    <path id="Path_322" data-name="Path 322" d="M585.716,158.207l-.114-.519H573.965v4.8H580.7a6.031,6.031,0,0,1-6.245,4.728,7.13,7.13,0,0,1-5.078-1.883,7.5,7.5,0,0,1-.091-10.4,6.985,6.985,0,0,1,5.1-1.891,6.436,6.436,0,0,1,4.316,1.571l3.569-3.546a12.063,12.063,0,0,0-8-3.05,11.941,11.941,0,0,0-12.2,12.109,12.2,12.2,0,0,0,3.309,8.388,12.658,12.658,0,0,0,9.15,3.691,11.255,11.255,0,0,0,8.2-3.439,12.087,12.087,0,0,0,3.149-8.388,13.728,13.728,0,0,0-.153-2.166Zm14.4-.511h-4.24v-4.232h-3.05V157.7h-4.24v3.05h4.24v4.232h3.05V160.75h4.263Z" transform="translate(-453.473 92.879)" fill="#dd4b39"/>
  </g>
</svg>
