<?xml version="1.0" encoding="utf-8"?>
<!-- Generator: Adobe Illustrator 27.5.0, SVG Export Plug-In . SVG Version: 6.00 Build 0)  -->
<svg version="1.1" xmlns="http://www.w3.org/2000/svg" xmlns:xlink="http://www.w3.org/1999/xlink" x="0px" y="0px"
	 viewBox="0 0 500 500" style="enable-background:new 0 0 500 500;" xml:space="preserve">
<g id="Background_Complete">
	<g>
		<rect y="382.398" style="fill:#EBEBEB;" width="500" height="0.25"/>
		<rect x="416.779" y="398.494" style="fill:#EBEBEB;" width="33.122" height="0.25"/>
		<rect x="322.527" y="401.208" style="fill:#EBEBEB;" width="8.693" height="0.25"/>
		<rect x="396.586" y="389.208" style="fill:#EBEBEB;" width="19.192" height="0.25"/>
		<rect x="52.459" y="390.888" style="fill:#EBEBEB;" width="43.193" height="0.25"/>
		<rect x="104.556" y="390.888" style="fill:#EBEBEB;" width="6.333" height="0.25"/>
		<rect x="131.471" y="395.111" style="fill:#EBEBEB;" width="93.676" height="0.25"/>
		<path style="fill:#EBEBEB;" d="M237.014,337.8H43.915c-3.147,0-5.708-2.561-5.708-5.708V60.66c0-3.147,2.561-5.708,5.708-5.708
			h193.099c3.146,0,5.707,2.561,5.707,5.708v271.432C242.721,335.239,240.16,337.8,237.014,337.8z M43.915,55.203
			c-3.01,0-5.458,2.448-5.458,5.458v271.432c0,3.01,2.448,5.458,5.458,5.458h193.099c3.009,0,5.457-2.448,5.457-5.458V60.66
			c0-3.009-2.448-5.458-5.457-5.458H43.915z"/>
		<path style="fill:#EBEBEB;" d="M453.31,337.8H260.212c-3.147,0-5.707-2.561-5.707-5.708V60.66c0-3.147,2.561-5.708,5.707-5.708
			H453.31c3.148,0,5.708,2.561,5.708,5.708v271.432C459.019,335.239,456.458,337.8,453.31,337.8z M260.212,55.203
			c-3.009,0-5.457,2.448-5.457,5.458v271.432c0,3.01,2.448,5.458,5.457,5.458H453.31c3.01,0,5.458-2.448,5.458-5.458V60.66
			c0-3.009-2.448-5.458-5.458-5.458H260.212z"/>
	</g>
	<g>
		<g>
			<rect x="387.647" y="264.194" style="fill:#E0E0E0;" width="27.724" height="27.724"/>
			<rect x="384.691" y="268.197" style="fill:#E0E0E0;" width="33.637" height="19.424"/>
			<rect x="394.24" y="252.039" style="fill:#E0E0E0;" width="14.539" height="8.945"/>
			<rect x="392.17" y="253.921" style="fill:#E0E0E0;" width="18.68" height="4.787"/>
			<g>
				<rect x="418.257" y="264.194" style="fill:#E0E0E0;" width="3.752" height="3.752"/>
				<rect x="422.123" y="253.921" style="fill:#E0E0E0;" width="3.025" height="10.273"/>
				<rect x="418.183" y="275.621" style="fill:#E0E0E0;" width="3.826" height="3.826"/>
				<rect x="422.009" y="271.665" style="fill:#E0E0E0;" width="3.956" height="3.956"/>
				<rect x="425.965" y="266.07" style="fill:#E0E0E0;" width="3.871" height="5.594"/>
				
					<rect x="381.01" y="264.194" transform="matrix(-1 -1.224647e-16 1.224647e-16 -1 765.7724 532.1408)" style="fill:#E0E0E0;" width="3.752" height="3.752"/>
				
					<rect x="377.871" y="253.921" transform="matrix(-1 -1.224647e-16 1.224647e-16 -1 758.7669 518.1154)" style="fill:#E0E0E0;" width="3.025" height="10.273"/>
				
					<rect x="381.01" y="275.621" transform="matrix(-1 -1.224647e-16 1.224647e-16 -1 765.8459 555.0675)" style="fill:#E0E0E0;" width="3.826" height="3.826"/>
				
					<rect x="377.054" y="271.665" transform="matrix(-1 -1.224647e-16 1.224647e-16 -1 758.0639 547.2856)" style="fill:#E0E0E0;" width="3.956" height="3.956"/>
				
					<rect x="373.183" y="266.07" transform="matrix(-1 -1.224647e-16 1.224647e-16 -1 750.2372 537.7352)" style="fill:#E0E0E0;" width="3.871" height="5.594"/>
			</g>
			<g>
				
					<rect x="383.999" y="291.76" transform="matrix(-1 -1.224647e-16 1.224647e-16 -1 771.7508 587.2726)" style="fill:#E0E0E0;" width="3.752" height="3.752"/>
				
					<rect x="380.86" y="295.513" transform="matrix(-1 -1.224647e-16 1.224647e-16 -1 764.7453 601.298)" style="fill:#E0E0E0;" width="3.025" height="10.273"/>
				
					<rect x="380.974" y="281.661" transform="matrix(-1 -1.224647e-16 1.224647e-16 -1 765.7743 567.1485)" style="fill:#E0E0E0;" width="3.826" height="3.826"/>
				
					<rect x="377.018" y="285.487" transform="matrix(-1 -1.224647e-16 1.224647e-16 -1 757.9924 574.9304)" style="fill:#E0E0E0;" width="3.956" height="3.956"/>
				
					<rect x="373.148" y="289.443" transform="matrix(-1 -1.224647e-16 1.224647e-16 -1 750.1658 584.4807)" style="fill:#E0E0E0;" width="3.871" height="5.594"/>
				<rect x="415.336" y="291.76" style="fill:#E0E0E0;" width="3.752" height="3.752"/>
				<rect x="419.203" y="295.513" style="fill:#E0E0E0;" width="3.025" height="10.273"/>
				<rect x="418.148" y="281.661" style="fill:#E0E0E0;" width="3.826" height="3.826"/>
				<rect x="421.974" y="285.487" style="fill:#E0E0E0;" width="3.956" height="3.956"/>
				<rect x="426.001" y="289.443" style="fill:#E0E0E0;" width="3.871" height="5.594"/>
			</g>
		</g>
		<g>
			<rect x="221.982" y="158.25" style="fill:#E0E0E0;" width="27.724" height="27.724"/>
			<rect x="219.025" y="162.253" style="fill:#E0E0E0;" width="33.637" height="19.424"/>
			<rect x="228.574" y="146.095" style="fill:#E0E0E0;" width="14.539" height="8.945"/>
			<rect x="226.504" y="147.977" style="fill:#E0E0E0;" width="18.68" height="4.787"/>
			<g>
				<rect x="252.591" y="158.25" style="fill:#E0E0E0;" width="3.752" height="3.752"/>
				<rect x="256.457" y="147.977" style="fill:#E0E0E0;" width="3.025" height="10.273"/>
				<rect x="252.517" y="169.677" style="fill:#E0E0E0;" width="3.826" height="3.826"/>
				<rect x="256.343" y="165.721" style="fill:#E0E0E0;" width="3.956" height="3.956"/>
				<rect x="260.299" y="160.126" style="fill:#E0E0E0;" width="3.871" height="5.594"/>
				
					<rect x="215.344" y="158.25" transform="matrix(-1 -1.224647e-16 1.224647e-16 -1 434.4406 320.2526)" style="fill:#E0E0E0;" width="3.752" height="3.752"/>
				
					<rect x="212.205" y="147.977" transform="matrix(-1 -1.224647e-16 1.224647e-16 -1 427.4351 306.2272)" style="fill:#E0E0E0;" width="3.025" height="10.273"/>
				
					<rect x="215.344" y="169.677" transform="matrix(-1 -1.224647e-16 1.224647e-16 -1 434.5141 343.1793)" style="fill:#E0E0E0;" width="3.826" height="3.826"/>
				
					<rect x="211.388" y="165.721" transform="matrix(-1 -1.224647e-16 1.224647e-16 -1 426.7321 335.3974)" style="fill:#E0E0E0;" width="3.956" height="3.956"/>
				
					<rect x="207.517" y="160.126" transform="matrix(-1 -1.224647e-16 1.224647e-16 -1 418.9054 325.847)" style="fill:#E0E0E0;" width="3.871" height="5.594"/>
			</g>
			<g>
				
					<rect x="218.333" y="185.816" transform="matrix(-1 -1.224647e-16 1.224647e-16 -1 440.419 375.3844)" style="fill:#E0E0E0;" width="3.752" height="3.752"/>
				
					<rect x="215.194" y="189.568" transform="matrix(-1 -1.224647e-16 1.224647e-16 -1 433.4135 389.4098)" style="fill:#E0E0E0;" width="3.025" height="10.273"/>
				
					<rect x="215.308" y="175.717" transform="matrix(-1 -1.224647e-16 1.224647e-16 -1 434.4425 355.2603)" style="fill:#E0E0E0;" width="3.826" height="3.826"/>
				
					<rect x="211.352" y="179.543" transform="matrix(-1 -1.224647e-16 1.224647e-16 -1 426.6606 363.0422)" style="fill:#E0E0E0;" width="3.956" height="3.956"/>
				
					<rect x="207.482" y="183.499" transform="matrix(-1 -1.224647e-16 1.224647e-16 -1 418.834 372.5926)" style="fill:#E0E0E0;" width="3.871" height="5.594"/>
				<rect x="249.67" y="185.816" style="fill:#E0E0E0;" width="3.752" height="3.752"/>
				<rect x="253.537" y="189.568" style="fill:#E0E0E0;" width="3.025" height="10.273"/>
				<rect x="252.482" y="175.717" style="fill:#E0E0E0;" width="3.826" height="3.826"/>
				<rect x="256.308" y="179.543" style="fill:#E0E0E0;" width="3.956" height="3.956"/>
				<rect x="260.335" y="183.499" style="fill:#E0E0E0;" width="3.871" height="5.594"/>
			</g>
		</g>
		<g>
			<rect x="223.203" y="76.333" style="fill:#F0F0F0;" width="17.415" height="17.415"/>
			<rect x="221.346" y="78.847" style="fill:#F0F0F0;" width="21.13" height="12.201"/>
			<rect x="227.344" y="68.697" style="fill:#F0F0F0;" width="9.133" height="5.619"/>
			<rect x="226.043" y="69.88" style="fill:#F0F0F0;" width="11.734" height="3.007"/>
			<g>
				<rect x="242.43" y="76.333" style="fill:#F0F0F0;" width="2.357" height="2.357"/>
				<rect x="244.859" y="69.88" style="fill:#F0F0F0;" width="1.9" height="6.453"/>
				<rect x="242.384" y="83.511" style="fill:#F0F0F0;" width="2.403" height="2.403"/>
				<rect x="244.787" y="81.026" style="fill:#F0F0F0;" width="2.485" height="2.485"/>
				<rect x="247.272" y="77.511" style="fill:#F0F0F0;" width="2.431" height="3.514"/>
				
					<rect x="219.033" y="76.333" transform="matrix(-1 -1.224647e-16 1.224647e-16 -1 440.4237 155.0229)" style="fill:#F0F0F0;" width="2.357" height="2.357"/>
				
					<rect x="217.061" y="69.88" transform="matrix(-1 -1.224647e-16 1.224647e-16 -1 436.0232 146.2127)" style="fill:#F0F0F0;" width="1.9" height="6.453"/>
				
					<rect x="219.033" y="83.511" transform="matrix(-1 -1.224647e-16 1.224647e-16 -1 440.4699 169.4245)" style="fill:#F0F0F0;" width="2.403" height="2.403"/>
				
					<rect x="216.548" y="81.026" transform="matrix(-1 -1.224647e-16 1.224647e-16 -1 435.5816 164.5362)" style="fill:#F0F0F0;" width="2.485" height="2.485"/>
				
					<rect x="214.117" y="77.511" transform="matrix(-1 -1.224647e-16 1.224647e-16 -1 430.6653 158.537)" style="fill:#F0F0F0;" width="2.431" height="3.514"/>
			</g>
			<g>
				
					<rect x="220.911" y="93.649" transform="matrix(-1 -1.224647e-16 1.224647e-16 -1 444.1791 189.6544)" style="fill:#F0F0F0;" width="2.357" height="2.357"/>
				
					<rect x="218.939" y="96.006" transform="matrix(-1 -1.224647e-16 1.224647e-16 -1 439.7786 198.4646)" style="fill:#F0F0F0;" width="1.9" height="6.453"/>
				
					<rect x="219.011" y="87.305" transform="matrix(-1 -1.224647e-16 1.224647e-16 -1 440.425 177.0131)" style="fill:#F0F0F0;" width="2.403" height="2.403"/>
				
					<rect x="216.526" y="89.708" transform="matrix(-1 -1.224647e-16 1.224647e-16 -1 435.5367 181.9014)" style="fill:#F0F0F0;" width="2.485" height="2.485"/>
				
					<rect x="214.094" y="92.193" transform="matrix(-1 -1.224647e-16 1.224647e-16 -1 430.6203 187.9006)" style="fill:#F0F0F0;" width="2.431" height="3.514"/>
				<rect x="240.596" y="93.649" style="fill:#F0F0F0;" width="2.357" height="2.357"/>
				<rect x="243.024" y="96.006" style="fill:#F0F0F0;" width="1.9" height="6.453"/>
				<rect x="242.362" y="87.305" style="fill:#F0F0F0;" width="2.403" height="2.403"/>
				<rect x="244.765" y="89.708" style="fill:#F0F0F0;" width="2.485" height="2.485"/>
				<rect x="247.295" y="92.193" style="fill:#F0F0F0;" width="2.431" height="3.514"/>
			</g>
		</g>
		<g>
			<rect x="68.028" y="83.972" style="fill:#F0F0F0;" width="10.806" height="10.806"/>
			<rect x="66.875" y="85.532" style="fill:#F0F0F0;" width="13.111" height="7.57"/>
			<rect x="70.597" y="79.234" style="fill:#F0F0F0;" width="5.667" height="3.486"/>
			<rect x="69.79" y="79.968" style="fill:#F0F0F0;" width="7.281" height="1.866"/>
			<g>
				<rect x="79.958" y="83.972" style="fill:#F0F0F0;" width="1.463" height="1.462"/>
				<rect x="81.465" y="79.968" style="fill:#F0F0F0;" width="1.179" height="4.004"/>
				<rect x="79.929" y="88.425" style="fill:#F0F0F0;" width="1.491" height="1.491"/>
				<rect x="81.421" y="86.883" style="fill:#F0F0F0;" width="1.542" height="1.542"/>
				<rect x="82.963" y="84.703" style="fill:#F0F0F0;" width="1.509" height="2.181"/>
				
					<rect x="65.441" y="83.972" transform="matrix(-1 -1.224647e-16 1.224647e-16 -1 132.344 169.4061)" style="fill:#F0F0F0;" width="1.463" height="1.462"/>
				
					<rect x="64.217" y="79.968" transform="matrix(-1 -1.224647e-16 1.224647e-16 -1 129.6136 163.9396)" style="fill:#F0F0F0;" width="1.179" height="4.004"/>
				
					<rect x="65.441" y="88.425" transform="matrix(-1 -1.224647e-16 1.224647e-16 -1 132.3726 178.342)" style="fill:#F0F0F0;" width="1.491" height="1.491"/>
				
					<rect x="63.899" y="86.883" transform="matrix(-1 -1.224647e-16 1.224647e-16 -1 129.3395 175.3089)" style="fill:#F0F0F0;" width="1.542" height="1.542"/>
				
					<rect x="62.39" y="84.703" transform="matrix(-1 -1.224647e-16 1.224647e-16 -1 126.289 171.5865)" style="fill:#F0F0F0;" width="1.509" height="2.181"/>
			</g>
			<g>
				
					<rect x="66.606" y="94.716" transform="matrix(-1 -1.224647e-16 1.224647e-16 -1 134.6742 190.8943)" style="fill:#F0F0F0;" width="1.463" height="1.462"/>
				
					<rect x="65.382" y="96.178" transform="matrix(-1 -1.224647e-16 1.224647e-16 -1 131.9438 196.3608)" style="fill:#F0F0F0;" width="1.179" height="4.004"/>
				
					<rect x="65.427" y="90.78" transform="matrix(-1 -1.224647e-16 1.224647e-16 -1 132.3448 183.0506)" style="fill:#F0F0F0;" width="1.491" height="1.491"/>
				
					<rect x="63.885" y="92.271" transform="matrix(-1 -1.224647e-16 1.224647e-16 -1 129.3117 186.0837)" style="fill:#F0F0F0;" width="1.542" height="1.542"/>
				
					<rect x="62.376" y="93.813" transform="matrix(-1 -1.224647e-16 1.224647e-16 -1 126.2612 189.8061)" style="fill:#F0F0F0;" width="1.509" height="2.181"/>
				<rect x="78.82" y="94.716" style="fill:#F0F0F0;" width="1.463" height="1.462"/>
				<rect x="80.327" y="96.178" style="fill:#F0F0F0;" width="1.179" height="4.004"/>
				<rect x="79.916" y="90.78" style="fill:#F0F0F0;" width="1.491" height="1.491"/>
				<rect x="81.407" y="92.271" style="fill:#F0F0F0;" width="1.542" height="1.542"/>
				<rect x="82.977" y="93.813" style="fill:#F0F0F0;" width="1.509" height="2.181"/>
			</g>
		</g>
		<g>
			<rect x="48.56" y="186.211" style="fill:#E0E0E0;" width="37.24" height="26.479"/>
			<rect x="51.9" y="184.163" style="fill:#E0E0E0;" width="30.56" height="30.56"/>
			<g>
				<rect x="52.375" y="175.308" style="fill:#E0E0E0;" width="4.07" height="7.272"/>
				<rect x="77.915" y="175.308" style="fill:#E0E0E0;" width="4.07" height="7.272"/>
				<rect x="56.444" y="171.289" style="fill:#E0E0E0;" width="21.471" height="4.2"/>
			</g>
			<rect x="62.698" y="193.376" style="fill:#FAFAFA;" width="8.965" height="6.067"/>
			<rect x="65.573" y="197.246" style="fill:#FAFAFA;" width="3.214" height="9.323"/>
		</g>
		<g>
			<rect x="312.191" y="109.762" style="fill:#E0E0E0;" width="37.24" height="26.479"/>
			<rect x="315.531" y="107.714" style="fill:#E0E0E0;" width="30.56" height="30.56"/>
			<g>
				<rect x="316.006" y="98.859" style="fill:#E0E0E0;" width="4.07" height="7.272"/>
				<rect x="341.547" y="98.859" style="fill:#E0E0E0;" width="4.07" height="7.272"/>
				<rect x="320.076" y="94.84" style="fill:#E0E0E0;" width="21.471" height="4.2"/>
			</g>
			<rect x="326.329" y="116.928" style="fill:#FAFAFA;" width="8.965" height="6.067"/>
			<rect x="329.205" y="120.798" style="fill:#FAFAFA;" width="3.214" height="9.323"/>
		</g>
		<g>
			<rect x="313.473" y="324.772" style="fill:#E0E0E0;" width="37.24" height="26.479"/>
			<rect x="316.813" y="322.724" style="fill:#E0E0E0;" width="30.56" height="30.56"/>
			<g>
				<rect x="317.288" y="313.868" style="fill:#E0E0E0;" width="4.07" height="7.272"/>
				<rect x="342.829" y="313.868" style="fill:#E0E0E0;" width="4.07" height="7.272"/>
				<rect x="321.358" y="309.85" style="fill:#E0E0E0;" width="21.471" height="4.2"/>
			</g>
			<rect x="327.611" y="331.937" style="fill:#FAFAFA;" width="8.965" height="6.067"/>
			<rect x="330.487" y="335.807" style="fill:#FAFAFA;" width="3.214" height="9.323"/>
		</g>
		<g>
			<rect x="298.91" y="235.28" style="fill:#F0F0F0;" width="20.227" height="14.382"/>
			<rect x="300.724" y="234.168" style="fill:#F0F0F0;" width="16.599" height="16.599"/>
			<g>
				<rect x="300.982" y="229.358" style="fill:#F0F0F0;" width="2.21" height="3.95"/>
				<rect x="314.854" y="229.358" style="fill:#F0F0F0;" width="2.21" height="3.95"/>
				<rect x="303.192" y="227.176" style="fill:#F0F0F0;" width="11.662" height="2.281"/>
			</g>
			<rect x="306.589" y="239.172" style="fill:#FFFFFF;" width="4.869" height="3.295"/>
			<rect x="308.15" y="241.274" style="fill:#FFFFFF;" width="1.745" height="5.064"/>
		</g>
		<g>
			<g>
				<rect x="134.063" y="82.434" style="fill:#E0E0E0;" width="31.317" height="39.308"/>
				<rect x="127.587" y="84.428" style="fill:#E0E0E0;" width="44.269" height="21.923"/>
				<rect x="130.172" y="101.728" style="fill:#E0E0E0;" width="39.098" height="13.712"/>
				<rect x="139.103" y="118.094" style="fill:#E0E0E0;" width="21.236" height="7.398"/>
				<rect x="146.905" y="123.032" style="fill:#E0E0E0;" width="5.633" height="6.011"/>
			</g>
			<g>
				<rect x="135.32" y="96.999" style="fill:#FAFAFA;" width="4.714" height="4.714"/>
				<rect x="140.034" y="101.894" style="fill:#FAFAFA;" width="4.823" height="4.823"/>
				<rect x="144.857" y="106.717" style="fill:#FAFAFA;" width="5.825" height="4.31"/>
				<rect x="150.681" y="100.614" style="fill:#FAFAFA;" width="4.352" height="6.132"/>
				<rect x="155.033" y="95.065" style="fill:#FAFAFA;" width="4.352" height="5.549"/>
				<rect x="159.385" y="90.451" style="fill:#FAFAFA;" width="4.738" height="4.738"/>
			</g>
		</g>
		<g>
			<g>
				<rect x="412.52" y="93.553" style="fill:#F0F0F0;" width="19.416" height="24.371"/>
				<rect x="408.504" y="94.79" style="fill:#F0F0F0;" width="27.447" height="13.592"/>
				<rect x="410.107" y="105.515" style="fill:#F0F0F0;" width="24.24" height="8.501"/>
				<rect x="415.644" y="115.662" style="fill:#F0F0F0;" width="13.166" height="4.587"/>
				<rect x="420.481" y="118.724" style="fill:#F0F0F0;" width="3.492" height="3.727"/>
			</g>
			<g>
				<rect x="413.299" y="102.584" style="fill:#FFFFFF;" width="2.923" height="2.923"/>
				<rect x="416.222" y="105.618" style="fill:#FFFFFF;" width="2.99" height="2.99"/>
				<rect x="419.212" y="108.608" style="fill:#FFFFFF;" width="3.611" height="2.672"/>
				<rect x="422.823" y="104.825" style="fill:#FFFFFF;" width="2.698" height="3.802"/>
				<rect x="425.521" y="101.385" style="fill:#FFFFFF;" width="2.698" height="3.44"/>
				<rect x="428.219" y="98.524" style="fill:#FFFFFF;" width="2.937" height="2.938"/>
			</g>
		</g>
		<g>
			<g>
				<rect x="250.419" y="323.804" style="fill:#F0F0F0;" width="13.666" height="17.153"/>
				<rect x="247.593" y="324.674" style="fill:#F0F0F0;" width="19.318" height="9.567"/>
				<rect x="248.721" y="332.224" style="fill:#F0F0F0;" width="17.062" height="5.984"/>
				<rect x="252.619" y="339.366" style="fill:#F0F0F0;" width="9.267" height="3.228"/>
				<rect x="256.023" y="341.521" style="fill:#F0F0F0;" width="2.458" height="2.623"/>
			</g>
			<g>
				<rect x="250.968" y="330.16" style="fill:#FFFFFF;" width="2.057" height="2.057"/>
				<rect x="253.025" y="332.296" style="fill:#FFFFFF;" width="2.105" height="2.105"/>
				<rect x="255.13" y="334.401" style="fill:#FFFFFF;" width="2.542" height="1.881"/>
				<rect x="257.671" y="331.737" style="fill:#FFFFFF;" width="1.899" height="2.676"/>
				<rect x="259.57" y="329.316" style="fill:#FFFFFF;" width="1.899" height="2.421"/>
				<rect x="261.469" y="327.302" style="fill:#FFFFFF;" width="2.068" height="2.068"/>
			</g>
		</g>
	</g>
</g>
<g id="Background_Simple" style="display:none;">
	<g style="display:inline;">
		<path style="fill:#407BFF;" d="M387.999,190.872c5.993-1.134,12.115-1.238,18.473,0.471c31.709,8.521,31.984,48.658,22.845,73.861
			c-14.808,40.836-49.26,73.49-90.022,88.501c-40.761,15.011-87.082,12.829-127.311-3.555
			c-40.229-16.383-74.327-46.423-97.947-82.877C87.703,226.63,63.727,167.657,92.251,122.1
			c21.098-33.697,65.533-51.13,103.814-39.966c7.86,2.292,15.359,5.767,22.176,10.304c26.634,17.725,37.731,48.316,54.403,74.201
			c11.382,17.672,28.121,35.465,49.472,39.918C345.581,211.451,365.848,195.063,387.999,190.872z"/>
		<path style="opacity:0.9;fill:#FFFFFF;" d="M387.999,190.872c5.993-1.134,12.115-1.238,18.473,0.471
			c31.709,8.521,31.984,48.658,22.845,73.861c-14.808,40.836-49.26,73.49-90.022,88.501c-40.761,15.011-87.082,12.829-127.311-3.555
			c-40.229-16.383-74.327-46.423-97.947-82.877C87.703,226.63,63.727,167.657,92.251,122.1
			c21.098-33.697,65.533-51.13,103.814-39.966c7.86,2.292,15.359,5.767,22.176,10.304c26.634,17.725,37.731,48.316,54.403,74.201
			c11.382,17.672,28.121,35.465,49.472,39.918C345.581,211.451,365.848,195.063,387.999,190.872z"/>
	</g>
</g>
<g id="Shadow_1_">
	<ellipse id="_x3C_Path_x3E__359_" style="fill:#F5F5F5;" cx="250" cy="416.238" rx="193.889" ry="11.323"/>
</g>
<g id="Plant">
	<g>
		<g>
			<path style="fill:none;stroke:#407BFF;stroke-miterlimit:10;" d="M395.184,348.33c0,0,6.347-5.292,11.79,0
				c5.443,5.292,6.493,38.076,6.493,38.076"/>
			<path style="fill:none;stroke:#407BFF;stroke-miterlimit:10;" d="M413.917,392.736c0,0-3.742-38.474,10.346-54.642"/>
			<path style="fill:none;stroke:#407BFF;stroke-miterlimit:10;" d="M412.577,388.682c0,0,2.882-43.799-7.684-53.517"/>
			<path style="fill:none;stroke:#407BFF;stroke-miterlimit:10;" d="M413.917,388.682c0,0,0.246-28.942,8.097-33.442
				c7.851-4.499,11.853,10.175,11.853,10.175"/>
			<path style="fill:none;stroke:#407BFF;stroke-miterlimit:10;" d="M410.816,388.682c0,0,1.281-22.219-4.803-30.16
				c-6.083-7.941-12.487,3.402-12.487,3.402"/>
			<path style="fill:none;stroke:#407BFF;stroke-miterlimit:10;" d="M412.936,391.658c0,0-3.934-51.963,2.576-60.768"/>
		</g>
		<g>
			<path style="fill:#407BFF;" d="M428.738,359.456c0,0-3.915,1.443-2.751,4.851c1.164,3.407,13.544,9.015,13.544,9.015
				s5.185-4.752,0.423-12.481C435.192,353.113,428.844,357.018,428.738,359.456z"/>
			<path style="opacity:0.5;fill:#FFFFFF;enable-background:new    ;" d="M428.738,359.456c0,0-3.915,1.443-2.751,4.851
				c1.164,3.407,13.544,9.015,13.544,9.015s5.185-4.752,0.423-12.481C435.192,353.113,428.844,357.018,428.738,359.456z"/>
		</g>
		<g>
			<path style="fill:#407BFF;" d="M411.719,352.97c0,0,4.169-0.174,4.406,3.418c0.237,3.593-9.031,13.533-9.031,13.533
				s-6.614-2.391-5.193-11.357C403.32,349.599,410.682,350.76,411.719,352.97z"/>
			<path style="opacity:0.5;fill:#FFFFFF;enable-background:new    ;" d="M411.719,352.97c0,0,4.169-0.174,4.406,3.418
				c0.237,3.593-9.031,13.533-9.031,13.533s-6.614-2.391-5.193-11.357C403.32,349.599,410.682,350.76,411.719,352.97z"/>
		</g>
		<g>
			<path style="fill:#407BFF;" d="M408.189,335.772c0,0,2.78-0.298,2.556-1.991c-0.224-1.693-10.805-6.05-17.047,0.996
				c0,0,3.997,6.866,9.776,6.956C409.251,341.822,408.189,335.772,408.189,335.772z"/>
			<path style="opacity:0.5;fill:#FFFFFF;enable-background:new    ;" d="M408.189,335.772c0,0,2.78-0.298,2.556-1.991
				c-0.224-1.693-10.805-6.05-17.047,0.996c0,0,3.997,6.866,9.776,6.956C409.251,341.822,408.189,335.772,408.189,335.772z"/>
		</g>
		<g>
			<path style="fill:#407BFF;" d="M413.368,331.66c0,0-2.517,1.217-3.222-0.338c-0.705-1.555,5.97-10.849,14.995-8.171
				c0,0,0.239,7.941-4.617,11.074C415.667,337.357,413.368,331.66,413.368,331.66z"/>
			<path style="opacity:0.5;fill:#FFFFFF;enable-background:new    ;" d="M413.368,331.66c0,0-2.517,1.217-3.222-0.338
				c-0.705-1.555,5.97-10.849,14.995-8.171c0,0,0.239,7.941-4.617,11.074C415.667,337.357,413.368,331.66,413.368,331.66z"/>
		</g>
		<g>
			<path style="fill:#407BFF;" d="M400.209,358.087c0,0,1.918-1.549-0.152-2.305c-2.07-0.756-12.228-0.541-12.334,9.521
				c0,0,11.83,1.966,13.295-1.867C402.482,359.603,400.209,358.087,400.209,358.087z"/>
			<path style="opacity:0.5;fill:#FFFFFF;enable-background:new    ;" d="M400.209,358.087c0,0,1.918-1.549-0.152-2.305
				c-2.07-0.756-12.228-0.541-12.334,9.521c0,0,11.83,1.966,13.295-1.867C402.482,359.603,400.209,358.087,400.209,358.087z"/>
		</g>
		<g>
			<path style="fill:#407BFF;" d="M424.333,335.519c0,0-1.918-1.549,0.152-2.305c2.07-0.756,12.228-0.541,12.334,9.521
				c0,0-11.83,1.966-13.295-1.867C422.06,337.036,424.333,335.519,424.333,335.519z"/>
			<path style="opacity:0.5;fill:#FFFFFF;enable-background:new    ;" d="M424.333,335.519c0,0-1.918-1.549,0.152-2.305
				c2.07-0.756,12.228-0.541,12.334,9.521c0,0-11.83,1.966-13.295-1.867C422.06,337.036,424.333,335.519,424.333,335.519z"/>
		</g>
		<g>
			<path style="fill:#407BFF;" d="M418.079,343.625c0,0-0.169-1.883,1.351-1.145c1.52,0.738,6.815,6.451,1.326,11.872
				c0,0-7.389-5.472-6.057-8.322C416.031,343.18,418.079,343.625,418.079,343.625z"/>
			<path style="opacity:0.5;fill:#FFFFFF;enable-background:new    ;" d="M418.079,343.625c0,0-0.169-1.883,1.351-1.145
				c1.52,0.738,6.815,6.451,1.326,11.872c0,0-7.389-5.472-6.057-8.322C416.031,343.18,418.079,343.625,418.079,343.625z"/>
		</g>
		<g>
			<path style="fill:#407BFF;" d="M398.494,346.308c0,0,1.147-1.503-0.533-1.689c-1.679-0.186-9.205,1.823-7.453,9.336
				c0,0,9.169-0.689,9.562-3.81C400.463,347.023,398.494,346.308,398.494,346.308z"/>
			<path style="opacity:0.5;fill:#FFFFFF;enable-background:new    ;" d="M398.494,346.308c0,0,1.147-1.503-0.533-1.689
				c-1.679-0.186-9.205,1.823-7.453,9.336c0,0,9.169-0.689,9.562-3.81C400.463,347.023,398.494,346.308,398.494,346.308z"/>
		</g>
		<polygon style="fill:#263238;" points="429.47,416.573 398.01,416.573 394.616,382.13 432.863,382.13 		"/>
		<polygon style="opacity:0.2;fill:#FFFFFF;enable-background:new    ;" points="429.47,416.573 398.01,416.573 394.616,382.13 
			432.863,382.13 		"/>
		<rect x="392.937" y="378.33" style="fill:#263238;" width="41.606" height="7.6"/>
		<rect x="392.937" y="378.33" style="opacity:0.4;fill:#FFFFFF;enable-background:new    ;" width="41.606" height="7.6"/>
	</g>
</g>
<g id="interface">
	<g>
		<g>
			<path style="fill:#407BFF;" d="M445.488,232.394H338.541c-1.265,0-2.29-1.025-2.29-2.29V142.94c0-1.265,1.025-2.29,2.29-2.29
				h106.948c1.265,0,2.29,1.025,2.29,2.29v87.164C447.778,231.369,446.753,232.394,445.488,232.394z"/>
			<path style="opacity:0.6;fill:#FFFFFF;enable-background:new    ;" d="M447.78,142.94v87.16c0,1.27-1.03,2.29-2.29,2.29H338.54
				c-1.26,0-2.29-1.02-2.29-2.29v-87.16c0-1.26,1.03-2.29,2.29-2.29h106.95C446.75,140.65,447.78,141.68,447.78,142.94z"/>
		</g>
		<rect x="338.624" y="149.977" style="fill:#263238;" width="106.78" height="79.84"/>
		<g>
			<path style="opacity:0.5;fill:#FFFFFF;" d="M347.315,159.928c0.134,0.099,0.289,0.146,0.444,0.146
				c0.23,0,0.457-0.106,0.604-0.306c0.246-0.333,0.174-0.803-0.16-1.048l-2.213-1.628l2.208-1.634
				c0.333-0.246,0.403-0.716,0.157-1.049c-0.247-0.333-0.717-0.402-1.049-0.157l-3.026,2.238c-0.192,0.142-0.305,0.366-0.304,0.604
				c0.001,0.238,0.114,0.462,0.306,0.603L347.315,159.928z"/>
			<path style="opacity:0.5;fill:#FFFFFF;" d="M357.465,157.082l-2.208,1.633c-0.333,0.246-0.403,0.716-0.157,1.049
				c0.147,0.199,0.374,0.304,0.603,0.304c0.155,0,0.311-0.048,0.445-0.147l3.026-2.238c0.191-0.142,0.305-0.366,0.304-0.604
				c-0.001-0.238-0.114-0.462-0.306-0.603l-3.032-2.23c-0.334-0.246-0.803-0.173-1.048,0.16c-0.246,0.333-0.174,0.803,0.16,1.048
				L357.465,157.082z"/>
			<path style="opacity:0.5;fill:#FFFFFF;" d="M350.688,160.029c0.082,0.029,0.167,0.043,0.25,0.043c0.309,0,0.598-0.192,0.707-0.5
				l1.581-4.471c0.138-0.391-0.066-0.819-0.457-0.957c-0.39-0.138-0.819,0.067-0.957,0.457l-1.581,4.471
				C350.092,159.463,350.297,159.891,350.688,160.029z"/>
			<path style="opacity:0.5;fill:#FFFFFF;" d="M363.196,160.324h3.956c0.552,0,1-0.448,1-1c0-0.552-0.448-1-1-1h-3.956
				c-0.552,0-1,0.448-1,1C362.196,159.876,362.644,160.324,363.196,160.324z"/>
			<path style="opacity:0.5;fill:#FFFFFF;" d="M427.255,216.889h-48.224h-6.777h-6.878c-0.552,0-1,0.448-1,1
				c0,0.552,0.448,0.999,1,0.999h6.878h6.777h48.224c0.552,0,1-0.447,1-0.999C428.255,217.337,427.807,216.889,427.255,216.889z"/>
			<path style="fill:#FFFFFF;" d="M440.844,216.889h-7.649c-0.552,0-1,0.448-1,1c0,0.552,0.448,0.999,1,0.999h7.649
				c0.552,0,1-0.447,1-0.999C441.844,217.337,441.397,216.889,440.844,216.889z"/>
			<path style="fill:#FFFFFF;" d="M384.031,212.56h24.913c0.552,0,1-0.448,1-1c0-0.552-0.448-1-1-1h-24.913c-0.552,0-1,0.448-1,1
				C383.031,212.112,383.478,212.56,384.031,212.56z"/>
			<path style="opacity:0.5;fill:#FFFFFF;" d="M427.254,212.56c0.552,0,1-0.448,1-1c0-0.552-0.448-1-1-1h-14.129
				c-0.552,0-1,0.448-1,1c0,0.552,0.448,1,1,1H427.254z"/>
			<path style="opacity:0.5;fill:#FFFFFF;" d="M440.844,210.56h-7.519c-0.552,0-1,0.448-1,1c0,0.552,0.448,1,1,1h7.519
				c0.552,0,1-0.448,1-1C441.844,211.007,441.397,210.56,440.844,210.56z"/>
			<path style="fill:#FFFFFF;" d="M427.353,204.23h-33.323c-0.552,0-1,0.448-1,1c0,0.552,0.448,1,1,1h33.323c0.552,0,1-0.448,1-1
				C428.353,204.678,427.906,204.23,427.353,204.23z"/>
			<path style="fill:#FFFFFF;" d="M440.844,204.23h-7.602c-0.552,0-1,0.448-1,1c0,0.552,0.448,1,1,1h7.602c0.552,0,1-0.448,1-1
				C441.844,204.678,441.397,204.23,440.844,204.23z"/>
			<path style="opacity:0.5;fill:#FFFFFF;" d="M409,198.9c0-0.552-0.448-1-1-1h-33.969c-0.552,0-1,0.448-1,1c0,0.552,0.448,1,1,1
				H408C408.552,199.9,409,199.453,409,198.9z"/>
			<path style="opacity:0.5;fill:#FFFFFF;" d="M414.159,197.9c-0.552,0-1,0.448-1,1c0,0.552,0.448,1,1,1h13.177c0.552,0,1-0.448,1-1
				c0-0.552-0.448-1-1-1H414.159z"/>
			<path style="fill:#FFFFFF;" d="M440.844,197.9h-7.514c-0.552,0-1,0.448-1,1c0,0.552,0.448,1,1,1h7.514c0.552,0,1-0.448,1-1
				C441.844,198.348,441.397,197.9,440.844,197.9z"/>
			<path style="fill:#FFFFFF;" d="M416.031,193.571h6.537c0.552,0,1-0.448,1-1s-0.448-1-1-1h-6.537c-0.552,0-1,0.448-1,1
				S415.478,193.571,416.031,193.571z"/>
			<path style="opacity:0.5;fill:#FFFFFF;" d="M427.222,193.571h13.622c0.552,0,1-0.448,1-1s-0.448-1-1-1h-13.622
				c-0.552,0-1,0.448-1,1S426.669,193.571,427.222,193.571z"/>
			<path style="fill:#FFFFFF;" d="M379.355,186.241c0-0.552-0.448-1-1-1h-34.324c-0.552,0-1,0.448-1,1c0,0.552,0.448,1,1,1h34.324
				C378.907,187.241,379.355,186.794,379.355,186.241z"/>
			<path style="opacity:0.5;fill:#FFFFFF;" d="M383.75,187.241h10.095c0.552,0,1-0.448,1-1c0-0.552-0.448-1-1-1H383.75
				c-0.552,0-1,0.448-1,1C382.75,186.794,383.197,187.241,383.75,187.241z"/>
			<path style="opacity:0.5;fill:#FFFFFF;" d="M344.031,180.911h12.991c0.552,0,1-0.448,1-1c0-0.552-0.448-1-1-1h-12.991
				c-0.552,0-1,0.448-1,1C343.031,180.463,343.478,180.911,344.031,180.911z"/>
			<path style="fill:#FFFFFF;" d="M404.844,179.911c0-0.552-0.448-1-1-1h-40.367c-0.552,0-1,0.448-1,1c0,0.552,0.448,1,1,1h40.367
				C404.397,180.911,404.844,180.463,404.844,179.911z"/>
			<path style="fill:#FFFFFF;" d="M344.031,174.581h23.553c0.552,0,1-0.448,1-1c0-0.552-0.448-1-1-1h-23.553c-0.552,0-1,0.448-1,1
				C343.031,174.134,343.478,174.581,344.031,174.581z"/>
			<path style="opacity:0.5;fill:#FFFFFF;" d="M372.008,173.581c0,0.552,0.448,1,1,1h5.836c0.552,0,1-0.448,1-1c0-0.552-0.448-1-1-1
				h-5.836C372.456,172.581,372.008,173.029,372.008,173.581z"/>
			<path style="opacity:0.5;fill:#FFFFFF;" d="M344.031,168.252h27.813c0.552,0,1-0.448,1-1c0-0.552-0.448-1-1-1h-27.813
				c-0.552,0-1,0.448-1,1C343.031,167.804,343.478,168.252,344.031,168.252z"/>
			<path style="fill:#FFFFFF;" d="M392.507,168.252h21.337c0.552,0,1-0.448,1-1c0-0.552-0.448-1-1-1h-21.337c-0.552,0-1,0.448-1,1
				C391.507,167.804,391.955,168.252,392.507,168.252z"/>
		</g>
		<path style="opacity:0.2;enable-background:new    ;" d="M400.14,140.65v24.86c0,2.76-2.24,5.01-5.01,5.01h-58.88v-27.58
			c0-1.26,1.03-2.29,2.29-2.29H400.14z"/>
	</g>
	<g>
		<g>
			<path style="fill:#407BFF;" d="M392.567,162.615H271.62c-1.265,0-2.29-1.025-2.29-2.29V73.161c0-1.265,1.025-2.29,2.29-2.29
				h120.948c1.265,0,2.29,1.025,2.29,2.29v87.164C394.857,161.59,393.832,162.615,392.567,162.615z"/>
			<path style="opacity:0.6;fill:#FFFFFF;enable-background:new    ;" d="M394.86,73.16v87.16c0,1.27-1.03,2.29-2.29,2.29H271.62
				c-1.27,0-2.29-1.02-2.29-2.29V73.16c0-1.26,1.02-2.29,2.29-2.29h120.95C393.83,70.87,394.86,71.9,394.86,73.16z"/>
		</g>
		<rect x="271.703" y="80.198" style="fill:#263238;" width="120.78" height="79.84"/>
		<g>
			<path style="fill:#FFFFFF;" d="M280.394,90.148c0.134,0.099,0.29,0.146,0.444,0.146c0.23,0,0.457-0.106,0.604-0.306
				c0.246-0.334,0.174-0.803-0.16-1.048l-2.213-1.628l2.208-1.634c0.333-0.246,0.403-0.716,0.157-1.049
				c-0.246-0.334-0.717-0.402-1.049-0.157l-3.026,2.238c-0.192,0.142-0.305,0.366-0.304,0.604c0.001,0.238,0.114,0.462,0.306,0.603
				L280.394,90.148z"/>
			<path style="fill:#FFFFFF;" d="M290.544,87.302l-2.208,1.634c-0.333,0.246-0.403,0.716-0.157,1.049
				c0.147,0.199,0.374,0.304,0.603,0.304c0.155,0,0.311-0.048,0.445-0.147l3.026-2.238c0.192-0.142,0.305-0.366,0.304-0.604
				c-0.001-0.238-0.114-0.462-0.306-0.603l-3.032-2.23c-0.334-0.246-0.803-0.174-1.048,0.16c-0.246,0.334-0.174,0.803,0.16,1.048
				L290.544,87.302z"/>
			<path style="fill:#FFFFFF;" d="M283.767,90.25c0.082,0.029,0.167,0.043,0.25,0.043c0.309,0,0.598-0.192,0.707-0.5l1.581-4.471
				c0.138-0.391-0.066-0.819-0.457-0.957c-0.389-0.138-0.819,0.067-0.957,0.457l-1.581,4.471
				C283.171,89.684,283.376,90.112,283.767,90.25z"/>
			<path style="opacity:0.5;fill:#FFFFFF;" d="M296.275,90.544h3.956c0.552,0,1-0.448,1-1c0-0.552-0.448-1-1-1h-3.956
				c-0.552,0-1,0.448-1,1C295.275,90.097,295.723,90.544,296.275,90.544z"/>
			<path style="opacity:0.5;fill:#FFFFFF;" d="M347.578,98.473h5.345c0.552,0,1-0.448,1-1c0-0.552-0.448-1-1-1h-5.345
				c-0.552,0-1,0.448-1,1C346.578,98.025,347.026,98.473,347.578,98.473z"/>
			<path style="fill:#FFFFFF;" d="M289.699,97.473c0,0.552,0.448,1,1,1H340.7c0.552,0,1-0.448,1-1c0-0.552-0.448-1-1-1h-50.001
				C290.147,96.473,289.699,96.92,289.699,97.473z"/>
			<path style="opacity:0.5;fill:#FFFFFF;" d="M277.11,98.473h7.649c0.552,0,1-0.448,1-1c0-0.552-0.448-1-1-1h-7.649
				c-0.552,0-1,0.448-1,1C276.11,98.025,276.558,98.473,277.11,98.473z"/>
			<path style="fill:#FFFFFF;" d="M328.923,104.802c0.552,0,1-0.448,1-1c0-0.552-0.448-1-1-1H309.01c-0.552,0-1,0.448-1,1
				c0,0.552,0.448,1,1,1H328.923z"/>
			<path style="fill:#FFFFFF;" d="M290.7,104.802h14.128c0.552,0,1-0.448,1-1c0-0.552-0.448-1-1-1H290.7c-0.552,0-1,0.448-1,1
				C289.7,104.354,290.148,104.802,290.7,104.802z"/>
			<path style="opacity:0.5;fill:#FFFFFF;" d="M277.11,104.802h7.518c0.552,0,1-0.448,1-1c0-0.552-0.448-1-1-1h-7.518
				c-0.552,0-1,0.448-1,1C276.11,104.354,276.558,104.802,277.11,104.802z"/>
			<path style="fill:#FFFFFF;" d="M319.923,110.132c0-0.552-0.448-1-1-1h-28.322c-0.552,0-1,0.448-1,1c0,0.552,0.448,1,1,1h28.322
				C319.475,111.132,319.923,110.684,319.923,110.132z"/>
			<path style="opacity:0.5;fill:#FFFFFF;" d="M277.11,111.132h7.602c0.552,0,1-0.448,1-1c0-0.552-0.448-1-1-1h-7.602
				c-0.552,0-1,0.448-1,1C276.11,110.684,276.558,111.132,277.11,111.132z"/>
			<path style="fill:#FFFFFF;" d="M309.955,117.461h28.968c0.552,0,1-0.448,1-1c0-0.552-0.448-1-1-1h-28.968c-0.552,0-1,0.448-1,1
				C308.955,117.014,309.402,117.461,309.955,117.461z"/>
			<path style="fill:#FFFFFF;" d="M290.618,115.461c-0.552,0-1,0.448-1,1c0,0.552,0.448,1,1,1h13.177c0.552,0,1-0.448,1-1
				c0-0.552-0.448-1-1-1H290.618z"/>
			<path style="opacity:0.5;fill:#FFFFFF;" d="M277.11,117.461h7.514c0.552,0,1-0.448,1-1c0-0.552-0.448-1-1-1h-7.514
				c-0.552,0-1,0.448-1,1C276.11,117.014,276.558,117.461,277.11,117.461z"/>
			<path style="fill:#FFFFFF;" d="M301.923,121.791h-6.536c-0.552,0-1,0.448-1,1c0,0.552,0.448,1,1,1h6.536c0.552,0,1-0.448,1-1
				C302.923,122.239,302.475,121.791,301.923,121.791z"/>
			<path style="fill:#FFFFFF;" d="M290.732,121.791H277.11c-0.552,0-1,0.448-1,1c0,0.552,0.448,1,1,1h13.622c0.552,0,1-0.448,1-1
				C291.732,122.239,291.285,121.791,290.732,121.791z"/>
			<path style="fill:#FFFFFF;" d="M333.599,129.121c0,0.552,0.448,1,1,1h53.324c0.552,0,1-0.448,1-1c0-0.552-0.448-1-1-1h-53.324
				C334.046,128.121,333.599,128.569,333.599,129.121z"/>
			<path style="opacity:0.5;fill:#FFFFFF;" d="M319.11,128.121c-0.552,0-1,0.448-1,1c0,0.552,0.448,1,1,1h10.095
				c0.552,0,1-0.448,1-1c0-0.552-0.448-1-1-1H319.11z"/>
			<path style="opacity:0.5;fill:#FFFFFF;" d="M387.923,134.451h-12.991c-0.552,0-1,0.448-1,1c0,0.552,0.448,1,1,1h12.991
				c0.552,0,1-0.448,1-1C388.923,134.898,388.475,134.451,387.923,134.451z"/>
			<path style="fill:#FFFFFF;" d="M369.477,135.451c0-0.552-0.448-1-1-1H314.11c-0.552,0-1,0.448-1,1c0,0.552,0.448,1,1,1h54.367
				C369.029,136.451,369.477,136.003,369.477,135.451z"/>
			<path style="fill:#FFFFFF;" d="M387.923,140.78h-23.552c-0.552,0-1,0.448-1,1c0,0.552,0.448,1,1,1h23.552c0.552,0,1-0.448,1-1
				C388.923,141.228,388.475,140.78,387.923,140.78z"/>
			<path style="opacity:0.5;fill:#FFFFFF;" d="M353.11,140.78c-0.552,0-1,0.448-1,1c0,0.552,0.448,1,1,1h5.836c0.552,0,1-0.448,1-1
				c0-0.552-0.448-1-1-1H353.11z"/>
			<path style="fill:#FFFFFF;" d="M387.923,147.11h-46.812c-0.552,0-1,0.448-1,1c0,0.552,0.448,1,1,1h46.812c0.552,0,1-0.448,1-1
				C388.923,147.558,388.475,147.11,387.923,147.11z"/>
			<path style="fill:#FFFFFF;" d="M320.446,147.11H304.11c-0.552,0-1,0.448-1,1c0,0.552,0.448,1,1,1h16.336c0.552,0,1-0.448,1-1
				C321.446,147.558,320.999,147.11,320.446,147.11z"/>
		</g>
		<path style="opacity:0.2;enable-background:new    ;" d="M336.25,110.35v52.26h-64.63c-1.27,0-2.29-1.02-2.29-2.29V105.9h62.47
			C334.26,105.9,336.25,107.89,336.25,110.35z"/>
	</g>
	<g>
		<g>
			<path style="fill:#407BFF;" d="M325.71,201.511H185.762c-1.265,0-2.29-1.025-2.29-2.29v-87.164c0-1.265,1.025-2.29,2.29-2.29
				H325.71c1.265,0,2.29,1.025,2.29,2.29v87.164C328,200.486,326.974,201.511,325.71,201.511z"/>
			<path style="opacity:0.6;fill:#FFFFFF;enable-background:new    ;" d="M325.71,201.511H185.762c-1.265,0-2.29-1.025-2.29-2.29
				v-87.164c0-1.265,1.025-2.29,2.29-2.29H325.71c1.265,0,2.29,1.025,2.29,2.29v87.164C328,200.486,326.974,201.511,325.71,201.511z
				"/>
		</g>
		<rect x="185.846" y="119.094" style="fill:#263238;" width="139.78" height="79.84"/>
		<g>
			<path style="fill:#FFFFFF;" d="M213.62,135.848h-22.367c-0.552,0-1,0.448-1,1c0,0.552,0.448,1,1,1h22.367c0.552,0,1-0.448,1-1
				C214.62,136.296,214.172,135.848,213.62,135.848z"/>
			<path style="fill:#FFFFFF;" d="M213.62,142.087h-19.367c-0.552,0-1,0.448-1,1c0,0.552,0.448,1,1,1h19.367c0.552,0,1-0.448,1-1
				C214.62,142.535,214.172,142.087,213.62,142.087z"/>
			<path style="opacity:0.5;fill:#FFFFFF;" d="M213.62,148.328h-22.367c-0.552,0-1,0.448-1,1s0.448,1,1,1h22.367
				c0.552,0,1-0.448,1-1S214.172,148.328,213.62,148.328z"/>
			<path style="fill:#FFFFFF;" d="M213.62,154.567h-13.367c-0.552,0-1,0.448-1,1c0,0.552,0.448,1,1,1h13.367c0.552,0,1-0.448,1-1
				C214.62,155.015,214.172,154.567,213.62,154.567z"/>
			<path style="fill:#FFFFFF;" d="M213.62,160.807h-22.367c-0.552,0-1,0.448-1,1c0,0.552,0.448,1,1,1h22.367c0.552,0,1-0.448,1-1
				C214.62,161.255,214.172,160.807,213.62,160.807z"/>
			<path style="fill:#FFFFFF;" d="M213.62,167.047h-18.367c-0.552,0-1,0.448-1,1c0,0.552,0.448,1,1,1h18.367c0.552,0,1-0.448,1-1
				C214.62,167.495,214.172,167.047,213.62,167.047z"/>
			<path style="fill:#FFFFFF;" d="M213.62,173.287h-18.367c-0.552,0-1,0.448-1,1c0,0.552,0.448,1,1,1h18.367c0.552,0,1-0.448,1-1
				C214.62,173.734,214.172,173.287,213.62,173.287z"/>
			<path style="fill:#FFFFFF;" d="M213.62,179.526h-20.367c-0.552,0-1,0.448-1,1c0,0.552,0.448,1,1,1h20.367c0.552,0,1-0.448,1-1
				C214.62,179.974,214.172,179.526,213.62,179.526z"/>
			<path style="opacity:0.5;fill:#FFFFFF;" d="M213.62,185.766h-13.367c-0.552,0-1,0.448-1,1c0,0.552,0.448,1,1,1h13.367
				c0.552,0,1-0.448,1-1C214.62,186.214,214.172,185.766,213.62,185.766z"/>
			<path style="opacity:0.5;fill:#FFFFFF;" d="M213.62,129.608h-16.367c-0.552,0-1,0.448-1,1c0,0.552,0.448,1,1,1h16.367
				c0.552,0,1-0.448,1-1C214.62,130.056,214.172,129.608,213.62,129.608z"/>
			<path style="fill:#FFFFFF;" d="M213.62,123.368h-22.367c-0.552,0-1,0.448-1,1c0,0.552,0.448,1,1,1h22.367c0.552,0,1-0.448,1-1
				C214.62,123.816,214.172,123.368,213.62,123.368z"/>
			<path style="fill:#FFFFFF;" d="M213.62,192.006h-22.367c-0.552,0-1,0.448-1,1c0,0.552,0.448,1,1,1h22.367c0.552,0,1-0.448,1-1
				C214.62,192.454,214.172,192.006,213.62,192.006z"/>
			<rect x="221.252" y="135.598" style="opacity:0.5;fill:#FFFFFF;" width="4.367" height="2.5"/>
			<rect x="221.252" y="141.837" style="opacity:0.5;fill:#FFFFFF;" width="4.367" height="2.5"/>
			<rect x="221.252" y="148.078" style="opacity:0.5;fill:#FFFFFF;" width="4.367" height="2.5"/>
			<rect x="221.252" y="154.317" style="opacity:0.5;fill:#FFFFFF;" width="4.367" height="2.5"/>
			<rect x="221.252" y="160.557" style="opacity:0.5;fill:#FFFFFF;" width="4.367" height="2.5"/>
			<rect x="221.252" y="166.797" style="opacity:0.5;fill:#FFFFFF;" width="4.367" height="2.5"/>
			<rect x="221.252" y="173.037" style="opacity:0.5;fill:#FFFFFF;" width="4.367" height="2.5"/>
			<rect x="221.252" y="179.276" style="opacity:0.5;fill:#FFFFFF;" width="4.367" height="2.5"/>
			<rect x="221.252" y="185.516" style="opacity:0.5;fill:#FFFFFF;" width="4.367" height="2.5"/>
			<rect x="221.252" y="129.358" style="opacity:0.5;fill:#FFFFFF;" width="4.367" height="2.5"/>
			<rect x="221.252" y="123.118" style="opacity:0.5;fill:#FFFFFF;" width="4.367" height="2.5"/>
			<rect x="221.252" y="191.756" style="opacity:0.5;fill:#FFFFFF;" width="4.367" height="2.5"/>
			<path style="fill:#FFFFFF;" d="M248.252,136.848c0,0.552,0.448,1,1,1h72.367c0.552,0,1-0.448,1-1c0-0.552-0.448-1-1-1h-72.367
				C248.7,135.848,248.252,136.296,248.252,136.848z"/>
			<path style="fill:#FFFFFF;" d="M321.62,142.087h-39.632c-0.552,0-1,0.448-1,1c0,0.552,0.448,1,1,1h39.632c0.552,0,1-0.448,1-1
				C322.62,142.535,322.172,142.087,321.62,142.087z"/>
			<path style="opacity:0.5;fill:#FFFFFF;" d="M272.581,142.087h-12.329c-0.552,0-1,0.448-1,1c0,0.552,0.448,1,1,1h12.329
				c0.552,0,1-0.448,1-1C273.581,142.535,273.134,142.087,272.581,142.087z"/>
			<path style="fill:#FFFFFF;" d="M297.62,148.328h-54.998c-0.552,0-1,0.448-1,1s0.448,1,1,1h54.998c0.552,0,1-0.448,1-1
				S298.172,148.328,297.62,148.328z"/>
			<path style="opacity:0.5;fill:#FFFFFF;" d="M231.252,150.328h3.899c0.552,0,1-0.448,1-1s-0.448-1-1-1h-3.899
				c-0.552,0-1,0.448-1,1S230.7,150.328,231.252,150.328z"/>
			<path style="fill:#FFFFFF;" d="M304.62,155.567c0-0.552-0.448-1-1-1h-50.971c-0.552,0-1,0.448-1,1c0,0.552,0.448,1,1,1h50.971
				C304.172,156.567,304.62,156.12,304.62,155.567z"/>
			<path style="fill:#FFFFFF;" d="M231.252,156.567h14.388c0.552,0,1-0.448,1-1c0-0.552-0.448-1-1-1h-14.388c-0.552,0-1,0.448-1,1
				C230.252,156.12,230.7,156.567,231.252,156.567z"/>
			<path style="fill:#FFFFFF;" d="M231.252,162.807h54.367c0.552,0,1-0.448,1-1c0-0.552-0.448-1-1-1h-54.367c-0.552,0-1,0.448-1,1
				C230.252,162.359,230.7,162.807,231.252,162.807z"/>
			<path style="fill:#FFFFFF;" d="M266.424,167.047c-0.552,0-1,0.448-1,1c0,0.552,0.448,1,1,1h28.195c0.552,0,1-0.448,1-1
				c0-0.552-0.448-1-1-1H266.424z"/>
			<path style="fill:#FFFFFF;" d="M231.252,169.047h24.403c0.552,0,1-0.448,1-1c0-0.552-0.448-1-1-1h-24.403c-0.552,0-1,0.448-1,1
				C230.252,168.599,230.7,169.047,231.252,169.047z"/>
			<path style="fill:#FFFFFF;" d="M321.62,173.287h-66.367c-0.552,0-1,0.448-1,1c0,0.552,0.448,1,1,1h66.367c0.552,0,1-0.448,1-1
				C322.62,173.734,322.172,173.287,321.62,173.287z"/>
			<path style="fill:#FFFFFF;" d="M321.62,179.526h-57.367c-0.552,0-1,0.448-1,1c0,0.552,0.448,1,1,1h57.367c0.552,0,1-0.448,1-1
				C322.62,179.974,322.172,179.526,321.62,179.526z"/>
			<path style="opacity:0.5;fill:#FFFFFF;" d="M321.62,185.766h-11.796c-0.552,0-1,0.448-1,1c0,0.552,0.448,1,1,1h11.796
				c0.552,0,1-0.448,1-1C322.62,186.214,322.172,185.766,321.62,185.766z"/>
			<path style="fill:#FFFFFF;" d="M301.57,185.766h-43.317c-0.552,0-1,0.448-1,1c0,0.552,0.448,1,1,1h43.317c0.552,0,1-0.448,1-1
				C302.57,186.214,302.122,185.766,301.57,185.766z"/>
			<path style="fill:#FFFFFF;" d="M231.252,131.608h46.367c0.552,0,1-0.448,1-1c0-0.552-0.448-1-1-1h-46.367c-0.552,0-1,0.448-1,1
				C230.252,131.16,230.7,131.608,231.252,131.608z"/>
			<path style="fill:#FFFFFF;" d="M231.252,125.368h72.367c0.552,0,1-0.448,1-1c0-0.552-0.448-1-1-1h-72.367c-0.552,0-1,0.448-1,1
				C230.252,124.921,230.7,125.368,231.252,125.368z"/>
			<path style="fill:#FFFFFF;" d="M298.62,192.006h-30.715c-0.552,0-1,0.448-1,1c0,0.552,0.448,1,1,1h30.715c0.552,0,1-0.448,1-1
				C299.62,192.454,299.172,192.006,298.62,192.006z"/>
			<path style="opacity:0.5;fill:#FFFFFF;" d="M259.192,192.006h-27.939c-0.552,0-1,0.448-1,1c0,0.552,0.448,1,1,1h27.939
				c0.552,0,1-0.448,1-1C260.192,192.454,259.744,192.006,259.192,192.006z"/>
			<path style="opacity:0.5;fill:#FFFFFF;" d="M287.908,131.608c0.552,0,1-0.448,1-1c0-0.552-0.448-1-1-1h-3.602
				c-0.552,0-1,0.448-1,1c0,0.552,0.448,1,1,1H287.908z"/>
			<path style="opacity:0.5;fill:#FFFFFF;" d="M244.081,136.848c0-0.552-0.448-1-1-1h-4.83c-0.552,0-1,0.448-1,1
				c0,0.552,0.448,1,1,1h4.83C243.634,137.848,244.081,137.4,244.081,136.848z"/>
			<path style="opacity:0.5;fill:#FFFFFF;" d="M299.221,161.807c0-0.552-0.448-1-1-1h-5.285c-0.552,0-1,0.448-1,1
				c0,0.552,0.448,1,1,1h5.285C298.773,162.807,299.221,162.359,299.221,161.807z"/>
			<path style="opacity:0.5;fill:#FFFFFF;" d="M316.53,156.567c0.552,0,1-0.448,1-1c0-0.552-0.448-1-1-1h-4.285
				c-0.552,0-1,0.448-1,1c0,0.552,0.448,1,1,1H316.53z"/>
			<path style="opacity:0.5;fill:#FFFFFF;" d="M247.213,173.287c-0.552,0-1,0.448-1,1c0,0.552,0.448,1,1,1h4.308
				c0.552,0,1-0.448,1-1c0-0.552-0.448-1-1-1H247.213z"/>
		</g>
	</g>
</g>
<g id="Bubble">
	<g>
		<path style="fill:#407BFF;" d="M139.599,183.703H106.53c-1.878,0-3.401-1.523-3.401-3.401v-17.888
			c0-1.878,1.523-3.401,3.401-3.401h33.069c1.878,0,3.401,1.523,3.401,3.401v17.888C143,182.181,141.477,183.703,139.599,183.703z"
			/>
		<path style="fill:#407BFF;" d="M129.107,182.448c0,0,1.508,6.896,10.315,9.558c0,0-4.587-4.141-3.55-9.558H129.107z"/>
		<g>
			<path style="fill:#FFFFFF;" d="M108.337,162.902v4.145h-0.426v-3.766h-0.977v-0.379H108.337z"/>
			<path style="fill:#FFFFFF;" d="M109.325,164.975c0-1.32,0.692-2.107,1.651-2.107c0.959,0,1.658,0.787,1.658,2.107
				c0,1.32-0.698,2.108-1.658,2.108C110.017,167.083,109.325,166.295,109.325,164.975z M112.196,164.975
				c0-1.107-0.497-1.717-1.22-1.717c-0.722,0-1.219,0.61-1.219,1.717c0,1.107,0.497,1.717,1.219,1.717
				C111.699,166.691,112.196,166.082,112.196,164.975z"/>
			<path style="fill:#FFFFFF;" d="M113.242,164.975c0-1.32,0.693-2.107,1.652-2.107c0.959,0,1.658,0.787,1.658,2.107
				c0,1.32-0.698,2.108-1.658,2.108C113.935,167.083,113.242,166.295,113.242,164.975z M116.113,164.975
				c0-1.107-0.497-1.717-1.22-1.717c-0.722,0-1.219,0.61-1.219,1.717c0,1.107,0.497,1.717,1.219,1.717
				C115.616,166.691,116.113,166.082,116.113,164.975z"/>
			<path style="fill:#FFFFFF;" d="M118.297,162.902v4.145h-0.426v-3.766h-0.977v-0.379H118.297z"/>
			<path style="fill:#FFFFFF;" d="M120.433,162.902v4.145h-0.426v-3.766h-0.977v-0.379H120.433z"/>
			<path style="fill:#FFFFFF;" d="M121.42,164.975c0-1.32,0.693-2.107,1.652-2.107c0.959,0,1.658,0.787,1.658,2.107
				c0,1.32-0.698,2.108-1.658,2.108C122.113,167.083,121.42,166.295,121.42,164.975z M124.292,164.975
				c0-1.107-0.497-1.717-1.22-1.717c-0.722,0-1.219,0.61-1.219,1.717c0,1.107,0.497,1.717,1.219,1.717
				C123.795,166.691,124.292,166.082,124.292,164.975z"/>
			<path style="fill:#FFFFFF;" d="M126.475,162.902v4.145h-0.426v-3.766h-0.977v-0.379H126.475z"/>
			<path style="fill:#FFFFFF;" d="M127.462,164.975c0-1.32,0.693-2.107,1.652-2.107c0.959,0,1.658,0.787,1.658,2.107
				c0,1.32-0.698,2.108-1.658,2.108C128.155,167.083,127.462,166.295,127.462,164.975z M130.334,164.975
				c0-1.107-0.497-1.717-1.22-1.717c-0.722,0-1.219,0.61-1.219,1.717c0,1.107,0.497,1.717,1.219,1.717
				C129.837,166.691,130.334,166.082,130.334,164.975z"/>
			<path style="fill:#FFFFFF;" d="M131.38,164.975c0-1.32,0.693-2.107,1.652-2.107c0.96,0,1.658,0.787,1.658,2.107
				c0,1.32-0.698,2.108-1.658,2.108C132.073,167.083,131.38,166.295,131.38,164.975z M134.252,164.975
				c0-1.107-0.497-1.717-1.22-1.717c-0.722,0-1.219,0.61-1.219,1.717c0,1.107,0.497,1.717,1.219,1.717
				C133.755,166.691,134.252,166.082,134.252,164.975z"/>
			<path style="fill:#FFFFFF;" d="M136.435,162.902v4.145h-0.426v-3.766h-0.977v-0.379H136.435z"/>
			<path style="fill:#FFFFFF;" d="M138.571,162.902v4.145h-0.426v-3.766h-0.977v-0.379H138.571z"/>
		</g>
		<g>
			<path style="fill:#FFFFFF;" d="M107.188,170.975c0-1.32,0.693-2.107,1.652-2.107c0.96,0,1.658,0.787,1.658,2.107
				c0,1.32-0.698,2.108-1.658,2.108C107.881,173.083,107.188,172.295,107.188,170.975z M110.06,170.975
				c0-1.107-0.497-1.717-1.22-1.717c-0.722,0-1.219,0.61-1.219,1.717c0,1.107,0.497,1.717,1.219,1.717
				C109.563,172.691,110.06,172.082,110.06,170.975z"/>
			<path style="fill:#FFFFFF;" d="M111.106,170.975c0-1.32,0.692-2.107,1.651-2.107c0.959,0,1.658,0.787,1.658,2.107
				c0,1.32-0.698,2.108-1.658,2.108C111.798,173.083,111.106,172.295,111.106,170.975z M113.977,170.975
				c0-1.107-0.497-1.717-1.22-1.717c-0.722,0-1.219,0.61-1.219,1.717c0,1.107,0.497,1.717,1.219,1.717
				C113.48,172.691,113.977,172.082,113.977,170.975z"/>
			<path style="fill:#FFFFFF;" d="M116.16,168.902v4.145h-0.426v-3.766h-0.977v-0.379H116.16z"/>
			<path style="fill:#FFFFFF;" d="M118.297,168.902v4.145h-0.426v-3.766h-0.977v-0.379H118.297z"/>
			<path style="fill:#FFFFFF;" d="M119.285,170.975c0-1.32,0.692-2.107,1.651-2.107c0.96,0,1.658,0.787,1.658,2.107
				c0,1.32-0.698,2.108-1.658,2.108C119.977,173.083,119.285,172.295,119.285,170.975z M122.156,170.975
				c0-1.107-0.497-1.717-1.22-1.717c-0.722,0-1.219,0.61-1.219,1.717c0,1.107,0.497,1.717,1.219,1.717
				C121.659,172.691,122.156,172.082,122.156,170.975z"/>
			<path style="fill:#FFFFFF;" d="M124.339,168.902v4.145h-0.426v-3.766h-0.977v-0.379H124.339z"/>
			<path style="fill:#FFFFFF;" d="M125.327,170.975c0-1.32,0.692-2.107,1.651-2.107c0.96,0,1.658,0.787,1.658,2.107
				c0,1.32-0.698,2.108-1.658,2.108C126.019,173.083,125.327,172.295,125.327,170.975z M128.198,170.975
				c0-1.107-0.497-1.717-1.22-1.717c-0.722,0-1.219,0.61-1.219,1.717c0,1.107,0.497,1.717,1.219,1.717
				C127.701,172.691,128.198,172.082,128.198,170.975z"/>
			<path style="fill:#FFFFFF;" d="M129.244,170.975c0-1.32,0.693-2.107,1.652-2.107c0.96,0,1.658,0.787,1.658,2.107
				c0,1.32-0.698,2.108-1.658,2.108C129.936,173.083,129.244,172.295,129.244,170.975z M132.115,170.975
				c0-1.107-0.497-1.717-1.22-1.717c-0.722,0-1.219,0.61-1.219,1.717c0,1.107,0.497,1.717,1.219,1.717
				C131.618,172.691,132.115,172.082,132.115,170.975z"/>
			<path style="fill:#FFFFFF;" d="M134.298,168.902v4.145h-0.426v-3.766h-0.977v-0.379H134.298z"/>
			<path style="fill:#FFFFFF;" d="M136.435,168.902v4.145h-0.426v-3.766h-0.977v-0.379H136.435z"/>
			<path style="fill:#FFFFFF;" d="M138.571,168.902v4.145h-0.426v-3.766h-0.977v-0.379H138.571z"/>
		</g>
		<g>
			<path style="fill:#FFFFFF;" d="M108.337,174.902v4.145h-0.426v-3.766h-0.977v-0.379H108.337z"/>
			<path style="fill:#FFFFFF;" d="M110.473,174.902v4.145h-0.426v-3.766h-0.977v-0.379H110.473z"/>
			<path style="fill:#FFFFFF;" d="M111.46,176.975c0-1.32,0.693-2.107,1.652-2.107c0.96,0,1.658,0.787,1.658,2.107
				c0,1.32-0.698,2.108-1.658,2.108C112.153,179.083,111.46,178.295,111.46,176.975z M114.332,176.975
				c0-1.107-0.497-1.717-1.22-1.717c-0.722,0-1.219,0.61-1.219,1.717c0,1.107,0.497,1.717,1.219,1.717
				C113.835,178.691,114.332,178.082,114.332,176.975z"/>
			<path style="fill:#FFFFFF;" d="M115.378,176.975c0-1.32,0.693-2.107,1.652-2.107c0.959,0,1.658,0.787,1.658,2.107
				c0,1.32-0.698,2.108-1.658,2.108C116.071,179.083,115.378,178.295,115.378,176.975z M118.25,176.975
				c0-1.107-0.497-1.717-1.22-1.717c-0.722,0-1.219,0.61-1.219,1.717c0,1.107,0.497,1.717,1.219,1.717
				C117.753,178.691,118.25,178.082,118.25,176.975z"/>
			<path style="fill:#FFFFFF;" d="M120.433,174.902v4.145h-0.426v-3.766h-0.977v-0.379H120.433z"/>
			<path style="fill:#FFFFFF;" d="M122.569,174.902v4.145h-0.426v-3.766h-0.977v-0.379H122.569z"/>
			<path style="fill:#FFFFFF;" d="M123.557,176.975c0-1.32,0.692-2.107,1.651-2.107c0.959,0,1.658,0.787,1.658,2.107
				c0,1.32-0.698,2.108-1.658,2.108C124.249,179.083,123.557,178.295,123.557,176.975z M126.428,176.975
				c0-1.107-0.497-1.717-1.22-1.717c-0.722,0-1.219,0.61-1.219,1.717c0,1.107,0.497,1.717,1.219,1.717
				C125.931,178.691,126.428,178.082,126.428,176.975z"/>
			<path style="fill:#FFFFFF;" d="M127.474,176.975c0-1.32,0.693-2.107,1.652-2.107c0.959,0,1.658,0.787,1.658,2.107
				c0,1.32-0.698,2.108-1.658,2.108C128.167,179.083,127.474,178.295,127.474,176.975z M130.346,176.975
				c0-1.107-0.497-1.717-1.22-1.717c-0.722,0-1.219,0.61-1.219,1.717c0,1.107,0.497,1.717,1.219,1.717
				C129.849,178.691,130.346,178.082,130.346,176.975z"/>
			<path style="fill:#FFFFFF;" d="M132.529,174.902v4.145h-0.426v-3.766h-0.977v-0.379H132.529z"/>
			<path style="fill:#FFFFFF;" d="M133.517,176.975c0-1.32,0.692-2.107,1.651-2.107c0.959,0,1.658,0.787,1.658,2.107
				c0,1.32-0.698,2.108-1.658,2.108C134.21,179.083,133.517,178.295,133.517,176.975z M136.388,176.975
				c0-1.107-0.497-1.717-1.22-1.717c-0.722,0-1.219,0.61-1.219,1.717c0,1.107,0.497,1.717,1.219,1.717
				C135.891,178.691,136.388,178.082,136.388,176.975z"/>
			<path style="fill:#FFFFFF;" d="M138.571,174.902v4.145h-0.426v-3.766h-0.977v-0.379H138.571z"/>
		</g>
	</g>
</g>
<g id="Character">
	<g>
		<path style="fill:#263238;" d="M76.227,394.865l27.503-2.703V353.51h10.9v38.641l27.614,2.714
			c2.741,0.269,4.831,2.574,4.831,5.329v4.13h-36.83h-2.02h-36.83v-4.13C71.396,397.439,73.486,395.134,76.227,394.865z"/>
		<path style="opacity:0.2;fill:#FFFFFF;enable-background:new    ;" d="M76.227,394.865l27.503-2.703V353.51h10.9v38.641
			l27.614,2.714c2.741,0.269,4.831,2.574,4.831,5.329v4.13h-36.83h-2.02h-36.83v-4.13C71.396,397.439,73.486,395.134,76.227,394.865
			z"/>
		<circle style="fill:#263238;" cx="144.165" cy="409.447" r="7.127"/>
		<circle style="fill:#263238;" cx="74.306" cy="409.447" r="7.127"/>
		<path style="fill:#263238;" d="M105.986,361.818h6.388c2.283,0,4.133-1.85,4.133-4.133v-30.294h-14.654v30.294
			C101.853,359.967,103.703,361.818,105.986,361.818z"/>
		<path style="opacity:0.3;fill:#FFFFFF;enable-background:new    ;" d="M105.986,361.818h6.388c2.283,0,4.133-1.85,4.133-4.133
			v-30.294h-14.654v30.294C101.853,359.967,103.703,361.818,105.986,361.818z"/>
		<path style="fill:#263238;" d="M83.121,266.974c0,0-2.077,51.543,12.273,60.417H79.011c0,0-12.694-17.559-9.106-60.417H83.121z"/>
		<path style="opacity:0.3;fill:#FFFFFF;enable-background:new    ;" d="M83.121,266.974c0,0-2.077,51.543,12.273,60.417H79.011
			c0,0-12.694-17.559-9.106-60.417H83.121z"/>
		<path style="fill:#263238;" d="M141.856,320.182H78.431c-2.761,0-5,2.239-5,5v6.158h73.425v-6.158
			C146.856,322.421,144.617,320.182,141.856,320.182z"/>
		<g>
			<path style="fill:#263238;" d="M147.905,325.762H72.381c-1.111,0-2.011,0.901-2.011,2.011v1.556c0,1.111,0.9,2.011,2.011,2.011
				h75.523c1.111,0,2.011-0.901,2.011-2.011v-1.556C149.916,326.662,149.016,325.762,147.905,325.762z"/>
			<path style="opacity:0.6;fill:#FFFFFF;enable-background:new    ;" d="M147.905,325.762H72.381c-1.111,0-2.011,0.901-2.011,2.011
				v1.556c0,1.111,0.9,2.011,2.011,2.011h75.523c1.111,0,2.011-0.901,2.011-2.011v-1.556
				C149.916,326.662,149.016,325.762,147.905,325.762z"/>
		</g>
		<path style="fill:#263238;" d="M66.551,277.447H91.47c8.054,0,14.584-6.529,14.584-14.584v-8.937
			c0-8.055-6.53-14.584-14.584-14.584H66.551c-8.055,0-14.584,6.529-14.584,14.584v8.937
			C51.967,270.917,58.496,277.447,66.551,277.447z"/>
	</g>
	<g id="_x3C_Group_x3E__82_">
		<polygon style="fill:#EBB376;" points="138.133,409.352 146.099,408.259 147.203,389.323 139.249,390.425 		"/>
		<polygon style="opacity:0.2;enable-background:new    ;" points="139.249,390.425 147.204,389.333 146.571,400.157 
			138.626,400.854 		"/>
		<path style="fill:#407BFF;" d="M138.453,298.033l-1.944-12.176l-44.66-2.671c0,0-4.749,25.337-1.1,32.087
			c6.514,12.05,41.618,5.969,51.89,7.154c-6.14,25.11-5.54,74.18-5.54,74.18l14.67,1.12c0,0,11.288-52.876,13.57-78
			C166.879,302.774,152.832,303.196,138.453,298.033z"/>
		<polygon style="fill:#407BFF;" points="135.379,397.298 153.009,398.458 154.519,390.908 135.149,390.008 		"/>
		<polygon style="fill:#EBB376;" points="156.51,402.281 164.529,402.871 169.553,384.58 161.544,384.001 		"/>
		<g>
			<path style="fill:#407BFF;" d="M165.643,403.228c0.01,0.02,0.006,0.046,0.022,0.062c0.02,0.011,0.045,0.012,0.068,0.009
				c0.622,0.35,1.279,0.633,1.962,0.842c0.498,0.203,1.055,0.212,1.56,0.025c0.336-0.191,0.533-0.559,0.503-0.945
				c0.023-0.243-0.078-0.48-0.271-0.629c-0.455-0.339-1.408-0.239-2.248-0.061c0.612-0.499,1.149-1.126,1.184-1.627
				c0.019-0.329-0.17-0.63-0.485-0.728c-0.272-0.113-0.544-0.1-0.805,0.035c-0.974,0.535-1.352,2.779-1.381,2.899
				c0,0.001,0.142,0.001,0.142,0.002c0,0.001,0,0.002,0,0.002s-0.144,0.007-0.144,0.008c-0.001,0.008-0.135,0.014-0.135,0.023
				C165.616,403.176,165.625,403.204,165.643,403.228z M166.242,402.782c-0.067,0.02-0.124,0.038-0.18,0.055
				c0.188-0.738,0.593-1.95,1.175-2.262c0.129-0.078,0.285-0.099,0.43-0.057l0.087,0.031c0.249,0.102,0.281,0.247,0.268,0.356
				C167.953,401.447,167.032,402.348,166.242,402.782z M166.272,403.195c1.058-0.32,2.526-0.609,2.977-0.27
				c0.096,0.072,0.146,0.19,0.133,0.309c0.011,0.242-0.106,0.472-0.308,0.606C168.608,404.094,167.58,403.854,166.272,403.195z"/>
		</g>
		<polygon style="opacity:0.2;enable-background:new    ;" points="161.544,384.001 169.552,384.59 166.678,395.044 
			158.762,394.072 		"/>
		<path style="fill:#407BFF;" d="M172.27,393.754l-14.12-4.15c0,0,8.43-47.58,16.98-64.08c-0.64-0.21-1.49-0.48-2.54-0.79
			c-1.89-0.57-4.4-1.28-7.35-2.1c-20.52-5.69-62.11-16.36-62.11-16.36l19-17.73c0,0,75.68,11.54,77.25,31.48
			C200.129,329.614,172.27,393.754,172.27,393.754z"/>
		<polygon style="fill:#407BFF;" points="156.328,389.917 173.329,394.724 176.379,387.654 157.621,382.739 		"/>
		<path style="opacity:0.2;enable-background:new    ;" d="M172.589,324.734c-1.89-0.57-4.4-1.28-7.35-2.1
			c0.59-4.84,0.6-10.39-1.73-13.22c-4.63-5.64-16.54-8.95-23.32-10.15c-5.67-1-24.72-2.99-24.72-2.99s24.72-2.37,49.99,5
			C177.949,304.924,175.52,317.134,172.589,324.734z"/>
		<polygon style="opacity:0.2;fill:#FFFFFF;" points="135.379,397.298 153.009,398.458 154.519,390.908 135.149,390.008 		"/>
		<polygon style="opacity:0.2;fill:#FFFFFF;" points="156.328,389.917 173.329,394.724 176.379,387.654 157.621,382.739 		"/>
		<path style="fill:#263238;" d="M165.316,402.057l-8.685-2.424c-0.299-0.098-0.621,0.065-0.719,0.364
			c-0.001,0.003-0.002,0.006-0.003,0.009l-2.343,6.76c-0.209,0.749,0.223,1.527,0.97,1.745c3.044,0.796,4.538,1.025,8.368,2.061
			c2.348,0.648,6.926,2.152,10.274,2.533c3.349,0.381,3.635-2.939,2.252-3.395c-3.279-1.098-7.202-4.515-8.906-6.836
			C166.223,402.476,165.798,402.188,165.316,402.057z"/>
		<g>
			<path style="fill:#407BFF;" d="M146.893,408.28c0,0.008,0.166,0.012,0.168,0.02c0.009,0.03,0.179,0.056,0.202,0.076
				c0.014,0.018,0.015,0.043,0.034,0.056c0.023,0.007,0.046,0.002,0.068-0.006c0.681,0.213,1.382,0.353,2.093,0.415
				c0.53,0.095,1.074-0.012,1.529-0.301c0.289-0.257,0.401-0.658,0.292-1.029c-0.028-0.242-0.184-0.453-0.403-0.558
				c-0.516-0.236-1.442,0.06-2.226,0.41c0.495-0.615,0.862-1.339,0.791-1.836c-0.05-0.326-0.354-0.577-0.683-0.608
				c-0.289-0.053-0.665,0.023-0.893,0.21c-0.837,0.723-0.972,2.994-0.972,3.134c0,0.002,0,0.004,0,0.006c0,0.001,0,0.002,0,0.002
				C146.893,408.273,146.893,408.28,146.893,408.28z M147.756,407.815c-0.061,0.034-0.113,0.063-0.165,0.092
				c0.031-0.761,0.174-2.031,0.678-2.457c0.11-0.104,0.259-0.156,0.409-0.145l0.091,0.012c0.265,0.048,0.327,0.183,0.336,0.293
				C149.152,406.153,148.438,407.226,147.756,407.815z M147.871,408.214c0.969-0.534,2.344-1.122,2.855-0.884
				c0.109,0.051,0.182,0.155,0.194,0.275c0.061,0.234-0.005,0.484-0.175,0.657C150.343,408.606,149.288,408.585,147.871,408.214z"/>
		</g>
		<path style="fill:#263238;" d="M146.7,407.299l-9-0.561c-0.313-0.034-0.594,0.193-0.628,0.506c0,0.003-0.001,0.006-0.001,0.009
			l-0.883,7.1c-0.048,0.776,0.536,1.447,1.312,1.505c3.143,0.145,4.651,0.057,8.614,0.273c2.431,0.145,7.222,0.662,10.576,0.337
			c3.355-0.325,2.943-3.632,1.495-3.79c-3.435-0.391-7.985-2.915-10.135-4.831C147.674,407.52,147.198,407.327,146.7,407.299z"/>
		<path style="fill:#263238;" d="M156.659,252.573c0,0,2.517,13.652,7.061,16.29c4.544,2.637,35.94-16.136,35.94-16.136
			l-2.629-5.295c0,0-26.287,7.094-26.538,7.142c-0.251,0.048-0.995-6.018-0.995-6.018L156.659,252.573z"/>
		<path style="fill:#407BFF;" d="M166.455,231.093c2.072,2.56,5.053,21.48,5.053,21.48l-15.417,3.592l-3.341-9.588L166.455,231.093z
			"/>
		<path style="opacity:0.4;fill:#FFFFFF;enable-background:new    ;" d="M166.455,231.093c2.072,2.56,5.053,21.48,5.053,21.48
			l-15.417,3.592l-3.341-9.588L166.455,231.093z"/>
		<g>
			<path style="fill:#407BFF;" d="M87.429,298.928l51.753-8.613c0,0,3.235-30.738,27.274-59.222c0,0-8.343-18.244-38.042-15.715
				C98.714,217.907,87.429,298.928,87.429,298.928z"/>
			<path style="opacity:0.6;fill:#FFFFFF;enable-background:new    ;" d="M87.429,298.928l51.753-8.613
				c0,0,3.235-30.738,27.274-59.222c0,0-8.343-18.244-38.042-15.715C98.714,217.907,87.429,298.928,87.429,298.928z"/>
		</g>
		<path style="fill:#EBB376;" d="M127.706,241.543c0,0-0.519,14.213,1.063,15.03c1.582,0.817,31.473-10.062,36.209-10.853
			c4.736-0.791,15.615,3.36,15.615,3.36l0.989,6.493c0,0-9.682-0.192-15.127-2.847c0,0-34.917,20.883-42.433,19.697
			c-7.517-1.187-10.088-29.473-10.088-29.473L127.706,241.543z"/>
		<path style="fill:#263238;" d="M127.706,246.577c0,0,0.114,8.366,1.853,8.996c1.739,0.63,27.601-8.469,27.601-8.469l4.088,9.469
			c0,0-32.676,21.09-39.006,15.899c-6.33-5.192-7.912-23.785-7.912-23.785L127.706,246.577z"/>
		<g>
			<path style="fill:#407BFF;" d="M123.033,218.573c9.294-0.97,5.934,31.927,5.934,31.927l-15.626,2.226
				C113.341,252.726,106.616,220.286,123.033,218.573z"/>
			<path style="opacity:0.4;fill:#FFFFFF;enable-background:new    ;" d="M123.033,218.573c9.294-0.97,5.934,31.927,5.934,31.927
				l-15.626,2.226C113.341,252.726,106.616,220.286,123.033,218.573z"/>
		</g>
		<path style="fill:#263238;" d="M137.748,216.194c0,0-0.312,14.454,8.554,15.93c8.866,1.476,9.789-10.305,9.789-10.305
			S150.13,215.403,137.748,216.194z"/>
		<path style="fill:#EBB376;" d="M160.02,224.19c-2.17-0.96-4.75,0-4.75,0s-0.94,5.02-6.65,5.34c-0.69,0.04-1.45,0.01-2.28-0.1
			c-7.74-1.06-6.89-12.57-6.89-12.57c3.21,0.24,5.93-0.7,8.06-1.94c0,0,0,0,0-0.01c3.39-1.97,5.28-4.72,5.28-4.72L160.02,224.19z"/>
		<path style="opacity:0.2;enable-background:new    ;" d="M160.02,224.19c-2.17-0.96-4.75,0-4.75,0s-0.94,5.02-6.65,5.34
			c-1.99-4.93-1.73-10.58-1.11-14.61c0,0,0,0,0-0.01c3.39-1.97,5.28-4.72,5.28-4.72L160.02,224.19z"/>
		<g>
			<path style="fill:#263238;" d="M166.018,201.839c-3.448,2.34-1.878,6.305,5.923,12.509c3.166-4.11,3.692-12.087,1.174-14.093
				C170.597,198.25,169.024,199.814,166.018,201.839z"/>
			<path style="fill:#EBB376;" d="M151.189,208.265c0.374,8.428,0.171,13.372,4.341,17.768c6.282,6.605,16.74,2.931,18.893-5.442
				c1.924-7.52,0.995-20.043-7.185-23.527c-5.833-2.52-12.604,0.167-15.124,6C151.407,204.702,151.09,206.483,151.189,208.265z"/>
			<path style="fill:#263238;" d="M163.72,210.786c-0.011,0.685,0.345,1.247,0.792,1.252c0.447,0.005,0.813-0.537,0.825-1.221
				c0.011-0.685-0.336-1.245-0.781-1.259C164.112,209.543,163.779,210.112,163.72,210.786z"/>
			<path style="fill:#263238;" d="M171.508,210.929c-0.011,0.685,0.345,1.247,0.792,1.252c0.447,0.005,0.823-0.534,0.836-1.229
				c0.013-0.694-0.345-1.247-0.792-1.252C171.898,209.695,171.52,210.244,171.508,210.929z"/>
			<path style="fill:#D58745;" d="M168.962,211.209c0.782,2.109,1.85,4.099,3.176,5.916c-1.257,1.11-3.288,0.554-3.288,0.554
				L168.962,211.209z"/>
			<path style="fill:#263238;" d="M175.015,206.406c-0.077,0.135-0.223,0.216-0.378,0.21c-1.021-0.088-2.022,0.319-2.693,1.093
				c-0.134,0.178-0.385,0.215-0.565,0.084c-0.175-0.131-0.215-0.378-0.091-0.558c0.835-0.994,2.1-1.523,3.394-1.42
				c0.219,0.011,0.389,0.197,0.378,0.417c0,0.002,0,0.004,0,0.006C175.055,206.296,175.04,206.353,175.015,206.406z"/>
			<path style="fill:#263238;" d="M166.991,207.916c-0.147,0.049-0.31,0.013-0.422-0.095c-0.704-0.744-1.722-1.107-2.738-0.975
				c-0.218,0.044-0.431-0.096-0.478-0.313c-0.043-0.214,0.091-0.425,0.303-0.477c1.285-0.187,2.581,0.259,3.479,1.197
				c0.157,0.154,0.159,0.406,0.005,0.563c-0.001,0.001-0.003,0.003-0.004,0.004C167.094,207.861,167.045,207.893,166.991,207.916z"
				/>
			<path style="fill:#263238;" d="M154.67,200.861c3.912,1.416,3.357,5.65-2.685,13.569c-4.08-3.209-6.548-10.823-4.585-13.371
				C149.363,198.51,151.252,199.631,154.67,200.861z"/>
			<path style="fill:#EBB376;" d="M147.065,214.93c0.552,2.05,1.894,3.799,3.732,4.861c2.446,1.381,4.337-0.647,4.223-3.304
				c-0.105-2.396-1.511-6.004-4.233-6.294C148.065,209.903,146.4,212.412,147.065,214.93z"/>
			
				<path style="fill:none;stroke:#263238;stroke-width:0.5263;stroke-linecap:round;stroke-linejoin:round;stroke-miterlimit:10;" d="
				M162.529,219.075c0,0,1.462,2.763,5.541,2.631"/>
			<path style="fill:#263238;" d="M155.571,203.786c0,0,3.318,0.178,4.846,2.275c0,0,1.265-1.385,0.83-3.858
				c0,0,4.016,0.492,5.796,3.262c0,0,0.89-1.779,0.593-3.262c0,0,1.335,1.58,1.212,3.262c0,0,3.058-1.939,2.659-3.757
				c0,0,1.123,1.258,1.629,3.165c0,0,2.015-0.692,1.57-4.253c0,0,1.336,1.505,1.435,2.582c0,0,2.621-7.428-7.294-11.582
				c-9.915-4.154-21.289,0.771-21.091,9.012C147.956,208.874,155.571,203.786,155.571,203.786z"/>
			<g>
				
					<path style="fill:none;stroke:#263238;stroke-width:0.5263;stroke-linecap:round;stroke-linejoin:round;stroke-miterlimit:10;" d="
					M168.07,212.18c0,2.18-1.475,3.947-3.294,3.947c-1.819,0-3.294-1.767-3.294-3.947c0-2.18,1.475-3.947,3.294-3.947
					C166.595,208.232,168.07,210,168.07,212.18z"/>
				
					<path style="fill:none;stroke:#263238;stroke-width:0.5263;stroke-linecap:round;stroke-linejoin:round;stroke-miterlimit:10;" d="
					M177.082,212.038c0,2.18-1.475,3.947-3.294,3.947c-1.819,0-3.294-1.767-3.294-3.947c0-2.18,1.475-3.947,3.294-3.947
					C175.607,208.091,177.082,209.858,177.082,212.038z"/>
				
					<path style="fill:none;stroke:#263238;stroke-width:0.5263;stroke-linecap:round;stroke-linejoin:round;stroke-miterlimit:10;" d="
					M168.07,212.18c0,0,1.274-1.136,2.423-0.142"/>
				
					<line style="fill:none;stroke:#263238;stroke-width:0.5263;stroke-linecap:round;stroke-linejoin:round;stroke-miterlimit:10;" x1="161.481" y1="212.18" x2="153.464" y2="211.495"/>
			</g>
		</g>
		<g>
			<path style="fill:#263238;" d="M235.893,252.573v2.646c0,0.793-1.365,1.354-2.148,1.354h-61.794
				c-0.793,0-2.058-0.561-2.058-1.354v-2.646H235.893z"/>
			<path style="opacity:0.6;fill:#FFFFFF;enable-background:new    ;" d="M235.893,252.573v2.646c0,0.793-1.365,1.354-2.148,1.354
				h-61.794c-0.793,0-2.058-0.561-2.058-1.354v-2.646H235.893z"/>
			<path style="opacity:0.2;enable-background:new    ;" d="M235.893,252.573v2.646c0,0.793-1.365,1.354-2.148,1.354h-40.757
				c-0.793,0-2.095-0.561-2.095-1.354v-2.646H235.893z"/>
			<path style="fill:#263238;" d="M245.802,220.086l-7.356,33.479c-0.239,1.099-1.309,2.008-2.388,2.008h-40.183
				c-1.07,0-1.758-1.142-1.51-2.24l7.347-33.12c0.248-1.089,1.309-1.64,2.389-1.64h40.183
				C245.362,218.573,246.04,218.997,245.802,220.086z"/>
			<path style="opacity:0.6;fill:#FFFFFF;enable-background:new    ;" d="M245.802,220.086l-7.356,33.479
				c-0.239,1.099-1.309,2.008-2.388,2.008h-40.183c-1.07,0-1.758-1.142-1.51-2.24l7.347-33.12c0.248-1.089,1.309-1.64,2.389-1.64
				h40.183C245.362,218.573,246.04,218.997,245.802,220.086z"/>
			<path style="opacity:0.4;fill:#FFFFFF;enable-background:new    ;" d="M245.802,220.086l-7.356,33.479
				c-0.239,1.099-1.309,2.008-2.388,2.008H197.24c-1.08,0-1.758-1.142-1.519-2.24l7.357-33.12c0.239-1.089,1.309-1.64,2.389-1.64
				h38.817C245.362,218.573,246.04,218.997,245.802,220.086z"/>
			<path style="opacity:0.2;enable-background:new    ;" d="M222.163,241.543c1.87,0,3.79-2.01,4.28-4.48
				c0.48-2.48-0.64-4.49-2.52-4.49c-0.35,0-0.7,0.07-1.04,0.2c-0.44,1.93-1.75,3.55-3.19,4.09c-0.02,0.07-0.04,0.13-0.05,0.2
				C219.153,239.533,220.283,241.543,222.163,241.543z"/>
		</g>
	</g>
	<g>
		<g>
			<polygon style="fill:#263238;" points="271.341,229.066 280.703,238.429 283.868,256.573 264.615,256.573 265.407,254.573 
				275.956,252.573 276.879,241.543 269.89,239.879 			"/>
			<polygon style="opacity:0.6;fill:#FFFFFF;enable-background:new    ;" points="283.87,256.57 264.62,256.57 265.41,254.57 
				275.96,252.57 276.88,241.54 275.97,241.32 269.89,239.88 271.34,229.07 280.7,238.43 			"/>
			<polygon style="opacity:0.2;enable-background:new    ;" points="279.4,237.13 275.97,241.32 269.89,239.88 271.34,229.07 			"/>
			<g>
				<path style="fill:#263238;" d="M270.253,244.777h-10.751c-0.454,0-0.773-0.366-0.712-0.817l6.241-46.115
					c0.061-0.451,0.479-0.817,0.933-0.817h10.751c0.454,0,0.773,0.366,0.712,0.817l-6.241,46.115
					C271.125,244.411,270.707,244.777,270.253,244.777z"/>
				<path style="opacity:0.6;fill:#FFFFFF;enable-background:new    ;" d="M270.253,244.777h-10.751
					c-0.454,0-0.773-0.366-0.712-0.817l6.241-46.115c0.061-0.451,0.479-0.817,0.933-0.817h10.751c0.454,0,0.773,0.366,0.712,0.817
					l-6.241,46.115C271.125,244.411,270.707,244.777,270.253,244.777z"/>
				<path style="opacity:0.4;fill:#FFFFFF;enable-background:new    ;" d="M267.253,244.777h-7.751
					c-0.454,0-0.773-0.366-0.712-0.817l6.241-46.115c0.061-0.451,0.479-0.817,0.933-0.817h7.751c0.454,0,0.773,0.366,0.712,0.817
					l-6.241,46.115C268.125,244.411,267.707,244.777,267.253,244.777z"/>
				<polygon style="fill:#407BFF;" points="267.711,243.33 259.458,243.33 265.528,198.476 273.781,198.476 				"/>
			</g>
		</g>
		<g>
			<g>
				<polygon style="fill:#263238;" points="196.497,416.573 190.371,416.573 179.364,263.326 187.491,263.326 				"/>
				<polygon style="opacity:0.4;fill:#FFFFFF;enable-background:new    ;" points="196.501,416.573 190.371,416.573 
					179.901,270.938 179.361,263.573 187.491,263.573 187.931,270.938 				"/>
				<polygon style="opacity:0.2;enable-background:new    ;" points="187.931,270.573 179.901,270.573 179.361,263.573 
					187.491,263.573 				"/>
			</g>
			<g>
				<polygon style="fill:#263238;" points="241.456,416.573 235.33,416.573 234.329,263.326 242.456,263.326 				"/>
				<polygon style="opacity:0.5;fill:#FFFFFF;enable-background:new    ;" points="242.461,263.573 242.301,288.298 
					241.461,416.573 235.331,416.573 234.491,288.298 234.331,263.573 				"/>
				<polygon style="opacity:0.2;enable-background:new    ;" points="242.461,263.573 242.301,288.573 234.491,288.573 
					234.331,263.573 				"/>
			</g>
			<g>
				<polygon style="fill:#263238;" points="306.497,416.573 300.371,416.573 289.364,263.326 297.491,263.326 				"/>
				<polygon style="opacity:0.5;fill:#FFFFFF;enable-background:new    ;" points="306.501,416.573 300.371,416.573 
					289.901,270.938 289.361,263.573 297.491,263.573 297.931,270.938 				"/>
				<polygon style="opacity:0.2;enable-background:new    ;" points="297.931,270.573 289.901,270.573 289.361,263.573 
					297.491,263.573 				"/>
			</g>
			<g>
				<polygon style="fill:#263238;" points="126.415,416.573 120.289,416.573 129.294,263.326 137.422,263.326 				"/>
				<polygon style="opacity:0.5;fill:#FFFFFF;enable-background:new    ;" points="137.421,263.573 136.881,270.938 
					126.411,416.573 120.291,416.573 128.851,270.938 129.291,263.573 				"/>
				<polygon style="opacity:0.2;enable-background:new    ;" points="129.291,263.573 137.421,263.573 136.881,270.573 
					128.851,270.573 				"/>
			</g>
			<g>
				<path style="fill:#407BFF;" d="M301.771,267.164H125.014c-1.194,0-2.162-0.968-2.162-2.162v-5.514h181.081v5.514
					C303.934,266.196,302.966,267.164,301.771,267.164z"/>
			</g>
			<rect x="122.852" y="259.488" style="opacity:0.2;enable-background:new    ;" width="181.081" height="3.838"/>
			<g>
				<path style="fill:#407BFF;" d="M307.731,260.489H119.055c-1.194,0-2.162-0.968-2.162-2.162l0,0c0-1.194,0.968-2.162,2.162-2.162
					h188.676c1.194,0,2.162,0.968,2.162,2.162l0,0C309.893,259.521,308.925,260.489,307.731,260.489z"/>
			</g>
		</g>
	</g>
</g>
</svg>
