<?xml version="1.0" encoding="utf-8"?>
<!-- Generator: Adobe Illustrator 27.5.0, SVG Export Plug-In . SVG Version: 6.00 Build 0)  -->
<svg version="1.1" xmlns="http://www.w3.org/2000/svg" xmlns:xlink="http://www.w3.org/1999/xlink" x="0px" y="0px"
	 viewBox="0 0 500 500" style="enable-background:new 0 0 500 500;" xml:space="preserve">
<g id="Background_Complete">
	<g>
		<g>
			<rect y="382.398" style="fill:#EBEBEB;" width="500" height="0.25"/>
			<path style="fill:#EBEBEB;" d="M237.014,337.8H43.915c-3.147,0-5.708-2.561-5.708-5.708V60.66c0-3.147,2.561-5.708,5.708-5.708
				h193.099c3.146,0,5.707,2.561,5.707,5.708v271.432C242.721,335.239,240.16,337.8,237.014,337.8z M43.915,55.203
				c-3.01,0-5.458,2.448-5.458,5.458v271.432c0,3.01,2.448,5.458,5.458,5.458h193.099c3.009,0,5.457-2.448,5.457-5.458V60.66
				c0-3.009-2.448-5.458-5.457-5.458H43.915z"/>
			<path style="fill:#EBEBEB;" d="M453.31,337.8H260.212c-3.147,0-5.707-2.561-5.707-5.708V60.66c0-3.147,2.561-5.708,5.707-5.708
				H453.31c3.148,0,5.708,2.561,5.708,5.708v271.432C459.019,335.239,456.458,337.8,453.31,337.8z M260.212,55.203
				c-3.009,0-5.457,2.448-5.457,5.458v271.432c0,3.01,2.448,5.458,5.457,5.458H453.31c3.01,0,5.458-2.448,5.458-5.458V60.66
				c0-3.009-2.448-5.458-5.458-5.458H260.212z"/>
		</g>
		<g>
			<rect x="174.438" y="391.922" style="fill:#EBEBEB;" width="25.997" height="0.25"/>
			<rect x="52.459" y="389.208" style="fill:#EBEBEB;" width="54.101" height="0.25"/>
			<rect x="147.119" y="401.208" style="fill:#EBEBEB;" width="26.317" height="0.25"/>
			<rect x="258.227" y="399.528" style="fill:#EBEBEB;" width="38.832" height="0.25"/>
			<rect x="305.962" y="399.528" style="fill:#EBEBEB;" width="10.694" height="0.25"/>
			<rect x="395.346" y="395.306" style="fill:#EBEBEB;" width="54.556" height="0.25"/>
		</g>
	</g>
	<g>
		<g>
			<g>
				
					<rect x="381.06" y="248.052" transform="matrix(-1 -1.224647e-16 1.224647e-16 -1 807.7711 621.5772)" style="fill:#F0F0F0;" width="45.652" height="125.473"/>
				
					<rect x="181.739" y="373.525" transform="matrix(-1 -1.224647e-16 1.224647e-16 -1 599.6848 755.9232)" style="fill:#F0F0F0;" width="236.207" height="8.873"/>
				<rect x="172.973" y="248.052" style="fill:#F5F5F5;" width="208.086" height="125.473"/>
				<rect x="172.973" y="256.546" style="fill:#F0F0F0;" width="208.886" height="45.925"/>
				<rect x="172.973" y="310.848" style="fill:#F0F0F0;" width="208.886" height="45.925"/>
				
					<rect x="381.06" y="256.546" transform="matrix(-1 -1.224647e-16 1.224647e-16 -1 770.0168 559.0173)" style="fill:#E6E6E6;" width="7.898" height="45.925"/>
				
					<rect x="381.06" y="310.848" transform="matrix(-1 -1.224647e-16 1.224647e-16 -1 770.0168 667.6205)" style="fill:#E6E6E6;" width="7.898" height="45.925"/>
			</g>
			
				<rect x="166.89" y="240.332" transform="matrix(-1 -1.224647e-16 1.224647e-16 -1 547.9498 488.3842)" style="fill:#F0F0F0;" width="214.169" height="7.72"/>
			<rect x="381.06" y="240.332" style="fill:#E6E6E6;" width="52.032" height="7.72"/>
		</g>
		<g>
			
				<rect x="328.143" y="81.684" transform="matrix(-1 -1.224647e-16 1.224647e-16 -1 763.7179 298.4117)" style="fill:#F0F0F0;" width="107.432" height="135.044"/>
			
				<rect x="304.427" y="81.684" transform="matrix(-1 -1.224647e-16 1.224647e-16 -1 735.8855 298.4117)" style="fill:#F5F5F5;" width="127.032" height="135.044"/>
			
				<rect x="311.063" y="96.332" transform="matrix(6.123234e-17 -1 1 6.123234e-17 218.737 517.1486)" style="fill:#FFFFFF;" width="113.76" height="105.748"/>
			<g>
				<path style="fill:#E6E6E6;" d="M379.652,161.521l20.21-9.369v-5.896l-20.21-9.385v7.055l12.282,5.29l-12.282,5.293V161.521z"/>
				<path style="fill:#E6E6E6;" d="M366.475,134.15h-3.694l6.544,30.112h3.659L366.475,134.15z"/>
				<path style="fill:#E6E6E6;" d="M356.234,154.509l-12.282-5.293l12.282-5.29v-7.055l-20.21,9.385v5.896l20.21,9.369V154.509z"/>
			</g>
		</g>
		<g>
			
				<rect x="117.214" y="153.222" transform="matrix(-1 -1.224647e-16 1.224647e-16 -1 241.4702 535.6206)" style="fill:#F0F0F0;" width="7.043" height="229.176"/>
			<path style="fill:#F0F0F0;" d="M115.754,380.802l-0.191-0.982c0.075-0.016,1.922-0.424,3.326-2.91
				c1.831-3.242,2.944-10.148-2.146-24.632c-7.844-22.313-3.162-40.321,6.165-76.197c1.624-6.249,3.466-13.332,5.377-20.979
				c7.167-28.668,0.537-46.449-4.79-60.737c-4.136-11.091-7.401-19.852-3.221-29.999l0.924,0.381
				c-4.03,9.785-0.825,18.383,3.234,29.27c5.375,14.417,12.064,32.359,4.823,61.328c-1.913,7.651-3.755,14.736-5.38,20.987
				c-9.276,35.68-13.932,53.589-6.189,75.614c5.235,14.895,4.002,22.092,2.045,25.507
				C118.088,380.318,115.849,380.783,115.754,380.802z"/>
			<polygon style="fill:#F0F0F0;" points="107.992,382.398 133.479,382.398 126.392,378.222 115.078,378.222 			"/>
			<polygon style="fill:#F5F5F5;" points="70.315,182.407 171.155,182.407 160.058,97.667 81.412,97.667 			"/>
		</g>
		<g>
			<polygon style="fill:#F0F0F0;" points="219.879,196.376 273.719,196.376 266.632,240.332 226.966,240.332 			"/>
			<g>
				<path style="fill:#E0E0E0;" d="M241.508,210.679c14.679-5.313,25.926-13.292,13.345-29.434
					c-12.581-16.142-32.075-16.075-45.21-8.929c-16.743,9.108-13.386,35.452-13.386,35.452S226.829,215.992,241.508,210.679z"/>
				<path style="fill:#E6E6E6;" d="M255.783,195.969c-11.233-7.645-19.196-16.502-6.163-25.84c13.033-9.338,29.1-4.551,38.758,4.125
					c12.31,11.06,5.206,30.47,5.206,30.47S267.016,203.614,255.783,195.969z"/>
				<path style="fill:#F0F0F0;" d="M236.012,176.593c13.14-0.797,24.159-4.224,17.937-18.457
					c-6.222-14.233-21.969-18.212-34.309-15.775c-15.729,3.106-19.435,22.785-19.435,22.785S222.872,177.389,236.012,176.593z"/>
				<path style="fill:#EBEBEB;" d="M252.498,168.197c-10.93-3.514-19.499-8.791-11.166-19.472
					c8.334-10.681,22.5-10.638,32.399-5.912c12.619,6.024,11.496,23.454,11.496,23.454S263.428,171.71,252.498,168.197z"/>
				<path style="fill:#F5F5F5;" d="M232.012,149.964c10.903,3.596,20.937,4.375,20.49-9.165
					c-0.447-13.54-11.922-21.847-22.707-23.855c-13.747-2.561-23.102,12.188-23.102,12.188S221.109,146.368,232.012,149.964z"/>
				<path style="fill:#FAFAFA;" d="M259.687,144.154c-7.805,0.532-14.561-0.648-11.979-9.511
					c2.582-8.863,11.56-12.408,19.019-11.913c9.507,0.631,13.192,11.948,13.192,11.948S267.492,143.622,259.687,144.154z"/>
			</g>
		</g>
	</g>
</g>
<g id="Background_Simple" style="display:none;">
	<g style="display:inline;">
		<path style="fill:#407BFF;" d="M282.905,296.64c-42.278,0.598-104.777,32.909-130.797-7.738
			c-21.82-34.086,3.382-67.463-36.965-92.647c-29.402-18.352-77.132-50.531-32.81-83.873c34.664-26.077,88.842-33.321,130.825-27.34
			c32.975,4.698,101.538,24.259,109.827,58.863c9.315,38.886-51.1,71.001,13.493,85.644c38.875,8.813,85.748,31.374,58.287,77.887
			c-10.839,18.358-26.28,15.164-42.653,7.931C327.946,304.691,311.987,296.229,282.905,296.64z"/>
		<path style="opacity:0.9;fill:#FFFFFF;" d="M282.905,296.64c-42.278,0.598-104.777,32.909-130.797-7.738
			c-21.82-34.086,3.382-67.463-36.965-92.647c-29.402-18.352-77.132-50.531-32.81-83.873c34.664-26.077,88.842-33.321,130.825-27.34
			c32.975,4.698,101.538,24.259,109.827,58.863c9.315,38.886-51.1,71.001,13.493,85.644c38.875,8.813,85.748,31.374,58.287,77.887
			c-10.839,18.358-26.28,15.164-42.653,7.931C327.946,304.691,311.987,296.229,282.905,296.64z"/>
	</g>
</g>
<g id="Shadow_1_">
	<ellipse id="_x3C_Path_x3E__327_" style="fill:#F5F5F5;" cx="250" cy="416.238" rx="193.889" ry="11.323"/>
</g>
<g id="Desk">
	<g>
		<g>
			<rect x="79.51" y="251.085" style="fill:#407BFF;" width="339.754" height="12.193"/>
			<rect x="79.51" y="251.085" style="opacity:0.3;fill:#FFFFFF;" width="90.927" height="12.193"/>
			<polygon style="fill:#407BFF;" points="171.893,263.278 163.979,263.278 168.124,416.055 171.893,416.055 175.662,416.055 
				179.806,263.278 			"/>
			<polygon style="opacity:0.3;fill:#FFFFFF;" points="168.124,416.055 171.893,416.055 171.893,266.561 164.107,267.984 			"/>
			<polygon style="fill:#407BFF;" points="96.919,263.278 89.006,263.278 93.15,416.055 96.919,416.055 100.688,416.055 
				104.833,263.278 			"/>
			<polygon style="opacity:0.3;fill:#FFFFFF;" points="93.15,416.055 96.919,416.055 96.919,266.561 89.133,267.984 			"/>
			<polygon style="fill:#407BFF;" points="401.854,263.278 393.941,263.278 398.085,416.055 401.854,416.055 405.623,416.055 
				409.768,263.278 			"/>
			<polygon style="opacity:0.3;fill:#FFFFFF;" points="398.085,416.055 401.854,416.055 401.854,266.561 394.069,267.984 			"/>
			<polygon style="fill:#407BFF;" points="326.881,263.278 318.967,263.278 323.112,416.055 326.881,416.055 330.65,416.055 
				334.794,263.278 			"/>
			<polygon style="opacity:0.3;fill:#FFFFFF;" points="323.112,416.055 326.881,416.055 326.881,266.561 319.095,267.984 			"/>
		</g>
		<g>
			<path style="fill:#263238;" d="M240.781,185.829h-80.835c-2.902,0-4.778,2.374-4.17,5.276l10.766,51.35
				c0.608,2.902,3.48,5.276,6.382,5.276h80.835c2.902,0,4.778-2.374,4.17-5.276l-10.766-51.35
				C246.555,188.204,243.683,185.829,240.781,185.829z"/>
			<path style="fill:#FFFFFF;" d="M173.671,244.8c-1.898,0-3.915-1.682-4.316-3.598l-10.766-51.35
				c-0.166-0.791-0.033-1.502,0.374-2.003c0.381-0.471,0.996-0.73,1.73-0.73h80.835c1.897,0,3.915,1.682,4.317,3.599l10.766,51.349
				c0.165,0.79,0.032,1.502-0.374,2.003c-0.388,0.477-0.986,0.73-1.731,0.73H173.671z"/>
			<path style="opacity:0.4;fill:#407BFF;" d="M234.662,240.693l-10.2-48.652c-0.258-1.231,0.681-2.388,1.939-2.388h13.117
				c0.938,0,1.747,0.657,1.939,1.575l10.2,48.652c0.258,1.231-0.681,2.388-1.939,2.388h-13.117
				C235.664,242.267,234.854,241.61,234.662,240.693z"/>
			<g>
				<polygon style="fill:#407BFF;" points="165.323,193.874 164.88,191.763 181.08,191.763 181.522,193.874 				"/>
				<polygon style="fill:#EBEBEB;" points="172.8,199.108 172.358,196.997 200.753,196.997 201.196,199.108 				"/>
				<polygon style="fill:#EBEBEB;" points="174.296,204.342 173.853,202.232 205.677,202.232 206.12,204.342 				"/>
				<polygon style="fill:#EBEBEB;" points="175.791,209.576 175.349,207.466 200.975,207.466 201.417,209.576 				"/>
			</g>
			<g>
				<polygon style="fill:#407BFF;" points="170.245,218.07 169.803,215.96 180.05,215.96 180.492,218.07 				"/>
				<polygon style="fill:#EBEBEB;" points="177.723,223.304 177.28,221.194 189.765,221.194 190.208,223.304 				"/>
				<polygon style="fill:#EBEBEB;" points="193.198,223.304 192.755,221.194 205.241,221.194 205.683,223.304 				"/>
				<polygon style="fill:#EBEBEB;" points="179.218,228.538 178.776,226.428 220.977,226.428 221.419,228.538 				"/>
				<polygon style="fill:#EBEBEB;" points="180.713,233.772 180.271,231.662 212.448,231.662 212.89,233.772 				"/>
			</g>
			<path style="fill:#263238;" d="M278.522,247.422H172.157c-2.902,0-4.778,1.649-4.17,3.664h116.916
				C284.295,249.07,281.423,247.422,278.522,247.422z"/>
		</g>
		<g>
			<path style="opacity:0.1;fill:#407BFF;" d="M137.207,172.846l-10.2-48.652c-0.258-1.231,0.681-2.388,1.939-2.388h82.605
				c0.938,0,1.747,0.657,1.939,1.575l10.2,48.651c0.258,1.231-0.681,2.388-1.939,2.388h-82.605
				C138.209,174.421,137.399,173.763,137.207,172.846z"/>
			<g>
				<g>
					<g>
						<polygon style="fill:#407BFF;" points="166.569,123.41 149.231,123.41 148.842,121.544 166.18,121.544 						"/>
						<polygon style="opacity:0.4;fill:#407BFF;" points="163.749,126.385 156.79,126.385 156.401,124.519 163.36,124.519 						"/>
						<polygon style="opacity:0.4;fill:#407BFF;" points="175.33,126.385 164.607,126.385 164.218,124.519 174.941,124.519 						
							"/>
						<polygon style="opacity:0.4;fill:#407BFF;" points="180.004,129.36 157.41,129.36 157.021,127.494 179.615,127.494 						"/>
						<polygon style="opacity:0.4;fill:#407BFF;" points="177.129,132.335 158.03,132.335 157.641,130.469 176.74,130.469 						"/>
					</g>
					<polygon style="opacity:0.4;fill:#407BFF;" points="189.799,163.949 177.641,163.949 178.03,165.814 190.188,165.814 					"/>
					<g>
						<polygon style="fill:#407BFF;" points="174.638,159.865 156.831,159.865 156.442,157.999 174.249,157.999 						"/>
						<polygon style="opacity:0.4;fill:#407BFF;" points="181.803,166.923 165.241,166.923 165.63,168.789 182.192,168.789 						
							"/>
						<polygon style="opacity:0.4;fill:#407BFF;" points="176.779,163.949 164.621,163.949 165.01,165.814 177.168,165.814 						
							"/>
						<polygon style="opacity:0.4;fill:#407BFF;" points="188.316,160.974 164.001,160.974 164.39,162.839 188.705,162.839 						
							"/>
					</g>
					<g>
						<polygon style="fill:#407BFF;" points="165.962,109.532 146.338,109.532 145.949,107.667 165.573,107.667 						"/>
						<polygon style="opacity:0.4;fill:#407BFF;" points="175.646,116.591 154.011,116.591 154.4,118.457 176.035,118.457 						"/>
						<polygon style="opacity:0.4;fill:#407BFF;" points="171.317,113.616 153.391,113.616 153.78,115.482 171.706,115.482 						
							"/>
						<polygon style="opacity:0.4;fill:#407BFF;" points="172.514,110.642 152.77,110.642 153.16,112.507 172.903,112.507 						"/>
					</g>
					<g>
						<polygon style="fill:#407BFF;" points="165.736,137.175 152.101,137.175 151.712,135.309 165.347,135.309 						"/>
						<polygon style="opacity:0.4;fill:#407BFF;" points="187.156,144.234 160.511,144.234 160.9,146.1 187.545,146.1 						"/>
						<polygon style="opacity:0.4;fill:#407BFF;" points="170.93,141.259 159.891,141.259 160.28,143.125 171.318,143.125 						"/>
						<polygon style="opacity:0.4;fill:#407BFF;" points="182.91,141.259 171.871,141.259 172.26,143.125 183.298,143.125 						"/>
						<polygon style="opacity:0.4;fill:#407BFF;" points="183.586,138.284 159.271,138.284 159.66,140.15 183.975,140.15 						"/>
						<polygon style="opacity:0.4;fill:#407BFF;" points="183.539,153.158 162.372,153.158 162.76,155.024 183.928,155.024 						
							"/>
						<polygon style="opacity:0.4;fill:#407BFF;" points="167.906,150.184 161.751,150.184 162.14,152.049 168.295,152.049 						
							"/>
						<polygon style="opacity:0.4;fill:#407BFF;" points="177.54,150.184 168.754,150.184 169.143,152.049 177.929,152.049 						
							"/>
						<polygon style="opacity:0.4;fill:#407BFF;" points="185.446,147.209 161.131,147.209 161.52,149.074 185.835,149.074 						
							"/>
					</g>
				</g>
				<g>
					<g>
						<polygon style="opacity:0.4;fill:#407BFF;" points="204.605,146.71 195.892,146.71 195.503,144.845 204.216,144.845 						"/>
						<polygon style="opacity:0.4;fill:#407BFF;" points="219.103,146.71 205.679,146.71 205.29,144.845 218.714,144.845 						"/>
						<polygon style="opacity:0.4;fill:#407BFF;" points="224.799,149.685 196.512,149.685 196.123,147.82 224.41,147.82 						"/>
						<polygon style="opacity:0.4;fill:#407BFF;" points="221.043,152.66 197.132,152.66 196.743,150.794 220.654,150.794 						"/>
					</g>
					<g>
						<polygon style="opacity:0.4;fill:#407BFF;" points="231.749,134.875 204.662,134.875 205.051,136.74 232.138,136.74 						"/>
						<polygon style="opacity:0.4;fill:#407BFF;" points="226.485,131.9 204.042,131.9 204.431,133.766 226.874,133.766 						"/>
						<polygon style="fill:#407BFF;" points="222.427,128.925 197.709,128.925 198.098,130.791 222.816,130.791 						"/>
					</g>
					<g>
						<polygon style="opacity:0.4;fill:#407BFF;" points="232.972,164.559 199.613,164.559 200.002,166.425 233.361,166.425 						
							"/>
						<polygon style="opacity:0.4;fill:#407BFF;" points="212.813,161.585 198.993,161.585 199.382,163.45 213.202,163.45 						"/>
						<polygon style="opacity:0.4;fill:#407BFF;" points="227.811,161.585 213.991,161.585 214.38,163.45 228.2,163.45 						"/>
						<polygon style="opacity:0.4;fill:#407BFF;" points="228.814,158.61 198.372,158.61 198.761,160.475 229.203,160.475 						"/>
						<polygon style="opacity:0.4;fill:#407BFF;" points="227.974,173.484 201.473,173.484 201.862,175.35 228.363,175.35 						"/>
						<polygon style="opacity:0.4;fill:#407BFF;" points="208.559,170.509 200.853,170.509 201.242,172.375 208.948,172.375 						
							"/>
						<polygon style="opacity:0.4;fill:#407BFF;" points="220.62,170.509 209.62,170.509 210.009,172.375 221.01,172.375 						"/>
						<polygon style="opacity:0.4;fill:#407BFF;" points="230.675,167.534 200.233,167.534 200.622,169.4 231.064,169.4 						"/>
					</g>
				</g>
				<g>
					<polygon style="opacity:0.4;fill:#407BFF;" points="149.6,175.791 128.864,175.791 129.253,177.657 149.988,177.657 					"/>
					<polygon style="opacity:0.4;fill:#407BFF;" points="143.465,172.817 128.244,172.817 128.633,174.682 143.854,174.682 					"/>
					<polygon style="opacity:0.4;fill:#407BFF;" points="159.766,172.817 144.545,172.817 144.934,174.682 160.154,174.682 					"/>
					<polygon style="opacity:0.4;fill:#407BFF;" points="158.066,169.842 127.624,169.842 128.013,171.708 158.454,171.708 					"/>
				</g>
			</g>
		</g>
		<g>
			<polygon style="fill:#407BFF;" points="390.951,231.662 378.113,231.662 379.609,251.085 389.455,251.085 			"/>
			<polygon style="opacity:0.4;fill:#FFFFFF;" points="390.951,231.662 378.113,231.662 379.609,251.085 389.455,251.085 			"/>
		</g>
		<g>
			<polygon style="fill:#263238;" points="111.134,218.173 129.592,218.173 123.29,251.085 104.833,251.085 			"/>
			<polygon style="fill:#407BFF;" points="134.643,209.35 108.571,209.35 115.868,251.085 141.94,251.085 			"/>
			<g>
				<polygon style="fill:#407BFF;" points="107.029,209.35 108.571,209.35 115.868,251.085 114.326,251.085 				"/>
				<polygon style="opacity:0.3;" points="107.029,209.35 108.571,209.35 115.868,251.085 114.326,251.085 				"/>
			</g>
			<polygon style="fill:#FFFFFF;" points="119.617,246.624 113.88,213.811 130.895,213.811 136.632,246.624 			"/>
			<polygon style="opacity:0.6;fill:#407BFF;" points="135.824,246.624 130.088,213.811 130.895,213.811 136.632,246.624 			"/>
		</g>
	</g>
</g>
<g id="Character_1_">
	<g>
		<g>
			<path style="fill:#263238;" d="M263.77,155.963c0.371,0.801,0.247,1.648-0.277,1.89c-0.524,0.242-1.249-0.211-1.62-1.012
				c-0.371-0.801-0.247-1.648,0.277-1.89C262.674,154.709,263.399,155.162,263.77,155.963z"/>
			<path style="fill:#FF5652;" d="M264.09,157.577c0,0,0.316,5.466-0.658,8.625c2.03,0.668,4.161-1.052,4.161-1.052L264.09,157.577z
				"/>
			<path style="fill:#263238;" d="M263.867,149.393c-0.082,0.066-0.184,0.108-0.297,0.114c-2.285,0.128-3.252,1.725-3.292,1.793
				c-0.145,0.246-0.462,0.33-0.708,0.186c-0.247-0.144-0.331-0.458-0.19-0.706c0.051-0.088,1.268-2.149,4.132-2.309
				c0.286-0.016,0.531,0.202,0.547,0.489C264.069,149.134,263.993,149.292,263.867,149.393z"/>
			<path style="fill:#FF8B7B;" d="M293.22,154.756c3.091,10.704,6.536,19.02,10.753,23.742c0,0,0.076,8.414-14.258,12.415
				c-15.761,4.4-9.716-5.721-9.716-5.721c8.028-4.456,7.238-11.176,1.219-13.734L293.22,154.756z"/>
			<path style="fill:#263238;" d="M307.314,176.452c-0.285-3.915-0.649-8.375-3.065-8.488c-2.658-0.124-18.055,6.755-21.345,11.606
				c-3.29,4.852,3.134,9.6,3.134,9.6L307.314,176.452z"/>
			<g>
				<path style="fill:#FF8B7B;" d="M275.787,237.007l-13.299-0.438l0.236,11.14c0,0,11.604-1.195,12.115-4.245L275.787,237.007z"/>
				<polygon style="fill:#FF8B7B;" points="255.459,242.034 254.064,247.731 262.725,247.708 262.489,236.569 				"/>
				<g>
					<path style="fill:#407BFF;" d="M329.172,190.71l-0.277,2.857c-0.091,0.919-0.218,1.825-0.335,2.733
						c-0.234,1.815-0.519,3.618-0.831,5.42c-0.603,3.609-1.383,7.197-2.274,10.809c-0.937,3.598-1.968,7.228-3.325,10.873
						c-0.691,1.829-1.408,3.658-2.273,5.521c-0.858,1.864-1.79,3.735-3.002,5.649c-0.277,0.47-0.615,0.96-0.941,1.442
						c-0.32,0.48-0.655,0.962-1.044,1.457c-0.384,0.493-0.722,0.967-1.177,1.47l-0.652,0.74c-0.211,0.24-0.429,0.484-0.741,0.777
						c-2.319,2.283-4.696,3.659-6.925,4.656c-4.46,1.959-8.507,2.707-12.43,3.148c-1.954,0.232-3.881,0.322-5.779,0.364
						c-1.897,0.053-3.773,0.011-5.632-0.094c-1.858-0.084-3.702-0.265-5.534-0.479c-1.856-0.229-3.606-0.51-5.554-0.902
						l0.321-10.448c6.42-1.276,13.142-2.586,18.901-4.506c1.444-0.464,2.816-1.002,4.062-1.562c1.249-0.542,2.376-1.143,3.221-1.742
						c0.841-0.599,1.388-1.177,1.455-1.42l0.296-0.46c0.118-0.149,0.245-0.41,0.372-0.617c0.129-0.201,0.26-0.451,0.39-0.712
						c0.131-0.255,0.267-0.491,0.395-0.789c1.048-2.222,2.07-5.014,2.889-7.932c0.818-2.941,1.595-6.016,2.215-9.176
						c0.679-3.144,1.217-6.369,1.768-9.599l0.761-4.861l0.684-4.732L329.172,190.71z"/>
					<path style="opacity:0.2;" d="M329.172,190.71l-0.277,2.857c-0.091,0.919-0.218,1.825-0.335,2.733
						c-0.234,1.815-0.519,3.618-0.831,5.42c-0.603,3.609-1.383,7.197-2.274,10.809c-0.937,3.598-1.968,7.228-3.325,10.873
						c-0.691,1.829-1.408,3.658-2.273,5.521c-0.858,1.864-1.79,3.735-3.002,5.649c-0.277,0.47-0.615,0.96-0.941,1.442
						c-0.32,0.48-0.655,0.962-1.044,1.457c-0.384,0.493-0.722,0.967-1.177,1.47l-0.652,0.74c-0.211,0.24-0.429,0.484-0.741,0.777
						c-2.319,2.283-4.696,3.659-6.925,4.656c-4.46,1.959-8.507,2.707-12.43,3.148c-1.954,0.232-3.881,0.322-5.779,0.364
						c-1.897,0.053-3.773,0.011-5.632-0.094c-1.858-0.084-3.702-0.265-5.534-0.479c-1.856-0.229-3.606-0.51-5.554-0.902
						l0.321-10.448c6.42-1.276,13.142-2.586,18.901-4.506c1.444-0.464,2.816-1.002,4.062-1.562c1.249-0.542,2.376-1.143,3.221-1.742
						c0.841-0.599,1.388-1.177,1.455-1.42l0.296-0.46c0.118-0.149,0.245-0.41,0.372-0.617c0.129-0.201,0.26-0.451,0.39-0.712
						c0.131-0.255,0.267-0.491,0.395-0.789c1.048-2.222,2.07-5.014,2.889-7.932c0.818-2.941,1.595-6.016,2.215-9.176
						c0.679-3.144,1.217-6.369,1.768-9.599l0.761-4.861l0.684-4.732L329.172,190.71z"/>
				</g>
			</g>
			<g>
				<path style="fill:#407BFF;" d="M270.124,203.957c3.22,13.382,7.379,35.816,8.331,65.148h58.554
					c0.325-7.239-0.899-47.964-6.793-77.459c-2.241-11.215-13.241-18.469-24.4-15.963c-0.094,0.021-0.187,0.042-0.28,0.063
					c-7.303,1.664-17.8,4.347-23.974,6.694c-0.084,0.032-0.168,0.064-0.251,0.096C272.732,185.831,267.974,195.023,270.124,203.957z
					"/>
			</g>
			<path style="opacity:0.2;" d="M273.929,222.703c0.464,2.807,0.929,5.782,1.361,8.905c4.79-5.001,6.31-20.322,6.31-20.322
				L273.929,222.703z"/>
			<g>
				<path style="fill:#FF8B7B;" d="M225.289,237.727l-13.248-1.242l-0.438,11.134c0,0,6.824,2.243,12.35-3.504L225.289,237.727z"/>
				<polygon style="fill:#FF8B7B;" points="205.683,239.772 201.417,247.422 211.603,247.619 212.042,236.485 				"/>
				<path style="fill:#407BFF;" d="M292.095,198.867c-0.924,1.757-1.74,3.301-2.66,4.903c-0.902,1.584-1.807,3.16-2.755,4.711
					c-1.877,3.115-3.833,6.183-5.889,9.21c-4.113,6.055-8.529,11.969-13.71,17.643c-2.576,2.851-5.402,5.613-8.691,8.263
					c-0.394,0.333-0.852,0.658-1.278,0.985c-0.444,0.329-0.808,0.629-1.456,1.033c-0.585,0.389-1.172,0.74-1.76,1.05
					c-0.592,0.334-1.173,0.612-1.765,0.875c-2.365,1.035-4.669,1.671-6.882,2.089c-4.444,0.783-8.572,0.72-12.523,0.282
					c-1.974-0.264-3.904-0.565-5.797-1.033c-0.948-0.217-1.887-0.466-2.82-0.752c-0.96-0.274-1.806-0.59-2.881-0.965l1.655-10.321
					c6.278-0.852,13.066-1.945,17.747-4.058c1.168-0.499,2.174-1.081,2.913-1.676c0.371-0.29,0.712-0.558,0.944-0.834
					c0.078-0.089,0.38-0.359,0.619-0.578c0.248-0.233,0.494-0.431,0.746-0.692c2.007-1.945,4.029-4.275,6.009-6.749
					c3.94-4.981,7.674-10.513,11.269-16.164c1.799-2.828,3.556-5.709,5.302-8.595l2.585-4.348l2.491-4.265L292.095,198.867z"/>
			</g>
			<polygon style="fill:#FF8B7B;" points="276.024,407.603 265.077,407.603 259.574,382.252 270.522,382.252 			"/>
			<path style="fill:#263238;" d="M264.469,405.257h12.299c0.448,0,0.835,0.311,0.932,0.748l2.162,9.731
				c0.224,1.009-0.569,1.965-1.603,1.947c-4.294-0.074-6.38-0.326-11.788-0.326c-3.327,0-7.598,0.346-12.193,0.346
				c-4.494,0-5.195-4.544-3.314-4.955c8.435-1.845,9.027-4.39,11.727-6.817C263.178,405.492,263.814,405.257,264.469,405.257z"/>
			<g style="opacity:0.2;">
				<polygon points="270.526,382.259 259.574,382.259 262.626,396.296 273.367,395.326 				"/>
			</g>
			<path style="fill:#FF8B7B;" d="M289.714,141.9c3.948,10.122,6.774,15.846,4.139,23.197c-3.962,11.058-18.197,12.17-25.09,3.432
				c-6.204-7.865-11.619-23.097-3.797-31.47C272.674,128.809,285.765,131.778,289.714,141.9z"/>
			<path style="fill:#263238;" d="M270.489,157.061c-1.644,2.203-2.897,3.869-2.897,3.869s-3.37-8.37-2.08-12.207
				c-1.641-3.251-4.951,1.539-6.201-4.792c-1.249-6.331,4.154-13.131,6.201-14.537c0.288,0.469,0.273,2.271,0.273,2.271
				s8.089-7.21,19.608-6.199c-0.791,0.791-1.099,2.946-1.099,2.946s11.87,2.037,14.567,8.72c-1.7-0.821-2.99-1.055-2.99-1.055
				s3.4,4.221,2.403,10.727c-0.996,6.507-1.465,13.693-1.348,16.531c0.117,2.837-7.679,8.265-12.427,2.462
				C279.751,159.992,270.489,157.061,270.489,157.061z"/>
			<path style="fill:#FF8B7B;" d="M275.444,154.881c0.685,2.477,0.34,5.146-0.505,7.103c-1.271,2.944-3.876,2.273-5.174-0.339
				c-1.168-2.352-1.914-6.717,0.156-8.808C271.96,150.776,274.661,152.049,275.444,154.881z"/>
			<g>
				<path style="fill:#407BFF;" d="M296.004,269.105c0,0-50.839,18.431-52.338,42.827c-2.76,44.928,15.617,80.5,15.617,80.5
					l16.84-1.8c0,0-2.994-14.46-5.232-55.164c-2.811-51.145,83.994,1.198,66.116-66.363L296.004,269.105z"/>
				<path style="opacity:0.5;fill:#FFFFFF;" d="M296.004,269.105c0,0-50.839,18.431-52.338,42.827
					c-2.76,44.928,15.617,80.5,15.617,80.5l16.84-1.8c0,0-2.994-14.46-5.232-55.164c-2.811-51.145,83.994,1.198,66.116-66.363
					L296.004,269.105z"/>
			</g>
			<path style="fill:#407BFF;" d="M254.618,386.233c-0.08,0.008,2.68,7.474,2.68,7.474l21.027-2.058l-1.055-6.801L254.618,386.233z"
				/>
			<g>
				<polygon style="fill:#FF8B7B;" points="228.73,408.845 217.783,408.845 214.584,383.493 225.531,383.493 				"/>
				<path style="fill:#263238;" d="M217.696,405.253l11.955-0.017c0.448-0.001,0.836,0.31,0.933,0.746l2.176,9.728
					c0.226,1.008-0.539,1.966-1.572,1.949c-4.313-0.067-10.545-0.312-15.965-0.304c-6.338,0.009-7.553,0.356-14.985,0.366
					c-4.494,0.006-5.748-4.536-3.867-4.95c8.561-1.885,11.296-2.09,18.69-6.663C215.864,405.613,216.751,405.254,217.696,405.253z"
					/>
				<polygon style="opacity:0.2;" points="214.587,383.5 216.327,397.308 227.186,396.568 225.539,383.5 				"/>
			</g>
			<g>
				<path style="fill:#407BFF;" d="M278.454,269.105c0,0-83.308,7.388-82.409,49.226c0.935,43.517,17.192,72.869,17.192,72.869
					h16.266c0,0-3.083-22.575-2.537-65.418c0.164-12.835,26.099-17.076,51.428-18.574c21.88-1.293,42.36-13.765,50.86-33.967
					l1.74-4.136H278.454z"/>
				<path style="opacity:0.5;fill:#FFFFFF;" d="M278.454,269.105c0,0-83.308,7.388-82.409,49.226
					c0.935,43.517,17.192,72.869,17.192,72.869h16.266c0,0-3.083-22.575-2.537-65.418c0.164-12.835,26.099-17.076,51.428-18.574
					c21.88-1.293,42.36-13.765,50.86-33.967l1.74-4.136H278.454z"/>
			</g>
			<path style="fill:#407BFF;" d="M209.433,386.826c-0.074,0.005,2.788,7.52,2.788,7.52l19.634-1.403l-1.145-6.807L209.433,386.826z
				"/>
		</g>
		<g>
			<g>
				<path style="fill:#263238;" d="M300.316,222.081l-10.566,40.731c-2.695,10.389-4.062,21.14-4.062,31.944v18.934
					c0,4.78,3.524,8.656,7.871,8.656h54.186c4.347,0,7.871-3.875,7.871-8.656v-18.934c0-10.804,1.367-21.555,4.062-31.944
					l9.335-35.982c1.434-5.529-2.341-11.03-7.569-11.03h-53.558C304.369,215.8,301.28,218.364,300.316,222.081z"/>
				<path style="fill:#263238;" d="M232.928,302.626l1.774,10.1c0.933,5.314,5.607,9.621,10.438,9.621h60.23
					c4.832,0,7.992-4.308,7.059-9.621l-1.774-10.099c-1.062-6.046-6.379-10.947-11.877-10.947H240.96
					C235.462,291.679,231.867,296.58,232.928,302.626z"/>
			</g>
			<g>
				<polygon style="fill:#407BFF;" points="311.169,332.49 279.618,332.49 276.537,322.346 314.25,322.346 				"/>
				<g>
					<rect x="289.757" y="332.49" style="fill:#407BFF;" width="11.274" height="75.413"/>
					<polygon style="opacity:0.7;fill:#FFFFFF;" points="301.03,407.902 289.757,407.902 289.757,334.301 301.03,335.448 					"/>
					<polygon style="opacity:0.7;fill:#FFFFFF;" points="298.28,407.902 295.587,407.902 295.587,334.895 298.28,335.169 					"/>
				</g>
				<path style="fill:#407BFF;" d="M321.314,419.556h-51.84c-1.387,0-1.966-1.772-0.848-2.592l8.229-6.033
					c3.949-2.896,8.719-4.457,13.616-4.457h9.846c4.897,0,9.667,1.561,13.616,4.457l8.229,6.033
					C323.28,417.784,322.7,419.556,321.314,419.556z"/>
			</g>
		</g>
	</g>
</g>
</svg>
