<svg xmlns="http://www.w3.org/2000/svg" width="39.444" height="61.667" viewBox="0 0 39.444 61.667">
  <path id="figma" d="M28.891,31.389a8.611,8.611,0,1,0,0,17.222H37.5V40.173c0-.058,0-.116,0-.174s0-.116,0-.173V31.389Zm8.611-5H28.891a8.611,8.611,0,0,1,0-17.222H37.5Zm5-17.222V26.389h8.609a8.611,8.611,0,1,0,0-17.222Zm8.609,22.222A8.611,8.611,0,0,0,42.5,39.861v.276a8.611,8.611,0,1,0,8.609-8.749ZM28.891,53.611A8.612,8.612,0,1,0,37.5,62.223V53.611Z" transform="translate(-20.279 -9.167)" fill="#7b39ed" fill-rule="evenodd"/>
</svg>
