<svg xmlns="http://www.w3.org/2000/svg" width="73.333" height="73.333" viewBox="0 0 73.333 73.333">
  <g id="notion" transform="translate(-3.334 -3.333)">
    <path id="Path_1" data-name="Path 1" d="M33.333,56.667H30v-25L47.394,57.758a6.667,6.667,0,0,0,7.164,2.77l.846-.212A1.667,1.667,0,0,0,56.667,58.7V23.333A3.265,3.265,0,0,0,60,20H50a3.265,3.265,0,0,0-3.333,3.333H50v20L33.832,20.7a1.667,1.667,0,0,0-1.356-.7H23.333A3.265,3.265,0,0,0,20,23.333h3.333V56.667A3.265,3.265,0,0,0,20,60H30A3.265,3.265,0,0,0,33.333,56.667Z" fill="#7b39ed"/>
    <path id="Path_2" data-name="Path 2" d="M3.334,13.333a10,10,0,0,1,10-10H66.667a10,10,0,0,1,10,10V66.667a10,10,0,0,1-10,10H13.334a10,10,0,0,1-10-10Zm10-3.333H66.667A3.333,3.333,0,0,1,70,13.333V66.667A3.333,3.333,0,0,1,66.667,70H13.334A3.333,3.333,0,0,1,10,66.667V13.333A3.333,3.333,0,0,1,13.334,10Z" fill="#7b39ed" fill-rule="evenodd"/>
  </g>
</svg>
