<svg xmlns="http://www.w3.org/2000/svg" width="70.006" height="69.596" viewBox="0 0 70.006 69.596">
  <g id="vscode" transform="translate(-5.494 -5.702)">
    <path id="Path_4" data-name="Path 4" d="M73.025,13.075,58.61,6.135a4.355,4.355,0,0,0-4.972.845L6.45,50a2.915,2.915,0,0,0-.2,4.118c.063.068.125.132.193.193l3.852,3.5a2.913,2.913,0,0,0,3.723.165l56.838-43.1a2.895,2.895,0,0,1,4.645,2.3v-.167a4.37,4.37,0,0,0-2.475-3.937Z" fill="#7b39ed"/>
    <path id="Path_5" data-name="Path 5" d="M73.025,67.925,58.61,74.867a4.363,4.363,0,0,1-4.972-.845L6.45,31a2.915,2.915,0,0,1-.2-4.118c.063-.068.125-.132.193-.193l3.852-3.5a2.913,2.913,0,0,1,3.73-.165l56.83,43.1A2.9,2.9,0,0,0,75.5,63.82V64a4.372,4.372,0,0,1-2.475,3.925Z" fill="#7b39ed"/>
    <path id="Path_6" data-name="Path 6" d="M58.61,74.868a4.363,4.363,0,0,1-4.972-.845A2.563,2.563,0,0,0,58,72.21V8.79a2.56,2.56,0,0,0-4.373-1.81A4.36,4.36,0,0,1,58.6,6.132l14.413,6.93A4.37,4.37,0,0,1,75.5,17V64a4.37,4.37,0,0,1-2.477,3.94Z" fill="#7b39ed"/>
  </g>
</svg>
