<svg xmlns="http://www.w3.org/2000/svg" xmlns:xlink="http://www.w3.org/1999/xlink" width="80" height="80" viewBox="0 0 80 80">
  <defs>
    <clipPath id="clip-path">
      <rect id="Rectangle_2" data-name="Rectangle 2" width="80" height="80" fill="#fff"/>
    </clipPath>
  </defs>
  <g id="wordpress" clip-path="url(#clip-path)">
    <path id="Path_7" data-name="Path 7" d="M75.1,20.809a30.686,30.686,0,0,1,.268,4.111c0,7.032-.652,7.428-15.26,49.656A40.007,40.007,0,0,0,75.1,20.809ZM40.7,43.5l-12,34.871a40.01,40.01,0,0,0,24.584-.635A3.594,3.594,0,0,1,53,77.184ZM67,37.98a21.053,21.053,0,0,0-3.3-11.033c-2.024-3.3-3.928-6.083-3.928-9.379a6.93,6.93,0,0,1,6.72-7.1c.176,0,.344.023.516.031A39.993,39.993,0,0,0,6.58,18.027a111.864,111.864,0,0,0,13.236-.455,1.651,1.651,0,0,1,.256,3.291s-2.168.257-4.58.385L30.06,64.576,38.812,38.32,32.58,21.244c-2.152-.124-4.192-.381-4.192-.381-2.156-.128-1.9-3.423.252-3.295a113.674,113.674,0,0,0,21.2,0,1.653,1.653,0,0,1,.256,3.295s-2.172.257-4.58.381l14.456,43C65.676,45.172,67,41.98,67,37.98ZM0,40A40.006,40.006,0,0,0,22.544,76L3.464,23.721A39.842,39.842,0,0,0,0,40Z" fill="#7b39ed" fill-rule="evenodd"/>
  </g>
</svg>
